<svg width="1127" height="1239" viewBox="0 0 1127 1239" fill="none" xmlns="http://www.w3.org/2000/svg">
<path d="M1010.11 1005.41C1007.62 1001.11 1005.92 996.411 1004.59 991.709C1004.33 981.489 1004.74 971.27 1004.74 961.088C1004.59 958.718 1005.48 956.497 1005.4 954.164C1005.51 944.204 1005.59 934.244 1005.59 924.284C1005.7 918.471 1005.33 912.658 1005.92 906.882C1005.92 904.105 1005.22 901.328 1005.77 898.551C1006.44 895.071 1005.26 891.59 1005.59 888.11C1006.33 882.334 1005.81 876.521 1005.96 870.745C1006.03 820.686 1005.96 770.627 1005.96 720.604C1004.96 712.051 1005.96 703.424 1004.81 694.908C1004.63 678.876 1004.18 662.881 1003.85 646.886C1003.11 642.257 1003.33 637.555 1003.18 632.89C1003.18 628.521 1002.66 624.152 1002.7 619.783C1002.74 616.302 1001.92 612.859 1002.03 609.415C1001.77 592.939 1000.4 576.499 999.553 560.06C998.738 552.432 999.072 544.694 997.813 537.104C997.702 532.438 997.331 527.847 996.887 523.219C995.961 516.999 996.146 510.63 995.184 504.41C994.925 497.893 993.703 491.488 993.258 485.008C991.703 469.642 989.593 454.388 987.63 439.096C987.482 434.283 985.89 429.654 985.779 424.841C985.705 421.62 984.557 418.584 984.224 415.399C983.113 407.772 981.78 400.145 980.299 392.554C980.151 388.889 978.781 385.408 978.336 381.78C977.114 375.004 975.596 368.302 974.189 361.527C972.301 352.529 969.524 343.754 967.413 334.794C965.784 328.647 964.414 322.427 962.304 316.429C961.489 311.727 959.563 307.358 958.267 302.803C957.601 300.1 955.898 297.509 956.861 294.658C956.49 295.102 956.12 295.546 955.824 295.991C948.789 273.405 939.939 251.448 930.756 229.677C927.979 223.309 924.684 217.236 921.833 210.905C920.203 207.647 918.315 204.536 916.871 201.204C910.873 189.911 904.43 178.803 896.987 168.362C889.323 155.699 880.103 144.11 871.327 132.225C863.218 122.487 855.628 112.305 846.704 103.344C842.927 99.0124 838.892 94.9395 834.744 90.9778C826.228 82.0545 816.564 74.3531 807.085 66.5036C800.827 61.5421 794.163 57.136 787.498 52.767C788.312 52.1375 789.127 51.6192 790.015 51.1008C788.645 51.434 787.35 51.9524 786.017 52.3967C786.128 52.0264 786.387 51.3229 786.535 50.9527C784.128 51.0267 782.129 49.4716 780.129 48.3609C774.427 44.6953 768.54 41.363 762.504 38.2528C749.396 31.8103 736.215 25.4048 722.404 20.5544C718.627 19.0363 714.591 18.2958 710.777 16.7777C689.005 9.74277 666.418 5.37371 643.795 2.33758C639.462 1.2268 634.945 1.70814 630.539 1.04167C627.206 0.930592 623.911 0.560332 620.616 0.153046C608.693 -0.0691094 596.77 -0.0320835 584.847 0.153046C577.405 0.0789945 569.962 0.67141 562.557 1.30085C552.967 1.41193 543.414 2.78189 533.972 4.33698C527.048 5.37371 520.086 6.0772 513.236 7.55824C506.238 8.55794 499.462 10.4833 492.575 11.9273C489.28 13.1121 485.688 13.2232 482.467 14.6302C465.841 19.1103 449.809 25.4418 434.146 32.5508C393.823 50.9527 356.278 75.9822 325.101 107.639C319.473 113.601 314.104 119.821 308.661 125.967C302.884 132.743 297.701 140.037 292.295 147.109C283.778 159.18 275.891 171.731 268.56 184.579C265.228 189.726 262.784 195.391 259.748 200.723C255.823 208.202 252.157 215.829 248.306 223.346C241.086 239.415 233.236 255.225 227.497 271.887C224.498 278.218 222.572 284.994 220.017 291.51C217.351 299.73 214.167 307.839 212.686 316.392C224.646 316.503 236.605 316.355 248.565 316.355C264.302 316.207 280.076 316.466 295.812 315.948C338.431 316.022 381.049 315.799 423.63 315.799C430.295 315.54 436.034 320.243 438.663 326.167C454.511 325.982 470.322 325.982 486.169 326.426C490.02 326.315 493.945 326.907 497.796 326.426C500.018 324.241 501.647 321.353 504.387 319.761C508.423 317.058 513.422 316.725 518.124 316.947C546.376 316.762 574.628 316.429 602.88 316.281C607.767 316.466 612.581 315.762 617.468 315.948C667.492 315.874 717.516 315.948 767.54 315.577C773.057 314.837 778.611 315.207 784.165 315.059C805.937 315.059 827.709 314.504 849.481 314.615C857.368 314.615 865.255 314.541 873.179 314.985C878.881 315.429 884.213 318.799 887.027 323.723C889.989 327.722 889.841 332.905 889.471 337.645C888.878 342.977 885.583 347.679 881.214 350.641C878.881 352.196 876.104 352.751 873.549 353.825C869.55 354.825 865.403 354.566 861.33 354.973C852.295 355.825 843.224 356.343 834.152 356.972C826.524 358.12 818.749 357.528 811.158 358.861C798.939 359.786 786.683 360.453 774.464 361.527C770.576 361.638 766.651 361.452 762.837 362.267C762.615 370.08 763.171 377.855 763.467 385.667C763.245 389.518 762.911 393.406 762.689 397.257C761.986 403.588 762.023 410.068 760.32 416.251C757.394 431.061 753.433 445.946 745.879 459.127C738.844 472.16 729.698 484.045 718.738 493.968C709.148 501.633 699.002 508.631 687.82 513.814C683.895 516.221 679.415 517.406 675.231 519.257C668.603 520.997 662.123 523.367 655.384 524.589C645.239 526.848 634.76 527.403 624.355 527.736C615.061 527.477 605.768 526.403 596.622 524.626C591.216 523.626 586.143 521.59 580.848 520.257C571.888 517.11 563.668 512.259 555.744 507.113C542.229 497.93 530.972 485.712 521.753 472.271C514.199 461.645 508.275 449.945 503.128 438.022C498.611 425.544 495.13 412.659 493.39 399.478C491.316 390.222 492.279 380.632 492.205 371.227C481.837 370.82 471.47 370.302 461.102 369.413C454.289 369.561 447.55 368.747 440.737 368.598C440.293 374.893 440.626 381.261 439.7 387.519C438.626 391.221 438.515 395.072 438.034 398.886C437.701 402.292 436.405 405.513 436.072 408.92C433.072 420.028 430.591 431.432 425.482 441.836C422.52 448.76 418.928 455.424 415.336 462.052C411.485 468.124 408.005 474.53 403.117 479.899C401.155 482.75 398.933 485.415 396.563 487.933C391.935 492.598 387.455 497.486 381.938 501.151C369.904 511.186 355.537 518.294 340.393 522.182C329.063 525.478 317.214 527.033 305.439 527.366C300.811 527.958 296.182 527.218 291.554 527.107C278.78 526.218 266.042 523.848 254.045 519.294C242.345 515.518 231.644 509.149 221.498 502.299C216.426 498.226 210.946 494.524 206.613 489.562C201.948 494.524 197.727 499.967 192.543 504.41C192.58 510.038 192.802 515.777 194.283 521.257C198.134 542.88 205.873 563.762 216.759 582.794C223.239 594.383 230.681 605.343 238.235 616.228C240.901 619.524 243.344 623.152 244.455 627.299C245.862 634.371 244.085 641.443 242.9 648.367C238.679 670.323 234.791 692.317 231.496 714.384C230.94 720.678 229.163 726.788 228.534 733.082C228.052 736.229 228.2 739.488 227.126 742.524C225.868 746.449 226.09 750.67 225.164 754.668C224.312 758.334 224.572 762.111 223.72 765.776C222.868 768.775 223.202 771.959 222.461 774.959C221.609 778.809 221.091 782.734 220.98 786.659C219.684 794.767 218.536 802.913 217.647 811.096C216.685 816.798 216.833 822.611 215.574 828.276C215.426 835.533 213.797 842.605 213.649 849.862C213.612 854.083 212.464 858.193 212.39 862.414C212.056 866.783 212.241 871.152 211.834 875.521C210.649 883.148 211.834 890.924 210.76 898.551C210.353 903.291 211.316 907.993 211.279 912.732C211.427 917.768 211.168 922.803 212.019 927.802C212.834 932.467 212.316 937.28 213.611 941.872C214.574 949.832 216.352 957.682 218.573 965.383C219.203 967.753 220.054 970.159 219.721 972.677C219.906 972.381 220.313 971.789 220.499 971.492C225.349 987.969 234.347 1003.11 246.121 1015.59C250.454 1019.85 254.823 1024.07 259.414 1028.03C265.191 1032.77 271.337 1037.03 277.595 1041.1C282.075 1043.84 286.74 1046.25 291.258 1048.95C298.774 1053.21 306.661 1056.76 314.474 1060.47C327.656 1066.02 340.985 1071.24 354.5 1075.94C361.832 1077.87 368.941 1080.46 376.198 1082.68C401.377 1089.98 426.778 1096.75 452.66 1101.31C467.211 1103.82 481.726 1106.75 496.463 1108.34C499.24 1108.71 501.943 1109.56 504.794 1109.6C508.756 1109.6 512.607 1110.75 516.569 1110.97C522.826 1111.34 529.01 1112.34 535.268 1112.64C543.858 1114.01 552.596 1113.75 561.187 1114.78C571.814 1115.49 582.403 1116.49 593.067 1116.49C599.029 1117.26 605.064 1116.93 611.1 1117.15C623.17 1117.23 635.204 1117.23 647.275 1117.19C650.497 1117.12 653.644 1118.34 656.051 1120.45C659.309 1123.04 660.975 1127 662.53 1130.7C664.493 1135.26 664.937 1140.29 666.122 1145.07C667.048 1148.44 666.937 1151.96 667.788 1155.36C668.677 1158.73 668.344 1162.29 669.195 1165.69C670.195 1169.84 669.825 1174.17 670.454 1178.39C671.824 1183.95 671.528 1189.8 670.158 1195.31C669.492 1203.57 665.048 1211.42 666.418 1219.86C667.233 1224.6 671.676 1227.38 675.601 1229.45C680.933 1232.56 687.154 1233.41 693.041 1234.86C698.595 1235.56 704.223 1236.12 709.74 1237.19C716.664 1237.6 723.551 1239.01 730.513 1238.86C744.213 1238.82 757.95 1239.04 771.65 1238.67C778.13 1237.89 784.684 1237.75 791.2 1237.12C795.458 1236.27 799.828 1236.3 804.16 1235.89C809.122 1234.6 814.305 1234.67 819.378 1234.3C822.785 1232.56 826.747 1233.49 830.301 1232.38C836.226 1230.75 842.446 1230.79 848.296 1228.9C859.553 1226.42 871.772 1224.19 880.399 1215.94C882.88 1212.61 886.064 1209.79 887.842 1205.98C890.471 1201.02 892.174 1195.57 893.544 1190.09C895.358 1185.61 895.839 1180.8 896.987 1176.14C898.654 1169.62 899.431 1162.95 900.727 1156.36C901.505 1149.18 903.356 1142.18 904.023 1135C904.43 1132.59 905.244 1130.3 905.318 1127.85C905.393 1124.3 906.577 1120.86 906.837 1117.3C907.17 1113.38 908.429 1109.64 908.688 1105.71C909.058 1101.38 910.095 1097.12 910.761 1092.86C911.169 1087.01 912.502 1081.24 914.575 1075.76C916.538 1072.13 918.982 1068.39 922.943 1066.76C924.758 1065.58 927.165 1065.09 929.127 1066.28C932.608 1067.65 934.496 1071.09 936.162 1074.2C937.162 1076.94 937.569 1079.87 938.384 1082.68C938.828 1087.53 939.124 1092.38 939.31 1097.27C940.457 1103.08 939.865 1109.08 939.865 1114.97C947.604 1116.63 954.935 1119.86 962.822 1120.82C979.595 1124.85 996.739 1127.56 1013.96 1128.59C1022.95 1129.45 1032.03 1128.96 1041.02 1129.11C1051.69 1129.3 1062.31 1128.19 1072.76 1126C1077.5 1124.74 1082.42 1123.85 1086.75 1121.45C1088.83 1120.45 1091.05 1119.74 1092.86 1118.3C1091.45 1115.26 1088.86 1113.12 1086.86 1110.52C1083.42 1106.12 1079.72 1101.93 1076.27 1097.49C1071.9 1092.53 1068.35 1086.98 1063.98 1082.01C1060.72 1077.39 1056.95 1073.17 1053.72 1068.5C1040.99 1052.32 1029.03 1035.58 1017.84 1018.33C1015.33 1013.92 1012.03 1010 1009.92 1005.37L1010.11 1005.41ZM532.676 565.392C530.75 569.909 527.307 574.093 522.493 575.537C518.753 576.499 514.755 577.055 510.941 576.129C504.72 573.908 500.203 568.872 495.352 564.651C488.872 559.319 482.652 553.58 475.469 549.174C472.358 547.027 469.211 544.509 465.286 544.176C462.546 544.028 459.658 543.805 457.14 545.064C446.032 550.137 438.367 560.097 431.184 569.613C429.073 572.464 426 574.5 422.742 575.796C417.151 577.314 410.597 576.536 406.153 572.538C401.636 569.279 400.155 563.096 401.377 557.838C402.117 553.506 404.858 549.915 407.449 546.508C415.929 536.104 425.297 526.218 436.22 518.332C441.885 514.407 448.291 511.408 455.104 510.038C462.361 509.001 469.951 509.519 476.839 512.111C484.355 514.962 491.057 519.516 497.648 524.034C504.572 528.847 511.126 534.142 517.383 539.77C521.716 543.953 526.529 547.73 530.195 552.581C532.676 556.246 533.824 560.985 532.639 565.318L532.676 565.392ZM934.866 791.361C929.905 801.321 924.869 811.281 919.13 820.834C905.096 843.049 890.508 864.969 873.697 885.185C870.476 888.665 867.588 892.442 864.514 896.071C860.812 900.032 857.072 903.994 853.591 908.178C844.631 917.286 835.744 926.469 826.191 934.985C816.712 944.13 806.196 952.091 795.866 960.274C789.904 965.198 783.276 969.197 776.76 973.307C765.355 980.823 753.025 987.525 739.436 989.894C735.882 990.598 732.216 990.413 728.661 991.19C722.144 991.857 715.591 990.746 709.222 989.487C702.668 988.302 696.596 985.451 690.634 982.563C674.342 973.936 663.197 958.311 655.31 942.057C653.163 936.207 650.46 930.468 649.46 924.284C647.164 916.583 646.757 908.511 645.683 900.625C645.165 891.146 645.461 881.63 645.683 872.152C646.572 865.45 646.498 858.6 648.09 852.01C648.201 847.937 649.682 844.123 650.274 840.124C656.199 808.319 669.418 778.513 682.821 749.263C683.969 746.708 685.636 744.449 686.524 741.82C693.115 727.713 701.076 714.273 708.778 700.759C711.629 696.204 713.998 691.391 717.072 686.985C721.589 679.506 726.032 671.952 731.549 665.177C733.993 662.511 736.622 659.771 740.029 658.327C744.879 656.438 750.655 657.142 754.951 660.104C758.913 662.881 761.245 667.805 760.949 672.619C760.097 681.949 755.025 690.058 750.544 698.056C746.545 704.35 743.176 711.052 739.399 717.494C725.292 741.191 713.147 765.998 701.779 791.102C698.78 797.433 696.559 804.061 694.226 810.652C693.374 812.355 692.56 814.132 692.078 815.983C690.819 820.686 688.672 825.092 687.783 829.905C684.562 838.162 683.673 847.122 680.97 855.527C678.119 869.412 677.008 883.667 677.749 897.848C678.267 900.921 677.823 904.105 678.785 907.067C679.674 910.289 679.452 913.769 680.97 916.768C684.006 928.69 690.523 940.02 700.372 947.537C705.778 951.869 712.295 954.757 719.071 956.09C728.18 958.719 737.881 956.719 746.508 953.313C751.877 951.424 756.617 948.24 761.541 945.426C773.538 937.836 784.461 928.653 794.718 918.879C802.123 912.14 809.603 905.438 816.379 898.033C820.896 893.775 824.858 888.999 829.19 884.555C838.447 873.929 847.963 863.414 856.517 852.158C864.477 841.272 872.623 830.498 879.807 819.057C886.879 808.245 893.47 797.137 900.505 786.326C903.393 781.549 906.281 776.773 909.614 772.293C910.724 771.33 909.614 770.404 909.317 769.368C909.947 769.442 910.539 769.627 911.132 769.849C914.279 765.443 917.686 760.667 922.981 758.778C926.054 758.112 929.719 757.816 932.385 759.852C936.94 762.444 940.161 767.368 940.124 772.7C940.791 779.402 937.31 785.437 934.718 791.361H934.866Z" fill="#241E22"/>
<path d="M78.5557 272.135C79.0507 272.137 79.8673 272.326 80.1816 272.469C80.3816 272.584 80.697 272.81 80.8164 272.914C81.0394 273.118 81.1793 273.311 81.2275 273.378C81.292 273.468 81.3382 273.543 81.3643 273.587C81.4495 273.729 81.5068 273.853 81.5098 273.859C81.5268 273.896 81.5402 273.926 81.5469 273.941C81.5605 273.972 81.5751 274.007 81.584 274.027C81.6055 274.077 81.632 274.139 81.6689 274.224C81.8146 274.556 82.1472 275.295 82.8086 276.614C84.2831 279.556 86.4698 285.284 88.4219 291.688C90.3665 298.067 92.1537 305.363 92.7656 311.515C93.7047 317.105 94.244 322.892 93.9346 328.732C93.8622 330.994 93.0379 332.873 92.2861 334.342C91.4316 336.011 90.8259 336.935 90.3936 338.14L90.3779 338.183L90.3613 338.225C89.8141 339.615 89.0256 340.904 88.4746 341.859C87.869 342.91 87.4589 343.701 87.2363 344.492L87.2305 344.514L87.2236 344.535C86.8955 345.639 86.5164 346.729 86.1641 347.745C85.8039 348.784 85.4692 349.752 85.1846 350.717C84.6165 352.643 84.3092 354.364 84.4502 356.057L84.4678 356.269L84.4551 356.48C84.1929 360.966 86.6528 365.566 90.4473 368.54C94.6613 371.392 100.768 371.282 105.188 368.462C106.451 367.5 107.431 366.165 108.386 364.447C108.874 363.569 109.326 362.647 109.817 361.645C110.261 360.74 110.739 359.766 111.263 358.812C112.689 354.843 114.963 351.095 116.587 347.881L116.602 347.853L116.617 347.824C121.238 339.146 129.376 332.281 138.811 329.338L138.863 329.321L138.917 329.307C142.783 328.256 146.821 328.44 150.354 328.746L151.835 328.882L152.116 328.908L152.389 328.987C160.322 331.289 166.552 336.926 171.652 342.171L171.828 342.35C173.608 344.213 174.02 346.451 174.065 348.275C174.088 349.202 174.018 350.113 173.953 350.88C173.883 351.701 173.821 352.332 173.806 352.939L173.803 353.075L173.787 353.211C173.566 355.101 173.549 356.999 173.481 359.172C173.416 361.27 173.301 363.568 172.817 365.88L172.271 368.493L169.612 368.254C167.5 368.064 165.268 367.716 163.356 367.479C161.355 367.232 159.487 367.071 157.646 367.152L157.526 367.157L157.406 367.153C156.224 367.111 154.998 367.286 153.563 367.566C152.232 367.827 150.523 368.226 148.884 368.429L148.821 368.437L148.758 368.441C146.872 368.594 145.011 369.14 143.011 369.908C142.01 370.293 141.011 370.718 139.956 371.168C138.982 371.584 137.956 372.019 136.914 372.427C133.362 374.372 130.074 376.678 127.354 379.485C125.001 382.149 123.068 385.278 121.514 388.607C118.619 396.358 117.286 404.636 118.606 412.597C119.097 414.256 119.432 415.998 119.746 417.423C120.051 418.803 120.36 420.008 120.802 421.106L121 421.57L121.046 421.673L121.085 421.779C123.304 427.881 126.875 433.461 131.479 437.995L131.509 438.025L131.539 438.057C138.668 445.493 149.145 449.603 159.456 449.022L159.642 449.012L159.827 449.024C161.96 449.169 164.119 448.949 166.448 448.586C168.639 448.245 171.313 447.712 173.775 447.411L175.926 447.148L176.852 449.107C178.299 452.171 179.884 455.095 181.722 457.844L182.093 458.392L182.126 458.44L182.158 458.491C182.378 458.84 182.966 459.702 183.331 460.603C183.732 461.594 184.067 463.089 183.381 464.705L183.202 465.126L182.906 465.475C176.786 472.683 169.896 479.677 161.646 484.944L161.548 485.008L161.445 485.062C157.518 487.159 152.756 490.187 147.341 491.209L146.814 491.301C143.159 491.896 140.122 492.117 136.832 492.836C133.728 493.514 131.068 494.534 128.907 496.367L128.834 496.429L128.758 496.486C127.355 497.53 126.633 498.499 126.473 499.365L126.172 500.99L124.908 501.495C123.769 506.028 124.932 510.997 128.228 513.919C130.814 515.943 133.467 517.429 136.219 517.802L136.354 517.82L136.486 517.851C143.196 519.389 150.174 517.591 157.475 515.318L161.098 514.191L161.358 517.977C162.338 532.159 165.423 546.188 170.122 559.664L170.132 559.693L170.142 559.722C172.346 566.479 175.451 572.649 178.364 579.58L179.126 581.289C187.045 598.926 196.409 615.889 207.61 631.592L208.168 632.374V632.466C209.175 633.967 210.234 635.441 211.339 637.021C212.6 638.823 213.887 640.722 215.033 642.736L215.598 643.729L215.36 644.845C213.685 652.71 211.65 660.932 209.964 668.642C207.554 682.036 204.538 694.834 202.734 708.051L202.712 708.217L202.671 708.38C201.754 712.013 201.182 715.714 200.784 719.544L200.777 719.604L200.769 719.665C197.513 742.076 193.336 763.799 190.595 786.026L190.275 788.619L187.663 788.658C177.804 788.807 167.968 788.437 158.159 787.438C151.098 787.525 144.059 785.986 137.773 785.113L137.709 785.104L137.645 785.092C120.543 781.955 103.419 777.415 87.4746 769.896L87.4043 769.863L87.335 769.826C82.0355 766.981 76.0207 764.169 70.627 760.641C64.4844 756.895 58.905 752.374 53.5342 747.996L53.5186 747.983L53.502 747.97C30.9558 729.062 15.5645 702.579 7.83105 674.53C6.31681 669.566 5.29316 664.513 4.37305 659.555C3.44402 654.548 2.63026 649.698 1.52051 644.896L1.45996 644.636L1.44727 644.369C1.32589 641.942 0.969683 639.537 0.602539 636.938C0.246934 634.422 -0.115385 631.737 -0.181641 628.979C-0.34332 626.523 -0.667589 624.141 -0.955078 621.511C-1.23671 618.934 -1.46974 616.214 -1.36914 613.417L-1.36816 613.394L-1.36621 613.369C-1.30778 612.244 -1.43 611.074 -1.61719 609.687C-1.79166 608.393 -2.03865 606.815 -2.10547 605.228C-3.44608 586.65 -2.88804 567.928 -2.81445 549.569C-2.83232 543.99 -2.4544 538.457 -2.08105 533.046C-1.70558 527.604 -1.33549 522.286 -1.33398 516.957L-1.33691 516.292C-1.33246 512.968 -1.02891 509.704 -0.716797 506.574C-0.379114 503.188 -0.0338064 499.979 0.0371094 496.753V496.747C0.114913 493.5 0.484169 490.3 0.823242 487.267C1.16749 484.187 1.48258 481.265 1.51758 478.345L1.52051 478.063L1.57617 477.788C2.01936 475.589 2.11978 473.313 2.18457 470.805C2.24585 468.432 2.27546 465.792 2.63086 463.165C2.73881 456.108 2.7733 449.07 2.63086 442.043C2.25814 439.152 2.17301 436.269 2.08789 433.567C1.99924 430.754 1.90936 428.128 1.54688 425.556L1.52051 425.371L1.51758 425.186C1.25836 409.189 1.07204 393.132 1.55566 377.062L1.55957 376.944L1.57227 376.829C1.6575 376.041 1.81371 375.195 1.90723 374.614C2.01231 373.962 2.0732 373.46 2.07324 373.005V372.966L2.07422 372.927C2.24387 366.367 2.82704 359.869 3.4668 353.458C4.10965 347.016 4.80506 340.695 5.22656 334.336L5.2373 334.173L5.26562 334.012C5.53733 332.474 5.59004 330.53 5.5752 328.257C5.56105 326.091 5.48352 323.573 5.56738 321.303C5.65075 319.047 5.89777 316.622 6.70117 314.575C7.55092 312.41 9.15102 310.398 11.9385 309.704C20.1163 307.667 26.9556 313.471 28.3223 320.281C29.4868 324.464 29.4506 328.893 29.1875 333.508C28.9146 338.295 28.4004 343.292 28.4004 349.233C28.4004 355.562 27.7181 358.626 27.3828 360.395C27.3163 360.745 27.2846 360.958 27.2695 361.077C27.3351 361.167 27.4483 361.314 27.6406 361.53C29.6167 363.748 31.4933 364.632 34.1348 365.595C37.3037 365.789 40.3077 365.583 43.8701 365.564C48.0021 364.215 51.3519 362.134 52.4453 359.021C53.3682 353.854 54.5867 349.76 54.6895 345.204C54.7963 338.684 54.564 331.438 56.1709 324.423L56.1729 324.415C59.1834 311.433 65.6834 294.444 70.2539 286.756C72.4087 283.131 73.5221 281.051 74.251 279.664C74.8995 278.43 75.3502 277.53 76.0215 276.553C76.0101 276.39 75.973 276.208 75.9365 276.071C75.925 276.028 75.9222 276.02 75.9062 275.963C75.9031 275.951 75.8972 275.929 75.8906 275.904C75.8866 275.889 75.87 275.826 75.8535 275.748C75.8464 275.714 75.8266 275.62 75.8115 275.498C75.8041 275.439 75.7914 275.322 75.7891 275.174C75.7877 275.084 75.7804 274.708 75.918 274.255C76.0236 273.907 76.6391 272.285 78.5557 272.135Z" fill="#241E22" stroke="#241E22" stroke-width="6"/>
<path d="M475.135 1137.26C469.84 1135.96 464.397 1135.44 459.028 1134.41C443.921 1131.26 428.592 1129.07 413.707 1124.85C390.75 1119.67 368.274 1112.45 346.095 1104.6C333.543 1099.38 320.731 1094.75 308.697 1088.42C308.808 1093.75 309.919 1099.01 310.03 1104.34C310.104 1108.04 311.215 1111.64 311.252 1115.38C311.289 1119.63 312.548 1123.74 312.696 1127.96C312.844 1132.33 313.622 1136.67 314.066 1141.03C314.585 1144.81 314.511 1148.62 315.362 1152.36C315.992 1155.47 315.658 1158.7 316.288 1161.81C317.473 1165.77 317.176 1169.99 317.843 1174.02C318.806 1179.69 318.88 1185.47 319.694 1191.17C320.361 1197.5 318.324 1203.68 317.621 1209.9C317.102 1213.61 319.139 1216.94 321.657 1219.42C326.174 1224.19 332.802 1225.82 338.874 1227.79C348.761 1230.3 358.758 1232.64 368.941 1233.41C374.939 1234.82 381.16 1234.23 387.232 1234.97C399.118 1235.78 411.004 1234.71 422.889 1234.71C429.369 1234.45 435.923 1234.6 442.292 1233.34C446.735 1233.01 451.252 1233.08 455.622 1232.12C458.88 1231.38 462.287 1231.9 465.508 1230.97C468.655 1230.16 471.914 1229.82 475.135 1229.23C485.132 1227.93 494.945 1225.56 504.609 1222.75C511.459 1220.27 519.123 1217.46 522.937 1210.75C526.677 1204.94 525.64 1197.68 526.196 1191.13C527.306 1183.98 526.714 1176.73 527.01 1169.58C527.714 1161.18 528.084 1152.73 528.195 1144.29C526.899 1143.96 525.603 1143.66 524.307 1143.55C507.83 1142.03 491.464 1139.29 475.061 1137.26H475.135Z" fill="#241E22"/>
<path d="M1097.05 351.937C1090.86 339.607 1083.79 327.759 1076.68 315.948C1070.39 304.359 1062.42 293.769 1054.83 282.995C1046.95 271.739 1038.73 260.705 1029.91 250.19C1026.21 245.598 1022.55 240.933 1018.4 236.749C1014.14 231.529 1009.18 226.974 1004.7 221.939C991.443 208.869 977.373 196.576 961.785 186.394C956.675 183.58 951.972 179.951 946.566 177.656C947.196 179.914 948.566 181.803 949.751 183.802C952.195 187.727 954.157 191.911 956.416 195.947C960.6 204.055 965.08 212.053 968.487 220.532C971.486 226.382 973.967 232.454 976.262 238.6C978.41 243.303 980.298 248.116 982.076 252.967C987.259 267.222 992.591 281.477 996.812 296.102C997.849 299.027 998.812 301.952 999.478 305.025C1001.63 311.579 1003.29 318.243 1004.88 324.945C1007.48 332.461 1008.37 340.422 1010.44 348.086C1011.59 353.899 1012.44 359.824 1014.03 365.526C1016.29 377.707 1018.66 389.889 1020.58 402.144C1023.55 419.139 1025.55 436.282 1028.03 453.314C1029.43 462.274 1029.66 471.42 1031.14 480.38C1032.25 489.118 1032.51 497.967 1033.54 506.706C1040.39 502.114 1047.1 497.375 1053.72 492.488C1075.87 474.974 1097.71 456.906 1116.82 436.06C1120.37 432.209 1124.22 428.581 1127.07 424.212C1126.45 421.213 1124.96 418.436 1124.04 415.511C1116.56 393.739 1107.49 372.523 1097.12 351.974L1097.05 351.937Z" fill="#241E22"/>
</svg>
