<svg width="1134" height="1239" viewBox="0 0 1134 1239" fill="none" xmlns="http://www.w3.org/2000/svg">
<g clip-path="url(#clip0_59_7)">
<path d="M579.787 0H610.669C628.421 0.8925 646.207 2.29031 663.71 5.47969C669.822 6.52313 675.888 7.82906 681.954 9.12844C689.877 11.2284 697.969 12.705 705.773 15.2513C712.344 16.6425 718.601 19.1559 724.988 21.1903C737.022 25.7709 749.142 30.2006 760.69 35.9625C768.179 39.4669 775.538 43.2469 782.745 47.3156C793.041 52.6181 802.799 58.9444 811.968 66.0188C821.575 73.1259 830.199 81.4341 838.869 89.6306C853.244 104.363 867.619 119.129 880.833 134.938C884.355 139.499 887.877 144.067 891.503 148.542C892.986 150.314 894.186 152.408 896.146 153.72C898.553 154.829 901.235 155.118 903.741 155.984C915.283 160.079 926.648 164.719 937.41 170.599C954.434 179.465 970.528 190.089 985.401 202.23C991.186 207.139 996.832 212.212 1002.39 217.376C1006.49 220.69 1009.88 224.746 1013.56 228.493C1017.99 233.034 1022.12 237.858 1026.58 242.379C1034.28 251.567 1042.02 260.748 1048.88 270.592C1059.54 285.731 1070.16 300.976 1078.93 317.323C1086.02 329.109 1092.04 341.506 1098.26 353.771C1104.51 365.997 1110.14 378.525 1115.22 391.276C1119.85 403.417 1124.93 415.38 1129.44 427.573C1131.36 433.755 1134.41 439.957 1133.7 446.604C1132.63 451.822 1130.19 456.829 1126.44 460.648C1113.79 475.289 1100.05 488.959 1085.52 501.723C1076.26 510.707 1066.12 518.7 1056.16 526.864C1050.08 531.484 1044.16 536.314 1037.96 540.763C1034.16 543.263 1030.48 545.941 1026.82 548.638C1021.84 551.69 1017.12 555.148 1012.09 558.128C1012.57 571.6 1014.03 585.008 1014.18 598.5C1015.14 606.552 1013.97 614.729 1015.31 622.749C1016 637.626 1015.49 652.555 1016.65 667.413C1016.83 676.384 1016.81 685.361 1016.88 694.339C1017.31 699.792 1017.14 705.265 1017.35 710.739C1018.56 728.634 1018.07 746.603 1018.16 764.538C1018.24 774.815 1017.91 785.105 1018.41 795.375C1017.84 815.935 1018.33 836.522 1017.83 857.089C1017.04 864.058 1017.46 871.087 1017.3 878.089C1017.03 892.953 1017.41 907.83 1016.83 922.688C1016.92 935.393 1016.43 948.091 1016.46 960.796C1016.29 963.08 1017.82 964.95 1018.72 966.939C1021.9 972.444 1025.57 977.655 1028.66 983.227C1033.9 991.272 1039.23 999.259 1044.72 1007.14C1054.54 1022.26 1065.55 1036.56 1076.1 1051.17C1080.07 1057.02 1084.25 1062.74 1088.38 1068.49C1092.84 1075.02 1097.69 1081.36 1101.2 1088.48C1105.89 1098.2 1104.51 1110.93 1096.78 1118.72C1094.42 1121.28 1091.56 1123.28 1088.43 1124.79C1073.81 1133.12 1057.21 1137.43 1040.55 1139.21C1028.8 1140.38 1017 1141.05 1005.18 1140.79C988.359 1140.13 971.525 1138.73 955.051 1135.17C949.155 1134.25 943.548 1132.2 937.79 1130.75C931.002 1128.4 924.051 1126.35 917.781 1122.78C916.863 1127.91 916.037 1133.06 915.493 1138.24C914.279 1143.22 913.958 1148.36 912.824 1153.36C910.699 1163.2 909.059 1173.14 906.515 1182.89C905.092 1189.88 902.868 1196.86 898.77 1202.77C896.553 1205.56 894.435 1208.45 891.962 1211.03C882.368 1220.53 869.422 1225.21 857.054 1229.85C852.096 1230.98 847.342 1232.98 842.272 1233.57C841.125 1233.74 840.062 1233.21 839.039 1232.84C839.78 1233.21 840.528 1233.61 841.282 1234.03C838.39 1234.85 835.347 1234.79 832.475 1235.64C829.753 1236.4 826.88 1236.28 824.165 1237.05C821.805 1237.72 819.332 1237.67 816.919 1237.83C813.515 1237.99 810.19 1238.74 806.813 1239H701.95C689.181 1237.84 676.538 1235.33 664.261 1231.62C656.64 1229.59 649.282 1226.31 643.085 1221.39C637.996 1216.74 632.697 1211.65 630.828 1204.78C627.352 1197.47 628.192 1189.11 629.536 1181.39C630.598 1177.06 631.687 1172.37 635.025 1169.18C635.773 1168.25 637.084 1167.44 636.835 1166.09C636.632 1163.03 636.166 1160 636.206 1156.94C636.238 1153.68 635.137 1150.58 634.71 1147.39C634.114 1143.76 634.232 1140.02 633.091 1136.5C632.356 1132.84 631.989 1129.07 630.415 1125.63C626.178 1124.87 621.844 1125.32 617.587 1124.81C608.439 1123.78 599.238 1123.83 590.044 1123.61C585.007 1123.09 579.925 1123.44 574.914 1122.71C571.13 1122.47 567.333 1122.59 563.549 1122.46C563.47 1127.18 563.654 1131.91 562.972 1136.6C562.788 1144.62 562.493 1152.65 562.251 1160.68C562.126 1164.04 561.247 1167.34 561.352 1170.72C561.496 1178.54 559.411 1186.26 556.23 1193.35C551.646 1203.25 543.429 1211.13 533.959 1216.37C531.264 1217.89 528.726 1219.71 525.814 1220.8C512.895 1225.93 499.412 1229.56 485.725 1231.91C477.429 1232.96 469.218 1234.85 460.824 1234.96C456.666 1235.12 452.587 1236.09 448.429 1236.18C443.163 1236.34 437.871 1236.42 432.67 1237.36C424.368 1237.86 416.039 1237.52 407.73 1237.69C399.756 1237.98 391.794 1237.21 383.905 1236.2C380.632 1236.17 377.406 1235.72 374.238 1234.94C365.214 1233.91 356.427 1231.59 347.6 1229.54C336.503 1226.02 325.374 1221.76 316.095 1214.57C312.908 1212.26 310.802 1208.9 308.278 1205.97C303.595 1199.27 300.815 1191.27 300.277 1183.12C300.526 1177.29 301.68 1171.46 303.844 1166.03C304.874 1163.01 303.798 1159.86 303.425 1156.83C301.654 1147.07 300.493 1137.22 299.319 1127.39C298.244 1121.83 298.486 1116.08 297.044 1110.6C295.863 1105.87 296.447 1100.93 295.398 1096.19C294.807 1093.4 294.716 1090.54 294.473 1087.71C293.988 1081.01 293.089 1074.36 292.263 1067.7C291.896 1065.29 292.355 1062.61 291.082 1060.45C285.547 1057 279.888 1053.75 274.432 1050.18C268.942 1046 263.066 1042.34 257.879 1037.77C254.423 1034.47 250.567 1031.6 247.471 1027.94C243.104 1022.89 238.225 1018.28 234.395 1012.78C230.729 1008.23 227.653 1003.26 224.597 998.294C219.915 989.363 214.681 980.595 211.645 970.909C204.608 950.572 202.208 928.988 201.434 907.587C201.086 889.206 201.067 870.785 202.66 852.462C202.759 849.732 202.759 846.996 203.198 844.299C203.985 839.173 203.972 833.969 204.759 828.85C205.356 824.795 205.389 820.7 205.664 816.624C182.376 815.725 158.905 814.098 136.319 808.001C124.58 804.779 112.92 801.052 102.021 795.572C88.3276 789.174 75.3165 781.174 63.7809 771.376C55.1768 763.823 47.0251 755.678 40.113 746.53C32.1777 735.223 24.7409 723.417 19.6912 710.502C15.6252 700.672 12.1626 690.578 9.9132 680.17C8.39174 672.236 6.56861 664.355 5.36193 656.368C3.25024 645.291 2.45672 634.016 1.9583 622.768C1.07953 617.111 1.6304 611.376 1.27626 605.693C0.672924 602.018 0.712277 598.29 0.666371 594.582C0.587674 581.031 0.567992 567.466 0.863104 553.914C1.82058 547.601 0.95491 541.196 1.67629 534.864C2.31242 529.764 1.65663 524.587 2.61411 519.52C2.94201 515.005 3.45352 510.503 3.46008 505.975C3.43385 501.106 4.67989 496.342 4.64054 491.479C4.58807 488.421 5.43405 485.461 5.61768 482.423C6.18167 478.039 5.66359 473.576 6.48334 469.212C7.30966 463.516 5.74228 457.879 5.88656 452.183C5.36848 446.44 5.88001 440.613 4.78482 434.93C4.06343 423.17 4.17491 411.37 4.92253 399.623C6.09642 392.831 5.37504 385.842 6.81125 379.096C7.35556 373.866 6.98831 368.557 8.28024 363.412C9.37543 346.461 11.9921 329.451 17.8747 313.438C21.134 305.038 26.4853 296.894 34.814 292.852C41.5623 289.4 49.6942 290.693 56.2457 293.967C60.4953 295.778 63.7612 299.138 67.0599 302.262C72.8638 291.683 77.7167 280.534 84.6617 270.611C89.0556 264.823 94.8135 259.429 102.172 257.985C108.71 256.653 115.852 257.112 121.747 260.459C130.424 265.171 135.486 274.096 139.723 282.66C144.182 292.733 147.442 303.345 149.199 314.245C151.468 313.747 153.685 313.064 155.895 312.342C160.348 310.833 165.03 310.078 169.713 309.652C175.333 309.442 180.783 311.194 186.016 313.058C192.436 315.774 198.089 319.968 203.297 324.542C204.674 320.867 205.093 316.916 206.543 313.261C207.743 308.949 209.258 304.736 210.799 300.536C211.271 301.383 211.743 302.249 212.202 303.115C211.402 301.553 210.642 299.762 211.488 298.043C217.049 283.283 221.961 268.249 228.624 253.936C233.057 242.76 238.343 231.958 243.596 221.156C252.921 201.882 263.637 183.304 275.14 165.257C278.557 159.817 282.465 154.704 286.026 149.369C286.42 149.73 286.82 150.098 287.213 150.478C287.239 149.415 286.99 148.221 287.639 147.295C295.529 137.012 303.32 126.558 312.58 117.436C315.564 114.076 318.626 110.788 321.872 107.678C331.736 98.0306 341.92 88.6988 352.78 80.1806C365.129 70.7241 377.786 61.6153 391.125 53.6025C409.986 42.5184 429.739 32.9503 450.246 25.3378C468.694 18.5128 487.66 12.8953 507.052 9.54188C515.413 7.75688 523.84 6.25406 532.333 5.25C538.242 4.725 544.072 3.49781 549.987 2.99906C556.139 2.61844 562.224 1.5225 568.396 1.35188C572.199 0.97125 576.127 1.27969 579.787 0ZM564.467 40.1559C555.397 40.2741 546.406 41.5472 537.481 43.0303C530.949 44.0147 524.371 44.6709 517.905 46.0556C511.314 47.0006 504.907 48.8316 498.395 50.1638C495.28 51.2991 491.889 51.3975 488.84 52.7166C473.153 56.9363 457.998 62.9278 443.235 69.6413C405.159 87.0056 369.726 110.657 340.3 140.529C334.988 146.167 329.926 152.04 324.797 157.841C319.341 164.253 314.449 171.117 309.347 177.811C301.3 189.223 293.876 201.068 286.931 213.176C283.783 218.046 281.495 223.394 278.616 228.421C274.917 235.495 271.448 242.675 267.815 249.788C261.001 264.948 253.577 279.878 248.153 295.614C245.307 301.593 243.504 307.985 241.097 314.134C238.566 321.897 235.569 329.556 234.178 337.641C245.465 337.752 256.758 337.595 268.044 337.595C282.905 337.45 297.778 337.687 312.639 337.201C352.859 337.28 393.086 337.05 433.307 337.063C439.615 336.833 445.019 341.263 447.485 346.835C462.431 346.671 477.377 346.664 492.322 347.091C495.969 346.999 499.667 347.55 503.294 347.071C505.406 345.01 506.914 342.293 509.524 340.771C513.334 338.218 518.056 337.897 522.502 338.1C549.167 337.916 575.832 337.608 602.504 337.483C607.101 337.641 611.672 337.004 616.276 337.162C663.5 337.089 710.731 337.155 757.962 336.814C763.163 336.118 768.429 336.453 773.669 336.328C794.221 336.308 814.761 335.797 835.314 335.895C842.764 335.895 850.221 335.829 857.67 336.243C863.041 336.656 868.072 339.833 870.754 344.498C873.534 348.285 873.423 353.174 873.075 357.637C872.511 362.657 869.396 367.119 865.271 369.915C863.068 371.378 860.451 371.917 858.051 372.914C854.287 373.866 850.358 373.616 846.528 373.99C837.99 374.798 829.438 375.296 820.886 375.861C813.692 376.93 806.341 376.399 799.179 377.659C787.631 378.518 776.062 379.162 764.527 380.172C760.861 380.277 757.149 380.113 753.535 380.855C753.326 388.218 753.85 395.581 754.145 402.938C753.929 406.58 753.621 410.228 753.417 413.877C752.762 419.862 752.788 425.972 751.188 431.813C748.42 445.791 744.669 459.848 737.54 472.297C730.891 484.588 722.26 495.81 711.912 505.201C702.848 512.426 693.267 519.054 682.722 523.95C679.016 526.234 674.787 527.33 670.845 529.082C664.595 530.736 658.483 532.973 652.115 534.115C642.521 536.255 632.638 536.767 622.827 537.101C614.046 536.845 605.278 535.854 596.661 534.168C591.572 533.223 586.758 531.313 581.754 530.053C573.307 527.067 565.536 522.519 558.053 517.657C545.285 508.974 534.668 497.464 525.978 484.765C518.863 474.718 513.256 463.7 508.403 452.419C504.153 440.633 500.848 428.479 499.221 416.036C497.28 407.282 498.185 398.258 498.106 389.373C488.302 388.992 478.518 388.487 468.746 387.66C462.319 387.798 455.945 387.043 449.538 386.886C449.125 392.825 449.433 398.829 448.561 404.736C447.557 408.227 447.446 411.869 446.993 415.452C446.685 418.674 445.472 421.719 445.144 424.942C442.298 435.415 439.97 446.198 435.143 456.008C432.329 462.551 428.965 468.832 425.568 475.086C421.922 480.828 418.643 486.878 414.039 491.932C412.183 494.629 410.091 497.149 407.842 499.524C403.474 503.921 399.251 508.554 394.044 512C382.679 521.456 369.11 528.196 354.82 531.871C344.124 534.995 332.955 536.438 321.82 536.76C317.452 537.305 313.085 536.603 308.717 536.511C296.657 535.671 284.636 533.439 273.31 529.141C262.253 525.571 252.174 519.56 242.586 513.096C237.785 509.237 232.624 505.739 228.532 501.086C224.131 505.765 220.157 510.897 215.265 515.097C215.311 520.426 215.501 525.814 216.911 530.985C220.538 551.394 227.837 571.102 238.113 589.083C244.219 600.009 251.269 610.365 258.404 620.642C260.935 623.753 263.23 627.178 264.267 631.103C265.611 637.77 263.899 644.444 262.811 651.007C258.83 671.718 255.171 692.495 252.036 713.344C251.498 719.289 249.832 725.064 249.229 731.004C248.783 733.963 248.914 737.034 247.917 739.902C246.717 743.623 246.927 747.593 246.055 751.38C245.268 754.825 245.511 758.409 244.691 761.854C243.904 764.689 244.192 767.681 243.491 770.536C242.697 774.172 242.199 777.866 242.1 781.594C240.861 789.252 239.799 796.95 238.953 804.681C238.028 810.062 238.172 815.568 237.005 820.916C236.861 827.754 235.333 834.448 235.175 841.286C235.136 845.276 234.073 849.155 233.988 853.145C233.68 857.259 233.85 861.4 233.477 865.515C232.362 872.708 233.45 880.044 232.447 887.25C232.08 891.726 232.985 896.169 232.932 900.651C233.057 905.395 232.834 910.173 233.641 914.878C234.421 919.275 233.909 923.823 235.136 928.161C236.041 935.681 237.72 943.084 239.825 950.362C240.415 952.606 241.228 954.87 240.927 957.239C241.11 956.957 241.477 956.399 241.661 956.123C246.225 971.677 254.725 985.97 265.834 997.749C269.913 1001.77 274.038 1005.74 278.386 1009.48C283.849 1013.95 289.653 1017.98 295.562 1021.83C299.798 1024.41 304.198 1026.7 308.468 1029.23C315.564 1033.26 323.02 1036.59 330.378 1040.1C342.825 1045.33 355.41 1050.26 368.159 1054.71C375.078 1056.54 381.8 1058.96 388.633 1061.08C412.419 1067.98 436.395 1074.38 460.811 1078.67C474.563 1081.06 488.263 1083.8 502.146 1085.32C504.763 1085.67 507.327 1086.49 509.996 1086.5C513.747 1086.47 517.381 1087.6 521.119 1087.81C527.021 1088.15 532.858 1089.1 538.766 1089.4C546.866 1090.71 555.109 1090.46 563.247 1091.44C573.275 1092.12 583.282 1093.05 593.355 1093.06C598.995 1093.8 604.694 1093.49 610.374 1093.69C621.752 1093.75 633.13 1093.76 644.508 1093.73C647.538 1093.65 650.528 1094.83 652.804 1096.82C655.88 1099.26 657.441 1102.99 658.936 1106.5C660.792 1110.81 661.211 1115.55 662.326 1120.07C663.185 1123.24 663.1 1126.58 663.913 1129.77C664.759 1132.96 664.438 1136.31 665.258 1139.51C666.202 1143.44 665.848 1147.52 666.438 1151.51C667.73 1156.74 667.448 1162.28 666.169 1167.5C665.553 1175.31 661.336 1182.71 662.648 1190.67C663.421 1195.16 667.606 1197.77 671.311 1199.74C676.347 1202.66 682.21 1203.49 687.791 1204.84C693.051 1205.52 698.343 1206.04 703.563 1207.04C710.108 1207.42 716.587 1208.74 723.172 1208.62C736.117 1208.58 749.069 1208.81 762.015 1208.45C768.14 1207.7 774.318 1207.59 780.456 1206.97C784.489 1206.16 788.608 1206.21 792.687 1205.81C797.376 1204.59 802.255 1204.66 807.042 1204.3C810.256 1202.66 813.987 1203.54 817.352 1202.48C822.933 1200.93 828.828 1200.97 834.357 1199.21C844.968 1196.87 856.503 1194.78 864.648 1186.96C866.996 1183.83 870 1181.15 871.659 1177.55C874.157 1172.85 875.758 1167.72 877.036 1162.57C878.735 1158.35 879.207 1153.78 880.283 1149.39C881.856 1143.24 882.578 1136.93 883.804 1130.71C884.545 1123.93 886.27 1117.31 886.913 1110.53C887.287 1108.27 888.074 1106.08 888.146 1103.78C888.231 1100.41 889.32 1097.17 889.582 1093.82C889.884 1090.12 891.09 1086.57 891.339 1082.87C891.694 1078.77 892.677 1074.77 893.307 1070.73C893.707 1065.21 894.959 1059.74 896.92 1054.57C898.77 1051.16 901.078 1047.6 904.836 1046.08C906.548 1044.96 908.81 1044.51 910.666 1045.62C913.945 1046.91 915.722 1050.17 917.316 1053.11C918.247 1055.7 918.627 1058.47 919.414 1061.11C919.847 1065.68 920.123 1070.27 920.3 1074.87C921.395 1080.36 920.811 1086.02 920.818 1091.59C928.11 1093.17 935.036 1096.19 942.479 1097.13C958.323 1100.93 974.482 1103.5 990.753 1104.48C999.252 1105.29 1007.8 1104.82 1016.32 1104.97C1026.37 1105.13 1036.43 1104.1 1046.27 1102.05C1050.73 1100.85 1055.4 1100.02 1059.48 1097.74C1061.43 1096.81 1063.52 1096.13 1065.23 1094.77C1063.89 1091.92 1061.46 1089.86 1059.57 1087.42C1056.31 1083.26 1052.8 1079.3 1049.58 1075.12C1045.46 1070.44 1042.09 1065.18 1037.97 1060.5C1034.89 1056.12 1031.32 1052.15 1028.3 1047.74C1016.29 1032.48 1004.98 1016.68 994.419 1000.38C992.051 996.22 988.923 992.519 986.942 988.149C984.614 984.106 983.008 979.67 981.742 975.22C981.512 965.58 981.886 955.94 981.893 946.299C981.762 944.075 982.581 941.955 982.529 939.75C982.634 930.339 982.706 920.935 982.719 911.531C982.824 906.058 982.463 900.572 983.021 895.119C983.034 892.487 982.345 889.869 982.883 887.25C983.5 883.956 982.411 880.688 982.719 877.4C983.421 871.959 982.916 866.46 983.086 861C983.158 813.744 983.08 766.494 983.073 719.243C982.122 711.185 983.054 703.028 981.998 694.982C981.814 679.862 981.414 664.762 981.08 649.648C980.371 645.284 980.607 640.848 980.443 636.451C980.463 632.31 979.965 628.195 980.004 624.061C980.057 620.767 979.256 617.538 979.375 614.257C979.132 598.697 977.827 583.19 977.046 567.656C976.273 560.451 976.6 553.147 975.4 545.987C975.302 541.597 974.935 537.239 974.535 532.868C973.656 526.988 973.846 520.997 972.915 515.117C972.672 508.968 971.505 502.917 971.085 496.788C969.629 482.298 967.629 467.887 965.767 453.449C965.616 448.908 964.107 444.544 964.009 440.003C963.937 436.958 962.855 434.09 962.553 431.084C961.491 423.872 960.232 416.679 958.848 409.526C958.697 406.048 957.399 402.793 956.992 399.354C955.825 392.963 954.401 386.617 953.09 380.251C951.3 371.759 948.703 363.477 946.689 355.031C945.142 349.23 943.843 343.357 941.849 337.693C941.069 333.25 939.246 329.136 938.046 324.818C937.429 322.271 935.803 319.83 936.708 317.139C936.354 317.546 936.026 317.966 935.731 318.406C929.081 297.084 920.726 276.353 912.056 255.787C909.446 249.782 906.311 244.027 903.649 238.048C902.127 234.964 900.317 232.043 898.98 228.88C893.3 218.203 887.221 207.723 880.217 197.859C872.983 185.903 864.268 174.969 855.979 163.754C848.338 154.567 841.17 144.959 832.73 136.48C829.176 132.385 825.346 128.553 821.424 124.812C813.397 116.379 804.262 109.134 795.323 101.706C789.414 97.0331 783.138 92.8659 776.849 88.725C777.603 88.1475 778.397 87.6291 779.23 87.1434C777.938 87.4519 776.705 87.9572 775.465 88.3772C775.584 88.0359 775.82 87.3534 775.938 87.0122C773.662 87.0844 771.786 85.6144 769.898 84.5775C764.507 81.1256 758.939 77.9691 753.253 75.0422C740.865 68.9588 728.425 62.9081 715.381 58.3341C711.8 56.8969 707.99 56.2013 704.416 54.7772C683.863 48.1425 662.556 44.0147 641.183 41.1534C637.084 40.0903 632.822 40.5431 628.67 39.9459C625.523 39.8278 622.407 39.4997 619.299 39.1059C608.039 38.8828 596.779 38.9484 585.519 39.0797C578.475 39.0009 571.478 39.585 564.467 40.1559ZM926.891 206.699C927.481 208.819 928.779 210.617 929.894 212.487C932.196 216.195 934.052 220.159 936.196 223.958C940.138 231.617 944.361 239.157 947.575 247.163C950.401 252.669 952.742 258.425 954.92 264.219C956.959 268.649 958.717 273.21 960.396 277.791C965.301 291.263 970.324 304.723 974.312 318.504C975.302 321.254 976.214 324.043 976.83 326.911C978.85 333.086 980.443 339.399 981.926 345.732C984.372 352.839 985.224 360.347 987.185 367.585C988.274 373.072 989.061 378.65 990.589 384.044C992.727 395.548 994.956 407.046 996.766 418.615C999.56 434.654 1001.46 450.837 1003.78 466.935C1005.1 475.407 1005.33 484.011 1006.71 492.476C1007.77 500.732 1008.02 509.066 1008.98 517.328C1015.44 513.01 1021.79 508.522 1028.03 503.895C1048.92 487.371 1069.55 470.295 1087.6 450.627C1090.94 447.005 1094.57 443.579 1097.29 439.432C1096.71 436.616 1095.29 433.965 1094.4 431.209C1087.35 410.648 1078.79 390.62 1068.98 371.241C1063.17 359.592 1056.46 348.423 1049.75 337.273C1043.79 326.32 1036.27 316.319 1029.11 306.16C1021.65 295.549 1013.92 285.114 1005.57 275.185C1002.06 270.854 998.609 266.457 994.694 262.48C990.661 257.565 985.998 253.24 981.768 248.509C969.269 236.184 955.975 224.569 941.259 214.942C936.426 212.271 931.993 208.858 926.891 206.699ZM107.608 301.429C105.7 304.612 103.877 307.847 102.126 311.122C95.6267 321.746 91.9542 333.808 89.1474 345.857C87.7243 352.111 87.9341 358.536 87.8358 364.908C87.7177 369.554 86.4258 374.043 85.6323 378.597C84.1567 383.138 79.5005 385.56 75.2378 386.879C71.8276 386.892 68.3978 387.122 64.9941 386.886C62.1742 385.855 59.4591 384.307 57.3409 382.148C54.6193 378.86 54.6193 374.404 53.8192 370.414C52.1273 363.379 51.5829 356.101 49.5762 349.138C48.6122 344.013 47.2874 338.94 45.3004 334.11C43.3985 340.902 42.3361 347.872 41.1032 354.802C40.2835 366.916 38.4603 378.958 38.1455 391.112C38.139 392.438 37.8045 393.724 37.6668 395.036C37.2274 410.13 37.4045 425.23 37.6209 440.324C38.3554 445.548 37.975 450.857 38.6702 456.094C38.8145 462.873 38.7685 469.658 38.6505 476.438C37.9881 481.136 38.539 485.927 37.6012 490.593C37.5291 496.42 36.3421 502.149 36.1978 507.983C36.0601 514.329 34.8272 520.603 34.919 526.962C34.9321 537.265 33.4893 547.49 33.5352 557.786C33.45 575.243 32.9581 592.732 34.2107 610.162C34.3091 612.839 35.0633 615.458 34.9255 618.155C34.7616 622.998 35.7256 627.762 36.0273 632.579C36.1191 637.462 37.3061 642.239 37.5553 647.115C39.6867 656.342 40.7032 665.844 43.4641 674.92C50.632 700.954 64.8761 725.452 85.6847 742.895C90.7803 747.069 95.9284 751.209 101.568 754.635C106.546 757.877 111.943 760.39 117.17 763.206C131.939 770.155 147.816 774.408 163.843 777.315C170.152 778.181 176.402 779.592 182.816 779.494C192.01 780.452 201.25 780.787 210.497 780.662C213.081 759.682 217.062 738.892 220.111 717.957C220.485 714.263 221.062 710.601 221.967 707.004C223.692 694.444 226.584 682.087 228.807 669.631C230.466 662.124 232.309 654.655 233.903 647.135C231.87 643.578 229.306 640.323 227.056 636.891C216.013 621.416 206.844 604.662 199.172 587.285C196.529 580.952 193.453 574.796 191.315 568.267C186.797 555.345 183.832 541.826 182.888 528.163C176.054 530.283 168.775 532.265 161.607 530.618C158.249 530.171 155.252 528.367 152.629 526.319C148.17 522.414 147.061 515.773 148.996 510.32C149.33 510.162 149.671 510.024 150.019 509.887C150.386 507.983 151.777 506.52 153.265 505.398C158.322 501.086 165.312 500.994 171.543 499.977C176.245 499.196 180.337 496.578 184.482 494.379C191.931 489.622 198.201 483.249 203.92 476.562C204.425 475.394 203.572 474.239 202.962 473.307C200.982 470.407 199.276 467.329 197.788 464.153C193.223 464.71 188.725 465.997 184.095 465.701C173.536 466.305 162.86 462.098 155.528 454.479C150.872 449.886 147.271 444.268 145.035 438.126C143.756 435.258 143.507 432.088 142.576 429.122C141.192 420.906 142.549 412.473 145.468 404.742C147.042 401.343 149.042 398.108 151.521 395.299C154.387 392.339 157.803 389.944 161.424 387.988C165.398 386.433 169.267 384.32 173.595 383.972C176.441 383.618 179.202 382.646 182.101 382.758C186.036 382.594 189.892 383.467 193.787 383.814C194.607 379.962 194.201 375.985 194.653 372.094C194.725 369.377 195.617 366.168 193.453 364.009C188.652 359.08 183.203 354.237 176.474 352.262C172.775 351.921 168.893 351.599 165.273 352.59C157.082 355.143 149.999 361.102 145.986 368.675C144.281 372.048 142.274 375.283 141.035 378.873C139.028 382.423 137.697 386.63 134.313 389.163C129.23 392.438 122.154 392.674 117.104 389.215C112.927 385.96 109.982 380.763 110.277 375.368C109.943 371.182 111.845 367.343 112.999 363.431C113.629 361.18 115.189 359.382 116.029 357.23C117.019 354.506 119.144 352.183 119.196 349.158C119.472 343.895 118.98 338.605 118.108 333.414C117.032 322.284 113.642 311.509 108.992 301.37C108.651 301.383 107.956 301.416 107.608 301.429ZM178.724 416.647C177.346 417.815 175.661 419.285 175.877 421.28C176.022 423.596 175.287 426.405 177.137 428.236C180.232 431.839 185.61 431.373 189.892 431.051C189.964 426.215 189.262 421.418 188.993 416.607C185.616 415.984 182.016 415.282 178.724 416.647ZM324.804 1066.52C324.902 1071.56 325.951 1076.53 326.076 1081.56C326.161 1085.06 327.191 1088.45 327.243 1091.96C327.283 1095.97 328.457 1099.85 328.601 1103.86C328.752 1108 329.46 1112.08 329.88 1116.2C330.378 1119.76 330.313 1123.38 331.106 1126.91C331.716 1129.85 331.395 1132.88 331.991 1135.84C333.126 1139.57 332.837 1143.55 333.467 1147.39C334.359 1152.74 334.431 1158.19 335.231 1163.56C335.867 1169.54 333.952 1175.36 333.29 1181.24C332.792 1184.72 334.713 1187.88 337.1 1190.24C341.383 1194.76 347.632 1196.3 353.344 1198.13C362.677 1200.5 372.107 1202.72 381.728 1203.45C387.4 1204.79 393.263 1204.23 399.008 1204.91C410.229 1205.69 421.456 1204.68 432.684 1204.67C438.802 1204.42 444.973 1204.56 451.007 1203.37C455.204 1203.04 459.46 1203.12 463.598 1202.23C466.674 1201.52 469.894 1202.01 472.943 1201.13C475.921 1200.35 478.996 1200.05 482.026 1199.47C491.457 1198.23 500.73 1196.01 509.858 1193.36C516.325 1191.01 523.571 1188.35 527.165 1182.03C530.693 1176.54 529.723 1169.7 530.228 1163.52C531.264 1156.78 530.726 1149.94 530.988 1143.16C531.657 1135.21 531.985 1127.25 532.097 1119.28C530.884 1118.96 529.657 1118.7 528.424 1118.58C512.856 1117.15 497.424 1114.57 481.921 1112.63C476.917 1111.41 471.783 1110.92 466.733 1109.94C452.469 1106.96 438.002 1104.9 423.955 1100.92C402.267 1096.02 381.065 1089.22 360.125 1081.8C348.288 1076.87 336.182 1072.51 324.804 1066.52Z" fill="#241E22"/>
<path d="M463.034 520.583C469.894 519.592 477.049 520.078 483.568 522.539C490.657 525.236 496.985 529.528 503.202 533.794C509.728 538.335 515.925 543.336 521.827 548.664C525.926 552.622 530.471 556.178 533.927 560.752C536.262 564.211 537.363 568.693 536.229 572.768C534.419 577.027 531.166 580.972 526.601 582.363C523.073 583.288 519.296 583.787 515.709 582.934C509.852 580.834 505.563 576.096 500.999 572.092C494.867 567.066 488.998 561.645 482.217 557.478C479.292 555.457 476.295 553.061 472.616 552.766C470.045 552.641 467.31 552.418 464.936 553.599C454.437 558.403 447.216 567.787 440.449 576.772C438.442 579.456 435.569 581.385 432.487 582.625C427.195 584.062 421.011 583.334 416.84 579.541C412.577 576.457 411.167 570.642 412.315 565.681C413.016 561.586 415.594 558.213 418.046 554.997C426.06 545.16 434.9 535.854 445.223 528.406C450.587 524.692 456.614 521.863 463.034 520.583Z" fill="#241E22"/>
<path d="M732.045 660.476C736.623 658.704 742.086 659.354 746.119 662.163C749.857 664.788 752.073 669.434 751.778 673.989C750.959 682.802 746.171 690.441 741.948 697.994C738.157 703.946 734.983 710.253 731.422 716.336C718.109 738.721 706.626 762.11 695.91 785.827C693.084 791.799 690.979 798.072 688.775 804.287C687.956 805.908 687.201 807.562 686.749 809.334C685.555 813.763 683.522 817.937 682.683 822.472C679.627 830.255 678.794 838.714 676.243 846.661C673.534 859.779 672.511 873.219 673.213 886.6C673.685 889.488 673.272 892.494 674.203 895.315C675.03 898.341 674.826 901.635 676.282 904.49C679.155 915.738 685.313 926.428 694.612 933.549C699.707 937.637 705.865 940.367 712.273 941.607C720.877 944.088 730.045 942.211 738.183 938.976C743.253 937.191 747.739 934.172 752.388 931.54C763.707 924.368 774.01 915.699 783.716 906.485C790.7 900.113 797.77 893.786 804.151 886.797C808.433 882.794 812.145 878.253 816.244 874.073C824.999 864.025 833.964 854.129 842.023 843.504C849.532 833.214 857.245 823.056 864.019 812.247C870.682 802.043 876.912 791.562 883.569 781.351C886.31 776.849 889.018 772.328 892.179 768.101C893.229 767.202 892.166 766.316 891.91 765.352C892.488 765.437 893.065 765.594 893.635 765.811C896.593 761.664 899.806 757.135 904.803 755.357C907.722 754.72 911.171 754.451 913.696 756.361C917.992 758.822 921.054 763.449 920.995 768.489C921.618 774.802 918.339 780.511 915.9 786.089C911.217 795.506 906.469 804.891 901.046 813.908C887.812 834.875 874.014 855.566 858.143 874.65C855.094 877.945 852.359 881.495 849.486 884.94C845.978 888.681 842.469 892.434 839.177 896.372C830.724 904.962 822.323 913.631 813.319 921.664C804.367 930.313 794.438 937.814 784.693 945.532C779.066 950.165 772.823 953.958 766.665 957.823C755.91 964.911 744.269 971.244 731.442 973.475C728.071 974.131 724.608 973.967 721.264 974.709C715.106 975.325 708.928 974.302 702.908 973.107C696.717 971.998 690.979 969.288 685.352 966.584C669.96 958.453 659.435 943.681 652.011 928.331C649.998 922.799 647.44 917.405 646.489 911.551C644.318 904.293 643.945 896.667 642.915 889.206C642.43 880.254 642.692 871.277 642.941 862.326C643.774 855.986 643.722 849.535 645.23 843.301C645.328 839.455 646.725 835.859 647.289 832.092C652.896 802.056 665.35 773.942 678.02 746.32C679.089 743.919 680.683 741.792 681.515 739.285C687.746 725.964 695.241 713.291 702.534 700.534C705.229 696.249 707.459 691.674 710.371 687.52C714.634 680.472 718.837 673.345 724.038 666.94C726.346 664.407 728.819 661.822 732.045 660.476Z" fill="#241E22"/>
</g>
<defs>
<clipPath id="clip0_59_7">
<rect width="1134" height="1239" fill="white"/>
</clipPath>
</defs>
</svg>
