<?xml version="1.0" encoding="UTF-8" standalone="no"?><!DOCTYPE svg PUBLIC "-//W3C//DTD SVG 1.1//EN" "http://www.w3.org/Graphics/SVG/1.1/DTD/svg11.dtd"><svg width="100%" height="100%" viewBox="0 0 2162 2365" version="1.1" xmlns="http://www.w3.org/2000/svg" xmlns:xlink="http://www.w3.org/1999/xlink" xml:space="preserve" xmlns:serif="http://www.serif.com/" style="fill-rule:evenodd;clip-rule:evenodd;stroke-linejoin:round;stroke-miterlimit:2;"><path d="M505.179,702.04c47.562,-0.812 95.125,-1.625 142.687,-1.687c19.282,82 40.188,163.594 60.094,245.437c-44.781,14.094 -92.406,16.688 -139.062,14.532c-16.969,-60.532 -33,-121.344 -47.938,-182.438c-5.594,-25.219 -12.687,-50.156 -15.781,-75.844Z" style="fill:#fbfcfc;fill-rule:nonzero;"/><path d="M1070.43,702.322c47.937,-0.532 95.875,-1.532 143.812,-1.844c21.063,83.5 41.688,167.187 61.188,251.094c-45.969,11.25 -93.719,10.937 -140.656,8.25c-22.563,-85.563 -46.438,-170.813 -64.344,-257.5Z" style="fill:#fbfcfc;fill-rule:nonzero;"/><path d="M334.273,796.728c6.093,-7.219 16.312,-3.719 24.343,-3.125c0.813,9.562 1.407,19.156 2.407,28.719c-7.782,-0.563 -16.5,0.718 -23.157,-4.157c-5.687,-5.406 -5.5,-14.468 -3.593,-21.437Z" style="fill:#fbfcfc;fill-rule:nonzero;"/><path d="M810.148,903.103c23.687,0.219 47.031,-4.375 70.687,-5.313c35.563,-2.187 71.125,0.782 106.563,3.594c28.281,50.188 72.468,93.281 128.156,111.125c59.312,18.25 125.031,11.344 181.594,-13.062c20.093,18.625 38.437,39.312 53.031,62.562c23.094,37.844 37.062,81.219 40.187,125.469c2.407,22.781 0.032,45.719 1.469,68.562c-6.562,6.563 -12.969,13.313 -18.562,20.719c-54.063,83.094 -101.094,171.719 -130.157,266.813c-16.875,56.406 -24.406,116.437 -15.5,174.937c6.844,45.531 29.844,90.094 68.25,116.688c22.532,16.468 51.094,23.125 78.719,22.031c1.906,-0 5.656,-0 7.563,-0.031c-31.844,85.031 -80.532,162.718 -136.782,233.625c-10.718,-10.094 -26.125,-6.813 -39.468,-7.157c-85.532,1.938 -170.938,-6.031 -255.657,-17.187c-109.312,-15.094 -218.093,-40.094 -319.625,-84.125c-53.375,-24 -106.968,-54 -142.562,-101.813c-32.094,-42.812 -42.813,-97.125 -45.156,-149.5c-2.344,-70.156 4.656,-140.156 11.687,-209.875c14.781,-98.812 27.656,-197.968 47.344,-295.968c2.875,-11.188 0.094,-22.563 -3.813,-33.094c7.25,-21.5 11.469,-43.875 18.969,-65.281c11.875,-37.094 28.313,-72.438 45.375,-107.375c48.719,5.5 99.969,3.187 145,-18c43.531,-20.969 78.469,-56.907 102.688,-98.344m63.187,89.969c-27.875,7.906 -49.094,29.312 -67.75,50.406c-10.219,12.812 -23.375,26.219 -22.781,43.812c2,24 38.656,31.938 52.656,13.813c12.75,-15.313 24.844,-31.813 41.25,-43.406c12.25,-9 29.156,-5.625 40.719,2.875c18.5,13.281 35.062,29.031 52.781,43.281c15.625,14.562 46.75,5.344 51,-15.906c1.188,-14.157 -8.531,-26.032 -18.5,-34.813c-20.937,-18.906 -42.656,-37.375 -67.187,-51.437c-18.532,-11 -41.407,-14.875 -62.188,-8.625Z" style="fill:#fbfcfc;fill-rule:nonzero;"/><path d="M814.648,64.822c91.437,-41.25 191.906,-57.938 291.406,-63.782c47.125,-3.062 94.281,1.157 141.156,5.907c109.719,17.531 216.063,58.906 307.094,122.875c54.469,48.593 106.031,100.968 149.844,159.531c6.656,7.219 17.812,6.937 26.437,10.937c88.844,32.282 166.281,91.782 226.969,163.625c24.406,28.969 48.969,58.125 68.281,90.844c56.188,86.875 99.438,181.656 133.063,279.344c6.781,15.781 -1.875,32.156 -12.938,43.406c-63.781,71.031 -136.562,134.531 -217.594,185.188c5.407,92.562 7.875,185.25 9.907,277.906c4.718,164.812 -0.532,329.687 -1.875,494.469c44.5,77.562 101.343,147 151.375,220.906c9.875,16.312 21.218,35.812 14.093,55.406c-8.625,23.844 -33.218,36.125 -55.625,44.125c-65.093,21.313 -135.218,21.875 -202.406,11.563c-33.062,-5.969 -66.5,-12.844 -96.469,-28.625c-2.75,30.218 -9.093,59.937 -16.093,89.437c-4.969,20.406 -5,42.969 -17.875,60.594c-16.688,26.125 -44.532,42.687 -73.688,51.437c-63.656,18.719 -130.312,23.532 -196.344,24.938c-49.968,0.187 -100.25,-1.781 -149.468,-11.125c-27.344,-5.813 -56.688,-12.688 -76.813,-33.563c-15.844,-14.906 -23.531,-37.843 -19.625,-59.25c1.469,-13.187 2.781,-28.156 14.719,-36.375c-0.469,-26.593 -5.469,-52.812 -10.344,-78.875c-43.094,-4.718 -86.437,-6.812 -129.75,-7.625c-1.125,33.157 -1.594,66.344 -4.031,99.469c-2.156,30.563 -19.938,59.281 -45.781,75.625c-21.625,14.781 -47.157,22.219 -72.438,27.969c-41.937,9.344 -84.937,12.375 -127.75,15c-59.594,2.437 -120.875,1.031 -177.594,-19.5c-24.062,-8.969 -48.875,-21.531 -62.437,-44.406c-12.125,-18.719 -14.031,-42.907 -6.813,-63.782c1.907,-5.187 3.282,-10.687 2.188,-16.187c-8.125,-63.313 -16.594,-126.656 -22.063,-190.281c-43.687,-25.063 -84.937,-56.219 -114,-97.907c-36.031,-48.375 -53.812,-108.187 -57.718,-167.906c-3.938,-67.125 -0.844,-134.625 7.093,-201.375c-71.125,-0.125 -143.843,-11.219 -207.75,-43.812c-52.343,-25.907 -97.468,-66.657 -127.312,-116.969c-25.688,-43.5 -39.438,-92.938 -47.281,-142.531c-6.407,-44.969 -9,-90.469 -8.282,-135.875c-0.718,-68.938 3.375,-137.844 9.532,-206.5c4.125,-33.25 -2.657,-66.5 -2.75,-99.813c-1.532,-37.531 3.437,-74.844 6.437,-112.187c2.344,-23.75 3.875,-47.75 10.281,-70.844c4.719,-16.781 7.969,-34.844 19.219,-48.75c7.781,-9.813 16.875,-19.813 29.094,-23.906c20.281,-2.344 40.344,6.906 54.344,21.406c14.812,-26.5 24.812,-57.875 50.281,-76.469c18.656,-14.156 47.281,-12.187 63.5,4.844c26.625,24.875 35.062,61.781 43.437,95.781c16.75,-7.406 35.657,-13.062 53.969,-8.656c18.313,3.937 33.375,15.844 47.719,27.25c19.125,-66.844 45.125,-131.656 75.625,-194.094c26.719,-52.906 55.906,-104.844 91.562,-152.312c69.219,-88.5 160.157,-159.75 262.282,-206.5m228.781,14.093c-62.938,7.125 -125.406,21.563 -183.938,46.094c-48.375,19.781 -93.625,46.563 -136,76.969c-49.281,35.344 -93.312,78.094 -128.937,127.219c-30.094,40.406 -55.125,84.343 -77.25,129.531c-28.906,59.187 -55.813,119.781 -72.688,183.625c116.313,0.344 232.625,-0.813 348.938,-0.969c13.187,0.219 26.406,-0.344 39.531,0.781c9.719,1.157 14.813,10.157 19.531,17.625c34.844,-1.5 69.782,-0.031 104.657,0.938c6.437,-9.125 15.343,-17.719 27.218,-18.125c186.344,0.156 372.719,-1.906 559.094,-2.813c30.344,0.188 60.813,-1.781 91.094,1c18.062,0.875 32.312,19.094 29.187,36.875c-0.906,17.407 -16.343,31.157 -33.218,32.625c-65.688,5.313 -131.438,9.688 -197.125,15c6.093,58.094 -0.75,118.782 -27.688,171.25c-22.281,46.063 -62.281,82.032 -108.687,102.907c-56.563,24.406 -122.282,31.312 -181.594,13.062c-55.688,-17.844 -99.875,-60.937 -128.156,-111.125c-28.063,-47.937 -40.625,-104.125 -39.594,-159.437c-30.688,-1.875 -61.438,-2.938 -92.063,-5.25c-0.593,58.281 -16.531,115.906 -45.593,166.406c-24.219,41.437 -59.157,77.375 -102.688,98.344c-45.031,21.187 -96.281,23.5 -145,18c-25.5,-4.407 -50.531,-12.063 -73.375,-24.313c-20.625,-10.5 -38.531,-25.344 -56.062,-40.281c-7.782,10 -17.157,18.781 -24.344,29.219c0.094,16.718 3.687,33.25 7.406,49.5c15.375,58.062 45.563,111.187 82.031,158.531c3.907,10.531 6.688,21.906 3.813,33.094c-19.688,98 -32.563,197.156 -47.344,295.968c-7.031,69.719 -14.031,139.719 -11.687,209.875c2.343,52.375 13.062,106.688 45.156,149.5c35.594,47.813 89.187,77.813 142.562,101.813c101.532,44.031 210.313,69.031 319.625,84.125c84.719,11.156 170.125,19.125 255.657,17.187c13.343,0.344 28.75,-2.937 39.468,7.157c11.438,13.968 13.407,32.312 16.407,49.437c4.406,29.906 12.156,60.469 5.437,90.656c-2.156,12.5 -7.187,24.938 -5.531,37.813c3.687,13.031 17.687,17.937 29.375,21.406c26.281,6.844 53.437,9.344 80.469,11.313c72.281,3.437 144.718,-3.719 215.75,-17c25.093,-5 53.562,-11.875 68.687,-34.532c13.813,-22.531 18,-49.218 23.969,-74.562c10.062,-48.75 14.344,-98.469 23.406,-147.406c2.281,-10 3.688,-21.125 11.094,-28.875c4.906,-5.188 11.906,-10.563 19.562,-7.688c10.188,3.094 14.75,14.031 16.5,23.688c3.813,20.937 4.063,42.375 3.282,63.625c55.156,17.437 113.25,25.687 171.062,26.343c35.656,-1.156 73.156,-2.156 105.375,-19.343c-6.469,-11.032 -15.781,-19.875 -23.781,-29.719c-39.625,-48.531 -78.031,-98.219 -111.813,-151.063c-9.031,-15.687 -21.718,-30.468 -24.406,-48.812c0.563,-66.625 1.375,-133.219 2.031,-199.813c-0.5,-34.437 2.594,-68.875 0.563,-103.218c-0.125,-181.407 -2.031,-363 -16.406,-543.875c-9.469,-111.875 -23.688,-223.782 -51.5,-332.688c-26.844,-97.437 -64,-192.469 -113.688,-280.562c-31.687,-49.438 -68.375,-95.532 -108.094,-138.719c-38.593,-41.375 -82.5,-78.281 -132.312,-105.438c-48.344,-27.031 -100.531,-46.968 -154.438,-59.718c-82.437,-21 -168.687,-22.094 -252.937,-13.157m720.812,313.032c11.5,18.968 21.782,38.656 31.875,58.437c20.094,38.719 34.375,80.063 48.75,121.125c18.157,52.688 32.688,106.594 43.157,161.344c15.531,83.625 27.625,167.969 34.281,252.781c62.062,-42.312 117.719,-93.406 168.719,-148.375c-17.563,-48.687 -35.094,-97.625 -60.563,-142.844c-39.219,-71.812 -85.687,-139.875 -140.312,-200.843c-36.688,-39.688 -77.25,-77.125 -125.907,-101.625m-1592.94,251c-10.313,26.281 -0.188,56.093 -11.906,82.156c-5.532,11.406 -20.125,12.344 -31.25,11.594c-8.375,-0.563 -19.875,-1.063 -22.844,-10.719c-9.719,-29.438 -7.531,-62.063 -21.438,-90.25c-10.937,33.75 -8.906,69.594 -13.5,104.375c-7.312,58.437 4.375,117.031 1,175.562c-8.437,78.719 -11.437,158 -9,237.157c2.844,60.281 10.157,121.781 34.969,177.406c21.344,48.125 59.281,88.25 105.281,113.625c59.313,34.312 129.5,44.187 197.094,41.219c1.625,-13.875 3.781,-27.688 6.125,-41.469c11.813,-71.094 19.594,-143.156 38.875,-212.781c-19.875,-26.875 -38.312,-54.844 -53.719,-84.5c-21.968,-44.219 -41.531,-91.469 -43.5,-141.407c-15.531,6.532 -34,10.938 -49.875,3.032c-15.812,-6.344 -23.968,-30.438 -10.687,-42.969c11.719,-12.594 30.594,-10 45.75,-14.406c21.375,-10.25 40.906,-25 54.594,-44.594c-4.125,-7.094 -8,-14.344 -12,-21.469c-21.219,2.469 -44.407,5.406 -63.907,-5.562c-41.812,-23.563 -55.968,-86.219 -26.031,-124.375c19.813,-24.407 54.281,-27.438 83.375,-23.657c0.188,-11.406 0.531,-22.812 0.688,-34.187c-8.375,-9.594 -17,-20.219 -29.625,-24.156c-17.75,-6.657 -38,0.281 -51.438,12.656c-13,13.375 -18.25,31.844 -26.844,47.969c-7.5,10.781 -22.75,16.468 -35.187,11.343c-11.563,-4.343 -18.188,-17.156 -17.531,-29.093c0.968,-16.969 7.593,-33.25 17.25,-47.094c-1.157,-33 -4.344,-67.75 -21.344,-96.844c-15.563,21.438 -25.938,46.125 -33.375,71.438m333.875,59.093c3.094,25.688 10.187,50.625 15.781,75.844c14.938,61.094 30.969,121.906 47.938,182.438c46.656,2.156 94.281,-0.438 139.062,-14.532c-19.906,-81.843 -40.812,-163.437 -60.094,-245.437c-47.562,0.062 -95.125,0.875 -142.687,1.687m565.25,0.282c17.906,86.687 41.781,171.937 64.344,257.5c46.937,2.687 94.687,3 140.656,-8.25c-19.5,-83.907 -40.125,-167.594 -61.188,-251.094c-47.937,0.312 -95.875,1.312 -143.812,1.844m-736.156,94.406c-1.907,6.969 -2.094,16.031 3.593,21.437c6.657,4.875 15.375,3.594 23.157,4.157c-1,-9.563 -1.594,-19.157 -2.407,-28.719c-8.031,-0.594 -18.25,-4.094 -24.343,3.125m282.437,1234.31c5.844,53.219 12.156,106.375 18.219,159.563c1.531,16 4.781,32.437 0.531,48.312c-2.031,7.657 -3.437,16.438 1.219,23.5c7.156,10.594 20.094,14.657 31.812,18.094c52.657,15.781 108.313,15.344 162.719,13.313c46.125,-2.75 92.375,-8.032 137.031,-20.219c16.563,-5.688 37,-14.938 39.125,-34.719c4.094,-35.625 4.188,-71.562 5.375,-107.344c-135.343,-16.062 -272.843,-39.343 -396.031,-100.5Z" style="fill-rule:nonzero;"/><path d="M873.335,993.072c20.781,-6.25 43.656,-2.375 62.188,8.625c24.531,14.062 46.25,32.531 67.187,51.437c9.969,8.781 19.688,20.656 18.5,34.813c-4.25,21.25 -35.375,30.468 -51,15.906c-17.719,-14.25 -34.281,-30 -52.781,-43.281c-11.563,-8.5 -28.469,-11.875 -40.719,-2.875c-16.406,11.593 -28.5,28.093 -41.25,43.406c-14,18.125 -50.656,10.187 -52.656,-13.813c-0.594,-17.593 12.562,-31 22.781,-43.812c18.656,-21.094 39.875,-42.5 67.75,-50.406Z" style="fill-rule:nonzero;"/><path d="M1391.84,1256.04c14.25,-3 34.188,1.344 38.219,17.438c5.656,22.906 -10.75,42.312 -20.469,61.437c-49.25,83.5 -96.25,170.188 -119.156,265.125c-9.219,40.782 -14.781,84.219 -2.688,125.063c6.375,20.844 17.938,40.906 35.563,54.219c24.281,18.062 58.656,21.437 85.844,8.031c26.687,-12.469 49.406,-31.688 71.937,-50.344c84.063,-71.5 149.563,-161.781 206.063,-255.906c10.281,-15.25 18.125,-34.219 35.625,-42.625c17.25,-7.125 35.593,12.437 32.062,29.469c-3,16.562 -11.187,31.593 -18.906,46.343c-62.031,115.219 -148.063,218.563 -254.25,295.5c-32.469,21.563 -66.75,45.625 -107.094,47.438c-27.625,1.094 -56.187,-5.563 -78.719,-22.031c-38.406,-26.594 -61.406,-71.157 -68.25,-116.688c-8.906,-58.5 -1.375,-118.531 15.5,-174.937c29.063,-95.094 76.094,-183.719 130.157,-266.813c5.593,-7.406 12,-14.156 18.562,-20.719Z" style="fill-rule:nonzero;"/><path d="M1043.43,78.915c84.25,-8.937 170.5,-7.843 252.937,13.157c53.907,12.75 106.094,32.687 154.438,59.718c49.812,27.157 93.719,64.063 132.312,105.438c39.719,43.187 76.407,89.281 108.094,138.719c49.688,88.093 86.844,183.125 113.688,280.562c27.812,108.906 42.031,220.813 51.5,332.688c14.375,180.875 16.281,362.468 16.406,543.875c2.031,34.343 -1.063,68.781 -0.563,103.218c-0.656,66.594 -1.468,133.188 -2.031,199.813c2.688,18.344 15.375,33.125 24.406,48.812c33.782,52.844 72.188,102.532 111.813,151.063c8,9.844 17.312,18.687 23.781,29.719c-32.219,17.187 -69.719,18.187 -105.375,19.343c-57.812,-0.656 -115.906,-8.906 -171.062,-26.343c0.781,-21.25 0.531,-42.688 -3.282,-63.625c-1.75,-9.657 -6.312,-20.594 -16.5,-23.688c-7.656,-2.875 -14.656,2.5 -19.562,7.688c-7.406,7.75 -8.813,18.875 -11.094,28.875c-9.062,48.937 -13.344,98.656 -23.406,147.406c-5.969,25.344 -10.156,52.031 -23.969,74.562c-15.125,22.657 -43.594,29.532 -68.687,34.532c-71.032,13.281 -143.469,20.437 -215.75,17c-27.032,-1.969 -54.188,-4.469 -80.469,-11.313c-11.688,-3.469 -25.688,-8.375 -29.375,-21.406c-1.656,-12.875 3.375,-25.313 5.531,-37.813c6.719,-30.187 -1.031,-60.75 -5.437,-90.656c-3,-17.125 -4.969,-35.469 -16.407,-49.437c56.25,-70.907 104.938,-148.594 136.782,-233.625c-1.907,0.031 -5.657,0.031 -7.563,0.031c40.344,-1.813 74.625,-25.875 107.094,-47.438c106.187,-76.937 192.219,-180.281 254.25,-295.5c7.719,-14.75 15.906,-29.781 18.906,-46.343c3.531,-17.032 -14.812,-36.594 -32.062,-29.469c-17.5,8.406 -25.344,27.375 -35.625,42.625c-56.5,94.125 -122,184.406 -206.063,255.906c-22.531,18.656 -45.25,37.875 -71.937,50.344c-27.188,13.406 -61.563,10.031 -85.844,-8.031c-17.625,-13.313 -29.188,-33.375 -35.563,-54.219c-12.093,-40.844 -6.531,-84.281 2.688,-125.063c22.906,-94.937 69.906,-181.625 119.156,-265.125c9.719,-19.125 26.125,-38.531 20.469,-61.437c-4.031,-16.094 -23.969,-20.438 -38.219,-17.438c-1.437,-22.843 0.938,-45.781 -1.469,-68.562c-3.125,-44.25 -17.093,-87.625 -40.187,-125.469c-14.594,-23.25 -32.938,-43.937 -53.031,-62.562c46.406,-20.875 86.406,-56.844 108.687,-102.907c26.938,-52.468 33.781,-113.156 27.688,-171.25c65.687,-5.312 131.437,-9.687 197.125,-15c16.875,-1.468 32.312,-15.218 33.218,-32.625c3.125,-17.781 -11.125,-36 -29.187,-36.875c-30.281,-2.781 -60.75,-0.812 -91.094,-1c-186.375,0.907 -372.75,2.969 -559.094,2.813c-11.875,0.406 -20.781,9 -27.218,18.125c-34.875,-0.969 -69.813,-2.438 -104.657,-0.938c-4.718,-7.468 -9.812,-16.468 -19.531,-17.625c-13.125,-1.125 -26.344,-0.562 -39.531,-0.781c-116.313,0.156 -232.625,1.313 -348.938,0.969c16.875,-63.844 43.782,-124.438 72.688,-183.625c22.125,-45.188 47.156,-89.125 77.25,-129.531c35.625,-49.125 79.656,-91.875 128.937,-127.219c42.375,-30.406 87.625,-57.188 136,-76.969c58.532,-24.531 121,-38.969 183.938,-46.094Z" style="fill:#b3cbee;fill-rule:nonzero;"/><path d="M1764.24,391.947c48.657,24.5 89.219,61.937 125.907,101.625c54.625,60.968 101.093,129.031 140.312,200.843c25.469,45.219 43,94.157 60.563,142.844c-51,54.969 -106.657,106.063 -168.719,148.375c-6.656,-84.812 -18.75,-169.156 -34.281,-252.781c-10.469,-54.75 -25,-108.656 -43.157,-161.344c-14.375,-41.062 -28.656,-82.406 -48.75,-121.125c-10.093,-19.781 -20.375,-39.469 -31.875,-58.437Z" style="fill:#b3cbee;fill-rule:nonzero;"/><path d="M171.304,642.947c7.437,-25.313 17.812,-50 33.375,-71.438c17,29.094 20.187,63.844 21.344,96.844c-9.657,13.844 -16.282,30.125 -17.25,47.094c-0.657,11.937 5.968,24.75 17.531,29.093c12.437,5.125 27.687,-0.562 35.187,-11.343c8.594,-16.125 13.844,-34.594 26.844,-47.969c13.438,-12.375 33.688,-19.313 51.438,-12.656c12.625,3.937 21.25,14.562 29.625,24.156c-0.157,11.375 -0.5,22.781 -0.688,34.187c-29.094,-3.781 -63.562,-0.75 -83.375,23.657c-29.937,38.156 -15.781,100.812 26.031,124.375c19.5,10.968 42.688,8.031 63.907,5.562c4,7.125 7.875,14.375 12,21.469c-13.688,19.594 -33.219,34.344 -54.594,44.594c-15.156,4.406 -34.031,1.812 -45.75,14.406c-13.281,12.531 -5.125,36.625 10.687,42.969c15.875,7.906 34.344,3.5 49.875,-3.032c1.969,49.938 21.532,97.188 43.5,141.407c15.407,29.656 33.844,57.625 53.719,84.5c-19.281,69.625 -27.062,141.687 -38.875,212.781c-2.344,13.781 -4.5,27.594 -6.125,41.469c-67.594,2.968 -137.781,-6.907 -197.094,-41.219c-46,-25.375 -83.937,-65.5 -105.281,-113.625c-24.812,-55.625 -32.125,-117.125 -34.969,-177.406c-2.437,-79.157 0.563,-158.438 9,-237.157c3.375,-58.531 -8.312,-117.125 -1,-175.562c4.594,-34.781 2.563,-70.625 13.5,-104.375c13.907,28.187 11.719,60.812 21.438,90.25c2.969,9.656 14.469,10.156 22.844,10.719c11.125,0.75 25.718,-0.188 31.25,-11.594c11.718,-26.063 1.593,-55.875 11.906,-82.156Z" style="fill:#b3cbee;fill-rule:nonzero;"/><path d="M810.148,903.103c29.062,-50.5 45,-108.125 45.593,-166.406c30.625,2.312 61.375,3.375 92.063,5.25c-1.031,55.312 11.531,111.5 39.594,159.437c-35.438,-2.812 -71,-5.781 -106.563,-3.594c-23.656,0.938 -47,5.532 -70.687,5.313Z" style="fill:#b3cbee;fill-rule:nonzero;"/><path d="M433.023,954.853c17.531,14.937 35.437,29.781 56.062,40.281c22.844,12.25 47.875,19.906 73.375,24.313c-17.062,34.937 -33.5,70.281 -45.375,107.375c-7.5,21.406 -11.719,43.781 -18.969,65.281c-36.468,-47.344 -66.656,-100.469 -82.031,-158.531c-3.719,-16.25 -7.312,-32.782 -7.406,-49.5c7.187,-10.438 16.562,-19.219 24.344,-29.219Z" style="fill:#b3cbee;fill-rule:nonzero;"/><path d="M616.71,2031.04c123.188,61.157 260.688,84.438 396.031,100.5c-1.187,35.782 -1.281,71.719 -5.375,107.344c-2.125,19.781 -22.562,29.031 -39.125,34.719c-44.656,12.187 -90.906,17.469 -137.031,20.219c-54.406,2.031 -110.062,2.468 -162.719,-13.313c-11.718,-3.437 -24.656,-7.5 -31.812,-18.094c-4.656,-7.062 -3.25,-15.843 -1.219,-23.5c4.25,-15.875 1,-32.312 -0.531,-48.312c-6.063,-53.188 -12.375,-106.344 -18.219,-159.563Z" style="fill:#b3cbee;fill-rule:nonzero;"/></svg>