<?xml version="1.0" encoding="UTF-8" ?>
<!DOCTYPE svg PUBLIC "-//W3C//DTD SVG 1.1//EN" "http://www.w3.org/Graphics/SVG/1.1/DTD/svg11.dtd">
<svg width="512pt" height="512pt" viewBox="0 0 512 512" version="1.1" xmlns="http://www.w3.org/2000/svg">
<g id="#5a7cc1ff">
<path fill="#5a7cc1" opacity="1.00" d=" M 235.32 0.00 L 236.27 0.00 C 238.97 0.75 241.63 2.83 241.26 5.93 C 241.34 41.31 241.32 76.69 241.26 112.07 C 241.55 114.60 239.82 116.62 237.70 117.72 C 203.72 137.41 169.67 156.98 135.68 176.65 C 133.34 177.81 131.88 180.28 132.10 182.90 C 132.06 196.21 132.11 209.53 132.09 222.84 C 97.54 242.09 63.33 261.93 28.76 281.15 C 28.77 228.42 28.74 175.69 28.76 122.97 C 28.05 118.17 33.11 116.43 36.39 114.46 C 98.36 78.76 160.27 42.95 222.20 7.20 C 226.56 4.76 230.71 1.95 235.32 0.00 Z" />
</g>
<g id="#4c54a8ff">
<path fill="#4c54a8" opacity="1.00" d=" M 275.60 0.00 L 276.50 0.00 C 283.20 2.85 289.19 7.08 295.59 10.52 C 334.17 32.79 372.74 55.06 411.32 77.33 C 388.44 90.86 365.32 103.97 342.43 117.47 C 331.07 124.04 319.57 130.40 308.50 137.46 C 297.09 130.86 285.67 124.28 274.25 117.70 C 272.10 116.60 270.45 114.54 270.73 112.01 C 270.68 76.67 270.66 41.31 270.74 5.97 C 270.37 2.89 272.96 0.84 275.60 0.00 Z" />
</g>
<g id="#4f5bacff">
<path fill="#4f5bac" opacity="1.00" d=" M 342.43 117.47 C 365.32 103.97 388.44 90.86 411.32 77.33 C 434.22 90.59 457.18 103.76 480.06 117.06 C 482.30 118.14 483.48 120.48 483.23 122.94 C 483.27 148.55 483.24 174.17 483.24 199.79 C 463.07 210.96 443.30 222.86 423.31 234.36 C 408.75 242.53 394.64 251.50 379.90 259.35 C 379.88 233.88 379.92 208.40 379.89 182.92 C 380.16 180.02 378.27 177.52 375.76 176.28 C 353.34 163.34 330.92 150.40 308.50 137.46 C 319.57 130.40 331.07 124.04 342.43 117.47 Z" />
</g>
<g id="#4b52a7ff">
<path fill="#4b52a7" opacity="1.00" d=" M 207.71 175.93 C 214.55 175.93 221.38 175.93 228.22 175.93 C 228.22 187.49 228.23 199.05 228.22 210.61 C 221.32 214.45 214.87 219.09 207.71 222.46 C 207.70 206.95 207.71 191.44 207.71 175.93 Z" />
</g>
<g id="#4e59abff">
<path fill="#4e59ab" opacity="1.00" d=" M 228.30 237.98 C 248.76 217.51 268.80 196.60 289.07 175.94 C 298.16 175.93 307.25 175.92 316.35 175.94 C 294.28 198.66 272.16 221.33 250.13 244.08 C 263.44 258.89 276.69 273.74 290.00 288.54 C 283.93 291.39 278.24 294.95 272.59 298.54 C 257.79 282.10 243.29 265.38 228.31 249.09 C 228.09 273.65 228.30 298.21 228.21 322.77 C 221.38 322.76 214.54 322.76 207.71 322.76 C 207.70 289.33 207.70 255.89 207.71 222.46 C 214.87 219.09 221.32 214.45 228.22 210.61 C 228.27 219.73 228.12 228.85 228.30 237.98 Z" />
</g>
<g id="#5160b0ff">
<path fill="#5160b0" opacity="1.00" d=" M 423.31 234.36 C 443.30 222.86 463.07 210.96 483.24 199.79 C 483.20 251.54 483.33 303.30 483.18 355.04 C 483.56 359.44 478.01 361.88 474.62 359.49 C 444.35 342.10 414.16 324.54 383.88 307.14 C 381.58 305.99 379.56 303.85 379.91 301.08 C 379.87 287.17 379.92 273.26 379.90 259.35 C 394.64 251.50 408.75 242.53 423.31 234.36 Z" />
</g>
<g id="#5775bdff">
<path fill="#5775bd" opacity="1.00" d=" M 28.76 281.15 C 63.33 261.93 97.54 242.09 132.09 222.84 C 132.08 253.92 132.13 284.99 132.06 316.07 C 132.10 318.19 132.04 320.67 133.74 322.23 C 135.70 324.03 138.17 325.12 140.44 326.47 C 117.05 339.70 93.65 352.90 70.33 366.24 C 58.69 372.45 47.52 379.49 35.83 385.60 C 33.49 384.15 30.67 383.05 29.18 380.59 C 28.49 377.78 28.80 374.84 28.74 371.98 C 28.79 341.70 28.74 311.43 28.76 281.15 Z" />
</g>
<g id="#5263b2ff">
<path fill="#5263b2" opacity="1.00" d=" M 272.59 298.54 C 278.24 294.95 283.93 291.39 290.00 288.54 C 300.17 299.97 310.43 311.33 320.62 322.76 C 311.83 322.77 303.04 322.71 294.26 322.79 C 286.97 314.77 279.83 306.61 272.59 298.54 Z" />
</g>
<g id="#556fbaff">
<path fill="#556fba" opacity="1.00" d=" M 70.33 366.24 C 93.65 352.90 117.05 339.70 140.44 326.47 C 178.32 348.28 216.13 370.22 254.02 392.02 C 239.78 400.57 225.17 408.52 210.74 416.76 C 190.40 428.29 170.07 439.82 149.69 451.28 C 111.73 429.40 73.82 407.43 35.83 385.60 C 47.52 379.49 58.69 372.45 70.33 366.24 Z" />
</g>
<g id="#536ab7ff">
<path fill="#536ab7" opacity="1.00" d=" M 361.96 332.04 C 364.04 330.57 366.69 330.73 368.75 332.15 C 397.31 348.61 425.86 365.10 454.41 381.61 C 456.71 382.96 459.13 384.14 461.24 385.79 C 463.83 387.71 463.75 392.13 461.18 394.04 C 458.84 395.82 456.17 397.10 453.65 398.60 C 391.30 434.58 328.96 470.59 266.61 506.57 C 263.28 508.51 260.01 510.58 256.41 512.00 L 255.74 512.00 C 252.54 510.81 249.63 509.02 246.71 507.29 C 214.37 488.62 182.02 469.96 149.69 451.28 C 170.07 439.82 190.40 428.29 210.74 416.76 C 225.17 408.52 239.78 400.57 254.02 392.02 C 256.06 392.19 258.21 392.09 259.98 390.93 C 293.96 371.27 327.98 351.68 361.96 332.04 Z" />
</g>
</svg>
