<?xml version="1.0" encoding="UTF-8" ?>
<!DOCTYPE svg PUBLIC "-//W3C//DTD SVG 1.1//EN" "http://www.w3.org/Graphics/SVG/1.1/DTD/svg11.dtd">
<svg width="1074pt" height="1212pt" viewBox="0 0 1074 1212" version="1.1" xmlns="http://www.w3.org/2000/svg">
<g id="#ffffffff">
<path fill="#ffffff" opacity="1.00" d=" M 381.47 356.09 C 384.10 355.11 386.83 354.49 389.58 353.95 C 389.80 410.05 389.72 466.16 389.61 522.27 C 379.97 520.37 371.34 515.35 362.03 512.39 C 346.41 506.26 330.79 500.11 315.05 494.28 C 313.01 493.33 310.25 492.56 309.82 489.99 C 308.96 484.65 310.46 479.34 310.39 474.00 C 310.33 443.34 310.41 412.68 310.35 382.01 C 314.28 380.06 318.38 378.47 322.59 377.20 C 342.19 370.10 361.94 363.39 381.47 356.09 M 360.33 378.23 C 358.39 378.47 358.56 380.59 358.48 382.06 C 358.51 420.56 358.46 459.06 358.50 497.56 C 366.07 500.28 373.74 502.75 381.50 504.87 C 381.82 484.25 381.54 463.62 381.64 443.00 C 381.53 419.37 381.83 395.75 381.50 372.13 C 374.41 374.02 367.25 375.78 360.33 378.23 M 335.73 385.18 C 333.75 385.79 333.96 388.20 333.76 389.86 C 333.79 423.26 333.74 456.65 333.79 490.05 C 339.76 491.95 345.74 493.86 351.67 495.88 C 352.02 493.94 352.38 492.00 352.38 490.03 C 352.38 455.67 352.32 421.31 352.42 386.96 C 352.44 384.69 352.05 382.45 351.58 380.25 C 346.29 381.87 340.82 382.99 335.73 385.18 M 315.49 392.66 C 315.68 423.16 315.60 453.66 315.50 484.16 C 319.32 485.93 323.29 487.45 327.50 487.95 C 327.77 454.61 327.63 421.26 327.57 387.93 C 323.22 388.53 319.08 390.12 315.49 392.66 Z" />
<path fill="#ffffff" opacity="1.00" d=" M 624.18 357.97 C 628.19 356.46 632.18 354.61 636.52 354.38 C 636.38 410.57 636.63 466.77 636.40 522.96 C 630.43 521.86 625.01 519.05 619.39 516.91 C 598.66 508.86 577.84 500.99 557.28 492.53 C 557.36 455.62 557.13 418.71 557.39 381.80 C 579.64 373.83 601.94 365.98 624.18 357.97 M 605.37 379.60 C 605.50 418.10 605.39 456.60 605.42 495.09 C 604.92 497.41 607.13 498.73 609.02 499.33 C 615.09 501.40 621.18 503.96 627.71 503.94 C 627.81 460.23 627.84 416.51 627.69 372.80 C 620.16 374.71 612.39 376.17 605.37 379.60 M 580.86 386.65 C 580.20 391.40 580.79 396.22 580.64 401.00 C 580.66 430.77 580.60 460.55 580.68 490.33 C 586.51 492.60 592.50 494.42 598.48 496.29 C 598.64 457.88 598.60 419.47 598.50 381.06 C 592.49 382.23 586.09 383.32 580.86 386.65 M 562.30 392.40 C 562.45 423.09 562.44 453.79 562.31 484.49 C 566.02 486.66 570.18 487.90 574.51 487.89 C 574.61 456.22 574.50 424.55 574.57 392.88 C 574.33 391.30 575.12 389.01 573.20 388.29 C 569.25 388.61 565.71 390.55 562.30 392.40 Z" />
<path fill="#ffffff" opacity="1.00" d=" M 406.52 354.08 C 412.40 354.75 417.73 357.43 423.28 359.28 C 442.47 365.75 461.38 373.01 480.53 379.58 C 490.84 383.41 501.35 386.70 511.61 390.67 C 511.72 421.23 511.74 451.78 511.61 482.34 C 481.27 494.32 450.79 505.95 420.42 517.83 C 415.84 519.59 411.37 521.67 406.60 522.87 C 406.31 466.61 406.46 410.34 406.52 354.08 Z" />
<path fill="#ffffff" opacity="1.00" d=" M 652.57 361.99 C 652.49 359.30 652.82 356.63 653.42 354.01 C 658.61 355.30 663.60 357.27 668.60 359.17 C 691.48 367.18 714.27 375.42 737.14 383.47 C 744.25 386.23 751.68 388.21 758.54 391.62 C 758.42 421.85 758.46 452.09 758.53 482.33 C 749.19 487.06 739.05 489.90 729.46 494.05 C 709.10 501.96 688.73 509.85 668.35 517.71 C 663.20 519.56 658.28 522.25 652.78 522.93 C 652.35 469.29 652.78 415.64 652.57 361.99 Z" />
<path fill="#ffffff" opacity="1.00" d=" M 209.11 547.50 C 231.56 539.60 253.82 531.19 276.31 523.40 C 276.45 580.21 276.49 637.03 276.29 693.84 C 261.02 688.56 246.18 682.12 231.01 676.56 C 219.35 671.49 207.08 667.86 195.68 662.19 C 195.70 625.68 195.57 589.16 195.73 552.65 C 200.00 550.48 204.56 548.98 209.11 547.50 M 244.53 549.68 C 244.54 589.22 244.51 628.75 244.54 668.29 C 252.20 670.52 259.61 673.70 267.51 675.03 C 267.78 630.96 267.66 586.87 267.60 542.80 C 259.79 544.64 252.06 546.90 244.53 549.68 M 222.17 555.63 C 219.70 556.55 219.97 559.72 219.74 561.88 C 219.77 592.95 219.77 624.03 219.74 655.10 C 219.91 657.09 219.75 659.92 221.95 660.86 C 227.16 663.35 232.80 664.77 238.29 666.52 C 238.46 627.80 238.42 589.09 238.30 550.37 C 232.89 552.00 227.31 553.23 222.17 555.63 M 201.56 562.40 C 201.67 592.76 201.36 623.14 201.70 653.49 C 204.40 657.03 209.48 657.60 213.50 659.01 C 213.73 625.38 213.68 591.74 213.54 558.11 C 209.30 558.72 205.26 560.25 201.56 562.40 Z" />
<path fill="#ffffff" opacity="1.00" d=" M 779.61 523.42 C 813.46 535.30 847.11 547.74 880.96 559.64 C 883.36 560.48 886.63 561.69 886.25 564.88 C 886.29 586.59 886.25 608.30 886.26 630.00 C 886.14 637.50 886.78 645.05 885.45 652.47 C 874.04 657.47 862.19 661.39 850.72 666.25 C 827.02 675.39 803.46 684.93 779.67 693.83 C 779.33 655.89 779.62 617.94 779.52 579.99 C 779.58 561.14 779.41 542.28 779.61 523.42 Z" />
<path fill="#ffffff" opacity="1.00" d=" M 292.60 523.94 C 298.86 525.33 304.74 527.97 310.76 530.13 C 331.98 537.80 353.32 545.14 374.48 552.99 C 382.22 555.81 390.09 558.30 397.65 561.59 C 397.75 591.86 397.64 622.13 397.70 652.40 C 381.58 659.58 364.84 665.26 348.56 672.06 C 335.33 677.19 322.06 682.23 308.92 687.56 C 303.52 689.58 298.26 692.19 292.50 693.00 C 292.40 639.66 292.52 586.33 292.44 532.99 C 292.42 529.97 292.47 526.95 292.60 523.94 Z" />
<path fill="#ffffff" opacity="1.00" d=" M 502.75 530.19 C 508.95 527.91 515.13 525.47 521.57 523.90 C 522.03 536.60 521.01 549.34 522.29 562.00 C 522.42 573.33 522.27 584.67 522.36 596.01 C 522.55 601.68 521.05 607.34 522.07 613.01 C 522.58 621.98 522.34 631.01 522.22 640.00 C 520.63 649.32 523.10 658.65 522.22 668.00 C 520.89 676.31 523.74 684.76 521.39 693.01 C 515.66 691.43 510.16 689.16 504.68 686.89 C 483.68 678.62 462.49 670.80 441.64 662.17 C 441.47 625.57 441.61 588.97 441.58 552.36 C 445.15 550.66 448.84 549.22 452.60 547.99 C 469.32 542.08 486.01 536.07 502.75 530.19 M 496.56 546.91 C 494.06 547.68 490.12 548.43 490.62 551.92 C 490.55 586.28 490.63 620.64 490.59 655.00 C 490.57 659.47 490.43 663.97 491.05 668.42 C 498.77 670.74 506.42 673.31 514.18 675.51 C 514.31 631.15 514.30 586.78 514.19 542.41 C 508.14 543.10 502.43 545.40 496.56 546.91 M 466.42 555.65 C 466.30 590.58 466.29 625.51 466.41 660.44 C 471.96 662.48 477.56 664.75 483.55 664.97 C 483.59 626.99 483.63 589.01 483.54 551.03 C 477.65 551.85 472.04 553.83 466.42 555.65 M 447.46 561.81 C 447.58 592.25 447.31 622.70 447.60 653.13 C 450.30 656.81 455.38 657.15 459.50 658.09 C 459.88 655.41 460.33 652.73 460.32 650.02 C 460.30 637.01 460.32 624.01 460.30 611.00 C 460.22 593.08 460.72 575.14 459.49 557.25 C 455.37 558.47 451.28 559.81 447.46 561.81 Z" />
<path fill="#ffffff" opacity="1.00" d=" M 538.50 523.96 C 543.22 525.04 547.73 526.83 552.27 528.47 C 581.44 538.93 610.63 549.30 639.84 559.63 C 641.53 560.39 643.79 560.98 644.17 563.11 C 644.67 567.41 643.28 571.69 643.77 576.00 C 644.61 582.97 644.24 589.99 644.30 597.00 C 644.31 612.34 644.28 627.67 644.33 643.01 C 644.40 646.21 643.91 649.39 643.52 652.56 C 622.38 661.02 601.04 668.98 579.86 677.36 C 566.06 682.51 552.54 688.50 538.48 692.95 C 538.20 641.31 538.49 589.65 538.36 538.00 C 538.35 533.32 538.29 528.63 538.50 523.96 Z" />
<path fill="#ffffff" opacity="1.00" d=" M 739.64 532.02 C 747.56 529.36 755.18 525.64 763.42 524.04 C 763.64 571.36 763.46 618.68 763.52 666.00 C 763.46 675.25 763.67 684.51 763.39 693.76 C 739.30 684.96 715.65 674.98 691.56 666.19 C 688.88 664.99 684.99 664.43 683.73 661.56 C 683.37 649.72 683.71 637.85 683.59 626.00 C 683.70 601.30 683.38 576.59 683.76 551.89 C 702.51 545.62 720.97 538.53 739.64 532.02 M 739.98 546.76 C 737.48 547.54 734.86 548.13 732.63 549.55 C 731.77 550.82 731.69 552.38 731.68 553.87 C 731.74 590.95 731.70 628.03 731.70 665.10 C 731.51 666.90 732.31 668.78 734.26 669.13 C 741.22 671.35 748.11 674.24 755.45 674.89 C 755.48 630.95 755.47 587.01 755.46 543.07 C 750.12 543.41 745.10 545.39 739.98 546.76 M 708.33 556.51 C 708.43 591.15 708.39 625.80 708.34 660.44 C 713.84 662.76 719.46 664.94 725.37 665.92 C 725.53 627.64 725.52 589.36 725.37 551.09 C 719.37 551.66 713.69 553.88 708.33 556.51 M 688.77 561.98 C 688.55 592.76 688.70 623.54 688.69 654.32 C 692.91 656.70 697.56 658.12 702.23 659.37 C 702.22 625.46 702.32 591.56 702.18 557.65 C 697.58 558.67 693.14 560.24 688.77 561.98 Z" />
<path fill="#ffffff" opacity="1.00" d=" M 407.42 692.99 C 427.14 699.86 446.79 706.95 466.46 713.96 C 481.55 719.08 496.37 724.99 511.55 729.84 C 511.80 760.41 511.49 790.98 511.70 821.55 C 505.40 824.82 498.53 826.71 492.00 829.44 C 468.90 838.33 445.88 847.42 422.76 856.25 C 417.42 858.39 412.21 860.97 406.51 862.01 C 406.38 809.67 406.51 757.34 406.45 705.00 C 406.50 700.98 405.93 696.83 407.42 692.99 Z" />
<path fill="#ffffff" opacity="1.00" d=" M 584.72 711.41 C 601.64 705.18 618.80 699.58 635.64 693.11 C 636.19 695.35 636.58 697.65 636.53 699.98 C 636.37 754.00 636.65 808.02 636.37 862.04 C 631.01 861.48 626.17 859.02 621.22 857.13 C 599.98 848.68 578.62 840.56 557.36 832.17 C 557.25 795.30 557.34 758.43 557.32 721.56 C 566.13 717.35 575.63 714.92 584.72 711.41 M 607.24 717.86 C 604.97 718.34 604.63 720.92 604.69 722.86 C 604.81 760.97 604.64 799.07 604.78 837.17 C 612.74 840.20 620.85 842.97 629.23 844.63 C 629.26 803.07 629.21 761.52 629.25 719.96 C 629.16 717.10 628.60 714.28 628.28 711.45 C 621.22 713.42 614.20 715.57 607.24 717.86 M 580.64 725.70 C 580.57 756.46 580.64 787.23 580.60 817.99 C 580.67 821.65 580.31 825.36 580.90 829.00 C 586.32 832.19 592.55 833.65 598.44 835.75 C 598.80 819.83 598.49 803.91 598.60 788.00 C 598.52 765.14 598.76 742.29 598.46 719.44 C 592.51 721.50 586.38 723.08 580.64 725.70 M 562.30 731.55 C 562.50 762.17 562.37 792.80 562.36 823.42 C 565.95 825.41 569.77 826.96 573.71 828.15 C 575.06 823.54 574.45 818.71 574.54 814.00 C 574.55 786.96 574.50 759.92 574.56 732.88 C 574.61 730.86 574.17 728.90 573.61 726.99 C 569.75 728.28 565.91 729.65 562.30 731.55 Z" />
<path fill="#ffffff" opacity="1.00" d=" M 372.39 698.85 C 378.09 696.98 383.58 694.26 389.65 693.78 C 389.83 746.19 389.65 798.60 389.73 851.00 C 389.75 854.68 389.71 858.36 389.55 862.05 C 382.41 860.27 375.79 856.99 368.90 854.48 C 349.47 846.67 329.74 839.58 310.44 831.45 C 310.40 794.58 310.24 757.70 310.52 720.83 C 331.14 713.48 351.77 706.18 372.39 698.85 M 358.67 717.88 C 358.28 755.94 358.65 794.02 358.47 832.10 C 358.59 833.73 358.23 835.55 359.01 837.07 C 361.85 838.60 365.03 839.32 368.09 840.31 C 372.77 841.65 377.37 843.52 382.29 843.76 C 382.35 799.64 382.35 755.52 382.29 711.41 C 374.18 712.65 366.60 715.94 358.67 717.88 M 334.48 725.09 C 334.49 759.04 334.46 792.99 334.49 826.94 C 334.10 829.00 336.15 830.13 337.76 830.79 C 342.45 832.63 347.32 834.10 352.29 834.95 C 352.48 796.45 352.46 757.95 352.29 719.45 C 346.36 721.35 340.22 722.63 334.48 725.09 M 315.66 730.77 C 315.41 761.72 315.61 792.68 315.56 823.63 C 319.42 825.32 323.37 826.79 327.37 828.11 C 328.82 821.15 328.20 814.04 328.31 807.00 C 328.26 780.44 328.41 753.89 328.22 727.34 C 323.79 727.31 319.67 729.09 315.66 730.77 Z" />
<path fill="#ffffff" opacity="1.00" d=" M 653.38 693.77 C 655.83 694.26 658.31 694.75 660.67 695.64 C 693.23 707.45 726.07 718.54 758.48 730.76 C 758.58 761.00 758.32 791.25 758.61 821.48 C 752.04 825.31 744.61 827.21 737.67 830.22 C 716.51 838.31 695.46 846.66 674.29 854.71 C 667.32 857.22 660.71 860.79 653.38 862.15 C 653.09 821.77 653.34 781.39 653.26 741.00 C 653.34 725.26 653.07 709.51 653.38 693.77 Z" />
</g>
<g id="#764a96ff">
<path fill="#764a96" opacity="1.00" d=" M 528.23 22.70 C 536.46 22.49 544.71 22.46 552.94 22.65 C 575.38 25.13 597.23 32.57 616.65 44.06 C 718.26 102.77 819.83 161.56 921.45 220.25 C 947.16 235.29 973.11 249.91 998.79 264.99 C 1010.31 272.19 1020.61 281.23 1029.94 291.07 C 1048.78 312.14 1061.28 338.83 1065.22 366.84 C 1065.93 373.89 1067.05 380.92 1067.33 388.01 C 1067.31 532.67 1067.35 677.34 1067.31 822.00 C 1067.81 845.77 1062.68 869.54 1052.71 891.12 C 1043.86 908.50 1032.08 924.54 1017.21 937.26 C 1005.07 948.44 990.36 956.19 976.16 964.39 C 856.12 1033.69 736.11 1103.06 616.11 1172.43 C 597.24 1183.83 575.86 1190.79 554.01 1193.43 C 547.00 1193.67 539.99 1193.52 532.98 1193.55 C 522.74 1193.83 512.82 1190.83 502.94 1188.57 C 483.44 1183.86 466.39 1172.93 449.17 1163.10 C 333.45 1096.13 217.71 1029.20 101.92 962.37 C 89.69 955.04 76.71 948.70 66.06 939.07 C 36.45 914.10 17.00 876.82 15.29 837.97 C 15.22 685.98 15.29 533.99 15.26 382.00 C 14.72 363.30 20.00 344.90 27.52 327.94 C 38.78 302.85 57.67 281.44 80.57 266.34 C 108.08 250.09 135.91 234.39 163.46 218.22 C 264.77 159.90 365.83 101.17 467.11 42.80 C 485.68 31.72 506.81 25.23 528.23 22.70 M 381.47 356.09 C 361.94 363.39 342.19 370.10 322.59 377.20 C 318.38 378.47 314.28 380.06 310.35 382.01 C 310.41 412.68 310.33 443.34 310.39 474.00 C 310.46 479.34 308.96 484.65 309.82 489.99 C 310.25 492.56 313.01 493.33 315.05 494.28 C 330.79 500.11 346.41 506.26 362.03 512.39 C 371.34 515.35 379.97 520.37 389.61 522.27 C 389.72 466.16 389.80 410.05 389.58 353.95 C 386.83 354.49 384.10 355.11 381.47 356.09 M 624.18 357.97 C 601.94 365.98 579.64 373.83 557.39 381.80 C 557.13 418.71 557.36 455.62 557.28 492.53 C 577.84 500.99 598.66 508.86 619.39 516.91 C 625.01 519.05 630.43 521.86 636.40 522.96 C 636.63 466.77 636.38 410.57 636.52 354.38 C 632.18 354.61 628.19 356.46 624.18 357.97 M 406.52 354.08 C 406.46 410.34 406.31 466.61 406.60 522.87 C 411.37 521.67 415.84 519.59 420.42 517.83 C 450.79 505.95 481.27 494.32 511.61 482.34 C 511.74 451.78 511.72 421.23 511.61 390.67 C 501.35 386.70 490.84 383.41 480.53 379.58 C 461.38 373.01 442.47 365.75 423.28 359.28 C 417.73 357.43 412.40 354.75 406.52 354.08 M 652.57 361.99 C 652.78 415.64 652.35 469.29 652.78 522.93 C 658.28 522.25 663.20 519.56 668.35 517.71 C 688.73 509.85 709.10 501.96 729.46 494.05 C 739.05 489.90 749.19 487.06 758.53 482.33 C 758.46 452.09 758.42 421.85 758.54 391.62 C 751.68 388.21 744.25 386.23 737.14 383.47 C 714.27 375.42 691.48 367.18 668.60 359.17 C 663.60 357.27 658.61 355.30 653.42 354.01 C 652.82 356.63 652.49 359.30 652.57 361.99 M 209.11 547.50 C 204.56 548.98 200.00 550.48 195.73 552.65 C 195.57 589.16 195.70 625.68 195.68 662.19 C 207.08 667.86 219.35 671.49 231.01 676.56 C 246.18 682.12 261.02 688.56 276.29 693.84 C 276.49 637.03 276.45 580.21 276.31 523.40 C 253.82 531.19 231.56 539.60 209.11 547.50 M 779.61 523.42 C 779.41 542.28 779.58 561.14 779.52 579.99 C 779.62 617.94 779.33 655.89 779.67 693.83 C 803.46 684.93 827.02 675.39 850.72 666.25 C 862.19 661.39 874.04 657.47 885.45 652.47 C 886.78 645.05 886.14 637.50 886.26 630.00 C 886.25 608.30 886.29 586.59 886.25 564.88 C 886.63 561.69 883.36 560.48 880.96 559.64 C 847.11 547.74 813.46 535.30 779.61 523.42 M 292.60 523.94 C 292.47 526.95 292.42 529.97 292.44 532.99 C 292.52 586.33 292.40 639.66 292.50 693.00 C 298.26 692.19 303.52 689.58 308.92 687.56 C 322.06 682.23 335.33 677.19 348.56 672.06 C 364.84 665.26 381.58 659.58 397.70 652.40 C 397.64 622.13 397.75 591.86 397.65 561.59 C 390.09 558.30 382.22 555.81 374.48 552.99 C 353.32 545.14 331.98 537.80 310.76 530.13 C 304.74 527.97 298.86 525.33 292.60 523.94 M 502.75 530.19 C 486.01 536.07 469.32 542.08 452.60 547.99 C 448.84 549.22 445.15 550.66 441.58 552.36 C 441.61 588.97 441.47 625.57 441.64 662.17 C 462.49 670.80 483.68 678.62 504.68 686.89 C 510.16 689.16 515.66 691.43 521.39 693.01 C 523.74 684.76 520.89 676.31 522.22 668.00 C 523.10 658.65 520.63 649.32 522.22 640.00 C 522.34 631.01 522.58 621.98 522.07 613.01 C 521.05 607.34 522.55 601.68 522.36 596.01 C 522.27 584.67 522.42 573.33 522.29 562.00 C 521.01 549.34 522.03 536.60 521.57 523.90 C 515.13 525.47 508.95 527.91 502.75 530.19 M 538.50 523.96 C 538.29 528.63 538.35 533.32 538.36 538.00 C 538.49 589.65 538.20 641.31 538.48 692.95 C 552.54 688.50 566.06 682.51 579.86 677.36 C 601.04 668.98 622.38 661.02 643.52 652.56 C 643.91 649.39 644.40 646.21 644.33 643.01 C 644.28 627.67 644.31 612.34 644.30 597.00 C 644.24 589.99 644.61 582.97 643.77 576.00 C 643.28 571.69 644.67 567.41 644.17 563.11 C 643.79 560.98 641.53 560.39 639.84 559.63 C 610.63 549.30 581.44 538.93 552.27 528.47 C 547.73 526.83 543.22 525.04 538.50 523.96 M 739.64 532.02 C 720.97 538.53 702.51 545.62 683.76 551.89 C 683.38 576.59 683.70 601.30 683.59 626.00 C 683.71 637.85 683.37 649.72 683.73 661.56 C 684.99 664.43 688.88 664.99 691.56 666.19 C 715.65 674.98 739.30 684.96 763.39 693.76 C 763.67 684.51 763.46 675.25 763.52 666.00 C 763.46 618.68 763.64 571.36 763.42 524.04 C 755.18 525.64 747.56 529.36 739.64 532.02 M 407.42 692.99 C 405.93 696.83 406.50 700.98 406.45 705.00 C 406.51 757.34 406.38 809.67 406.51 862.01 C 412.21 860.97 417.42 858.39 422.76 856.25 C 445.88 847.42 468.90 838.33 492.00 829.44 C 498.53 826.71 505.40 824.82 511.70 821.55 C 511.49 790.98 511.80 760.41 511.55 729.84 C 496.37 724.99 481.55 719.08 466.46 713.96 C 446.79 706.95 427.14 699.86 407.42 692.99 M 584.72 711.41 C 575.63 714.92 566.13 717.35 557.32 721.56 C 557.34 758.43 557.25 795.30 557.36 832.17 C 578.62 840.56 599.98 848.68 621.22 857.13 C 626.17 859.02 631.01 861.48 636.37 862.04 C 636.65 808.02 636.37 754.00 636.53 699.98 C 636.58 697.65 636.19 695.35 635.64 693.11 C 618.80 699.58 601.64 705.18 584.72 711.41 M 372.39 698.85 C 351.77 706.18 331.14 713.48 310.52 720.83 C 310.24 757.70 310.40 794.58 310.44 831.45 C 329.74 839.58 349.47 846.67 368.90 854.48 C 375.79 856.99 382.41 860.27 389.55 862.05 C 389.71 858.36 389.75 854.68 389.73 851.00 C 389.65 798.60 389.83 746.19 389.65 693.78 C 383.58 694.26 378.09 696.98 372.39 698.85 M 653.38 693.77 C 653.07 709.51 653.34 725.26 653.26 741.00 C 653.34 781.39 653.09 821.77 653.38 862.15 C 660.71 860.79 667.32 857.22 674.29 854.71 C 695.46 846.66 716.51 838.31 737.67 830.22 C 744.61 827.21 752.04 825.31 758.61 821.48 C 758.32 791.25 758.58 761.00 758.48 730.76 C 726.07 718.54 693.23 707.45 660.67 695.64 C 658.31 694.75 655.83 694.26 653.38 693.77 Z" />
<path fill="#764a96" opacity="1.00" d=" M 360.33 378.23 C 367.25 375.78 374.41 374.02 381.50 372.13 C 381.83 395.75 381.53 419.37 381.64 443.00 C 381.54 463.62 381.82 484.25 381.50 504.87 C 373.74 502.75 366.07 500.28 358.50 497.56 C 358.46 459.06 358.51 420.56 358.48 382.06 C 358.56 380.59 358.39 378.47 360.33 378.23 Z" />
<path fill="#764a96" opacity="1.00" d=" M 605.37 379.60 C 612.39 376.17 620.16 374.71 627.69 372.80 C 627.84 416.51 627.81 460.23 627.71 503.94 C 621.18 503.96 615.09 501.40 609.02 499.33 C 607.13 498.73 604.92 497.41 605.42 495.09 C 605.39 456.60 605.50 418.10 605.37 379.60 Z" />
<path fill="#764a96" opacity="1.00" d=" M 335.73 385.18 C 340.82 382.99 346.29 381.87 351.58 380.25 C 352.05 382.45 352.44 384.69 352.42 386.96 C 352.32 421.31 352.38 455.67 352.38 490.03 C 352.38 492.00 352.02 493.94 351.67 495.88 C 345.74 493.86 339.76 491.95 333.79 490.05 C 333.74 456.65 333.79 423.26 333.76 389.86 C 333.96 388.20 333.75 385.79 335.73 385.18 Z" />
<path fill="#764a96" opacity="1.00" d=" M 580.86 386.65 C 586.09 383.32 592.49 382.23 598.50 381.06 C 598.60 419.47 598.64 457.88 598.48 496.29 C 592.50 494.42 586.51 492.60 580.68 490.33 C 580.60 460.55 580.66 430.77 580.64 401.00 C 580.79 396.22 580.20 391.40 580.86 386.65 Z" />
<path fill="#764a96" opacity="1.00" d=" M 562.30 392.40 C 565.71 390.55 569.25 388.61 573.20 388.29 C 575.12 389.01 574.33 391.30 574.57 392.88 C 574.50 424.55 574.61 456.22 574.51 487.89 C 570.18 487.90 566.02 486.66 562.31 484.49 C 562.44 453.79 562.45 423.09 562.30 392.40 Z" />
<path fill="#764a96" opacity="1.00" d=" M 315.49 392.66 C 319.08 390.12 323.22 388.53 327.57 387.93 C 327.63 421.26 327.77 454.61 327.50 487.95 C 323.29 487.45 319.32 485.93 315.50 484.16 C 315.60 453.66 315.68 423.16 315.49 392.66 Z" />
<path fill="#764a96" opacity="1.00" d=" M 496.56 546.91 C 502.43 545.40 508.14 543.10 514.19 542.41 C 514.30 586.78 514.31 631.15 514.18 675.51 C 506.42 673.31 498.77 670.74 491.05 668.42 C 490.43 663.97 490.57 659.47 490.59 655.00 C 490.63 620.64 490.55 586.28 490.62 551.92 C 490.12 548.43 494.06 547.68 496.56 546.91 Z" />
<path fill="#764a96" opacity="1.00" d=" M 739.98 546.76 C 745.10 545.39 750.12 543.41 755.46 543.07 C 755.47 587.01 755.48 630.95 755.45 674.89 C 748.11 674.24 741.22 671.35 734.26 669.13 C 732.31 668.78 731.51 666.90 731.70 665.10 C 731.70 628.03 731.74 590.95 731.68 553.87 C 731.69 552.38 731.77 550.82 732.63 549.55 C 734.86 548.13 737.48 547.54 739.98 546.76 Z" />
<path fill="#764a96" opacity="1.00" d=" M 244.53 549.68 C 252.06 546.90 259.79 544.64 267.60 542.80 C 267.66 586.87 267.78 630.96 267.51 675.03 C 259.61 673.70 252.20 670.52 244.54 668.29 C 244.51 628.75 244.54 589.22 244.53 549.68 Z" />
<path fill="#764a96" opacity="1.00" d=" M 222.17 555.63 C 227.31 553.23 232.89 552.00 238.30 550.37 C 238.42 589.09 238.46 627.80 238.29 666.52 C 232.80 664.77 227.16 663.35 221.95 660.86 C 219.75 659.92 219.91 657.09 219.74 655.10 C 219.77 624.03 219.77 592.95 219.74 561.88 C 219.97 559.72 219.70 556.55 222.17 555.63 Z" />
<path fill="#764a96" opacity="1.00" d=" M 708.33 556.51 C 713.69 553.88 719.37 551.66 725.37 551.09 C 725.52 589.36 725.53 627.64 725.37 665.92 C 719.46 664.94 713.84 662.76 708.34 660.44 C 708.39 625.80 708.43 591.15 708.33 556.51 Z" />
<path fill="#764a96" opacity="1.00" d=" M 466.42 555.65 C 472.04 553.83 477.65 551.85 483.54 551.03 C 483.63 589.01 483.59 626.99 483.55 664.97 C 477.56 664.75 471.96 662.48 466.41 660.44 C 466.29 625.51 466.30 590.58 466.42 555.65 Z" />
<path fill="#764a96" opacity="1.00" d=" M 447.46 561.81 C 451.28 559.81 455.37 558.47 459.49 557.25 C 460.72 575.14 460.22 593.08 460.30 611.00 C 460.32 624.01 460.30 637.01 460.32 650.02 C 460.33 652.73 459.88 655.41 459.50 658.09 C 455.38 657.15 450.30 656.81 447.60 653.13 C 447.31 622.70 447.58 592.25 447.46 561.81 Z" />
<path fill="#764a96" opacity="1.00" d=" M 688.77 561.98 C 693.14 560.24 697.58 558.67 702.18 557.65 C 702.32 591.56 702.22 625.46 702.23 659.37 C 697.56 658.12 692.91 656.70 688.69 654.32 C 688.70 623.54 688.55 592.76 688.77 561.98 Z" />
<path fill="#764a96" opacity="1.00" d=" M 201.56 562.40 C 205.26 560.25 209.30 558.72 213.54 558.11 C 213.68 591.74 213.73 625.38 213.50 659.01 C 209.48 657.60 204.40 657.03 201.70 653.49 C 201.36 623.14 201.67 592.76 201.56 562.40 Z" />
<path fill="#764a96" opacity="1.00" d=" M 358.67 717.88 C 366.60 715.94 374.18 712.65 382.29 711.41 C 382.35 755.52 382.35 799.64 382.29 843.76 C 377.37 843.52 372.77 841.65 368.09 840.31 C 365.03 839.32 361.85 838.60 359.01 837.07 C 358.23 835.55 358.59 833.73 358.47 832.10 C 358.65 794.02 358.28 755.94 358.67 717.88 Z" />
<path fill="#764a96" opacity="1.00" d=" M 607.24 717.86 C 614.20 715.57 621.22 713.42 628.28 711.45 C 628.60 714.28 629.16 717.10 629.25 719.96 C 629.21 761.52 629.26 803.07 629.23 844.63 C 620.85 842.97 612.74 840.20 604.78 837.17 C 604.64 799.07 604.81 760.97 604.69 722.86 C 604.63 720.92 604.97 718.34 607.24 717.86 Z" />
<path fill="#764a96" opacity="1.00" d=" M 334.48 725.09 C 340.22 722.63 346.36 721.35 352.29 719.45 C 352.46 757.95 352.48 796.45 352.29 834.95 C 347.32 834.10 342.45 832.63 337.76 830.79 C 336.15 830.13 334.10 829.00 334.49 826.94 C 334.46 792.99 334.49 759.04 334.48 725.09 Z" />
<path fill="#764a96" opacity="1.00" d=" M 580.64 725.70 C 586.38 723.08 592.51 721.50 598.46 719.44 C 598.76 742.29 598.52 765.14 598.60 788.00 C 598.49 803.91 598.80 819.83 598.44 835.75 C 592.55 833.65 586.32 832.19 580.90 829.00 C 580.31 825.36 580.67 821.65 580.60 817.99 C 580.64 787.23 580.57 756.46 580.64 725.70 Z" />
<path fill="#764a96" opacity="1.00" d=" M 315.66 730.77 C 319.67 729.09 323.79 727.31 328.22 727.34 C 328.41 753.89 328.26 780.44 328.31 807.00 C 328.20 814.04 328.82 821.15 327.37 828.11 C 323.37 826.79 319.42 825.32 315.56 823.63 C 315.61 792.68 315.41 761.72 315.66 730.77 Z" />
<path fill="#764a96" opacity="1.00" d=" M 562.30 731.55 C 565.91 729.65 569.75 728.28 573.61 726.99 C 574.17 728.90 574.61 730.86 574.56 732.88 C 574.50 759.92 574.55 786.96 574.54 814.00 C 574.45 818.71 575.06 823.54 573.71 828.15 C 569.77 826.96 565.95 825.41 562.36 823.42 C 562.37 792.80 562.50 762.17 562.30 731.55 Z" />
</g>
</svg>
