<?xml version="1.0" encoding="UTF-8" ?>
<!DOCTYPE svg PUBLIC "-//W3C//DTD SVG 1.1//EN" "http://www.w3.org/Graphics/SVG/1.1/DTD/svg11.dtd">
<svg width="768pt" height="768pt" viewBox="0 0 768 768" version="1.1" xmlns="http://www.w3.org/2000/svg">
<g id="#5583edff">
<path fill="#5583ed" opacity="1.00" d=" M 167.01 76.27 C 178.89 55.61 202.15 42.17 225.98 42.24 C 328.66 42.21 431.33 42.23 534.01 42.22 C 540.37 42.25 546.78 41.99 553.07 43.19 C 570.61 46.11 586.89 56.15 597.27 70.61 C 601.29 76.20 604.43 82.36 607.94 88.27 C 658.07 175.10 708.20 261.92 758.32 348.76 C 763.90 358.21 767.13 368.96 768.00 379.89 L 768.00 385.65 C 767.79 394.16 765.94 402.61 762.69 410.47 C 760.31 416.20 756.99 421.46 753.93 426.84 C 744.34 443.47 734.74 460.09 725.14 476.71 C 721.16 474.14 717.96 470.65 714.70 467.27 C 673.54 426.15 632.39 385.01 591.23 343.88 C 578.71 331.70 566.90 318.79 553.82 307.21 C 549.62 303.32 546.15 298.59 541.12 295.68 C 539.35 292.62 537.25 289.61 534.05 287.91 C 488.86 261.77 443.63 235.70 398.42 209.58 C 393.92 207.05 389.42 203.73 384.03 203.72 C 378.89 203.67 374.55 206.74 370.29 209.20 C 325.04 235.32 279.80 261.46 234.54 287.57 C 231.45 289.31 228.71 291.85 227.31 295.16 C 225.36 299.15 225.68 303.69 225.69 308.00 C 225.74 360.68 225.63 413.36 225.73 466.04 C 225.73 472.47 229.83 478.23 235.50 481.04 C 235.84 483.46 237.57 485.22 239.28 486.81 C 249.14 496.26 258.29 506.46 268.67 515.35 C 299.75 546.63 331.14 577.60 362.01 609.07 C 388.11 634.60 413.68 660.68 439.55 686.44 C 445.57 692.12 451.17 698.21 457.04 704.04 C 464.04 711.33 471.44 718.23 478.19 725.75 C 394.12 725.74 310.06 725.77 225.99 725.74 C 202.20 725.79 178.96 712.41 167.07 691.79 C 114.56 600.94 62.13 510.05 9.65 419.18 C 3.86 409.29 0.45 398.01 0.00 386.55 L 0.00 382.28 C 0.23 369.73 4.27 357.45 10.81 346.79 C 62.89 256.62 114.90 166.42 167.01 76.27 Z" />
</g>
<g id="#ffffffff">
<path fill="#ffffff" opacity="1.00" d=" M 370.29 209.20 C 374.55 206.74 378.89 203.67 384.03 203.72 C 389.42 203.73 393.92 207.05 398.42 209.58 C 443.63 235.70 488.86 261.77 534.05 287.91 C 537.25 289.61 539.35 292.62 541.12 295.68 C 542.60 300.31 542.34 305.20 542.30 309.99 C 542.30 361.66 542.30 413.32 542.30 464.99 C 542.45 471.01 539.43 477.12 534.07 480.07 C 488.24 506.60 442.34 533.01 396.51 559.53 C 392.40 561.98 387.96 564.64 382.99 564.23 C 377.72 563.84 373.44 560.48 368.97 558.02 C 324.47 532.38 280.05 506.60 235.50 481.04 C 229.83 478.23 225.73 472.47 225.73 466.04 C 225.63 413.36 225.74 360.68 225.69 308.00 C 225.68 303.69 225.36 299.15 227.31 295.16 C 228.71 291.85 231.45 289.31 234.54 287.57 C 279.80 261.46 325.04 235.32 370.29 209.20 M 372.52 239.73 C 332.82 262.77 292.98 285.58 253.29 308.65 C 253.46 355.81 253.23 402.97 253.41 450.13 C 269.98 440.91 286.27 431.20 302.75 421.80 C 302.89 396.83 302.72 371.85 302.83 346.88 C 304.13 347.27 305.45 347.68 306.63 348.41 C 329.76 361.97 353.15 375.10 376.22 388.77 C 376.17 416.76 376.20 444.76 376.20 472.76 C 372.93 471.56 370.11 469.49 367.07 467.86 C 348.37 457.01 329.59 446.28 310.91 435.38 C 294.30 444.85 277.81 454.52 261.21 464.01 C 302.19 487.50 342.95 511.40 384.01 534.71 C 390.49 531.43 396.62 527.46 402.98 523.95 C 437.48 503.91 472.17 484.21 506.55 463.98 C 490.16 454.30 473.62 444.85 457.10 435.38 C 435.42 447.94 413.80 460.63 391.95 472.89 C 391.59 444.87 391.94 416.83 391.77 388.79 C 414.87 375.14 438.26 361.98 461.41 348.42 C 462.57 347.70 463.88 347.29 465.18 346.87 C 465.27 371.84 465.12 396.80 465.25 421.77 C 481.72 431.18 498.03 440.88 514.60 450.12 C 514.72 419.07 514.62 388.03 514.65 356.99 C 514.49 340.72 514.96 324.42 514.41 308.17 C 510.94 306.59 507.75 304.48 504.42 302.62 C 467.84 281.51 431.25 260.39 394.68 239.26 C 393.95 238.98 392.50 238.42 391.78 238.14 C 391.85 256.84 391.72 275.54 391.84 294.23 C 392.04 294.49 392.42 294.99 392.62 295.24 C 413.98 307.91 435.77 319.87 457.01 332.73 C 432.66 346.73 408.39 360.87 384.01 374.81 C 359.64 360.83 335.35 346.72 311.00 332.71 C 332.07 320.10 353.52 308.10 374.73 295.72 C 375.84 295.19 376.34 294.32 376.21 293.10 C 376.20 274.77 376.19 256.45 376.21 238.13 C 374.92 238.53 373.69 239.06 372.52 239.73 Z" />
</g>
<g id="#4f7ad8ff">
<path fill="#4f7ad8" opacity="1.00" d=" M 372.52 239.73 C 373.69 239.06 374.92 238.53 376.21 238.13 C 376.19 256.45 376.20 274.77 376.21 293.10 C 376.34 294.32 375.84 295.19 374.73 295.72 C 353.52 308.10 332.07 320.10 311.00 332.71 C 335.35 346.72 359.64 360.83 384.01 374.81 C 408.39 360.87 432.66 346.73 457.01 332.73 C 435.77 319.87 413.98 307.91 392.62 295.24 C 392.42 294.99 392.04 294.49 391.84 294.23 C 391.72 275.54 391.85 256.84 391.78 238.14 C 392.50 238.42 393.95 238.98 394.68 239.26 C 431.25 260.39 467.84 281.51 504.42 302.62 C 507.75 304.48 510.94 306.59 514.41 308.17 C 514.96 324.42 514.49 340.72 514.65 356.99 C 514.62 388.03 514.72 419.07 514.60 450.12 C 498.03 440.88 481.72 431.18 465.25 421.77 C 465.12 396.80 465.27 371.84 465.18 346.87 C 463.88 347.29 462.57 347.70 461.41 348.42 C 438.26 361.98 414.87 375.14 391.77 388.79 C 391.94 416.83 391.59 444.87 391.95 472.89 C 413.80 460.63 435.42 447.94 457.10 435.38 C 473.62 444.85 490.16 454.30 506.55 463.98 C 472.17 484.21 437.48 503.91 402.98 523.95 C 396.62 527.46 390.49 531.43 384.01 534.71 C 342.95 511.40 302.19 487.50 261.21 464.01 C 277.81 454.52 294.30 444.85 310.91 435.38 C 329.59 446.28 348.37 457.01 367.07 467.86 C 370.11 469.49 372.93 471.56 376.20 472.76 C 376.20 444.76 376.17 416.76 376.22 388.77 C 353.15 375.10 329.76 361.97 306.63 348.41 C 305.45 347.68 304.13 347.27 302.83 346.88 C 302.72 371.85 302.89 396.83 302.75 421.80 C 286.27 431.20 269.98 440.91 253.41 450.13 C 253.23 402.97 253.46 355.81 253.29 308.65 C 292.98 285.58 332.82 262.77 372.52 239.73 Z" />
<path fill="#4f7ad8" opacity="1.00" d=" M 541.12 295.68 C 546.15 298.59 549.62 303.32 553.82 307.21 C 566.90 318.79 578.71 331.70 591.23 343.88 C 632.39 385.01 673.54 426.15 714.70 467.27 C 717.96 470.65 721.16 474.14 725.14 476.71 C 685.70 545.07 646.22 613.41 606.76 681.76 C 603.21 687.80 599.99 694.09 595.60 699.58 C 582.95 715.81 562.63 725.76 542.05 725.74 C 520.76 725.77 499.48 725.75 478.19 725.75 C 471.44 718.23 464.04 711.33 457.04 704.04 C 451.17 698.21 445.57 692.12 439.55 686.44 C 413.68 660.68 388.11 634.60 362.01 609.07 C 331.14 577.60 299.75 546.63 268.67 515.35 C 258.29 506.46 249.14 496.26 239.28 486.81 C 237.57 485.22 235.84 483.46 235.50 481.04 C 280.05 506.60 324.47 532.38 368.97 558.02 C 373.44 560.48 377.72 563.84 382.99 564.23 C 387.96 564.64 392.40 561.98 396.51 559.53 C 442.34 533.01 488.24 506.60 534.07 480.07 C 539.43 477.12 542.45 471.01 542.30 464.99 C 542.30 413.32 542.30 361.66 542.30 309.99 C 542.34 305.20 542.60 300.31 541.12 295.68 Z" />
</g>
</svg>
