<?xml version="1.0" encoding="UTF-8" ?>
<!DOCTYPE svg PUBLIC "-//W3C//DTD SVG 1.1//EN" "http://www.w3.org/Graphics/SVG/1.1/DTD/svg11.dtd">
<svg width="1200pt" height="1165pt" viewBox="0 0 1200 1165" version="1.1" xmlns="http://www.w3.org/2000/svg">
<g id="#416cdeff">
<path fill="#416cde" opacity="1.00" d=" M 584.50 1.65 C 606.22 -1.91 628.86 1.82 648.65 11.29 C 773.68 71.29 898.69 131.29 1023.72 191.29 C 1033.89 196.29 1044.46 200.66 1053.75 207.26 C 1076.90 223.05 1093.12 248.18 1098.74 275.57 C 1130.88 415.21 1163.09 554.84 1195.20 694.49 C 1200.39 718.48 1197.38 744.22 1186.39 766.21 C 1180.39 778.92 1170.84 789.36 1162.19 800.28 C 1075.39 908.10 988.60 1015.94 901.78 1123.75 C 881.26 1149.27 848.63 1164.12 815.97 1163.67 C 671.64 1163.66 527.30 1163.67 382.96 1163.66 C 349.18 1163.88 315.79 1147.53 295.55 1120.44 C 206.07 1009.28 116.57 898.13 27.09 786.97 C 12.05 768.42 3.01 744.97 2.38 721.04 C 2.04 710.77 3.25 700.48 5.69 690.50 C 37.67 551.69 69.64 412.88 101.61 274.07 C 105.00 258.89 111.47 244.37 120.76 231.89 C 131.44 217.43 145.83 205.81 162.05 198.12 C 283.38 140.12 404.72 82.12 526.05 24.13 C 544.97 15.32 563.49 4.54 584.50 1.65 M 587.54 37.78 C 579.44 39.16 571.36 41.25 564.04 45.06 C 434.80 106.85 305.54 168.61 176.30 230.40 C 160.16 238.19 147.50 252.47 140.92 269.08 C 137.98 276.13 136.64 283.68 134.88 291.08 C 103.64 426.70 72.40 562.32 41.16 697.93 C 36.74 716.89 39.86 737.48 49.74 754.26 C 53.53 760.90 58.71 766.58 63.41 772.56 C 151.13 881.53 238.86 990.50 326.58 1099.47 C 338.39 1114.25 356.25 1123.84 374.99 1126.03 C 384.28 1127.05 393.66 1126.39 402.99 1126.58 C 541.00 1126.58 679.02 1126.59 817.03 1126.58 C 840.20 1126.89 863.21 1115.70 876.96 1097.00 C 966.90 985.27 1056.84 873.55 1146.78 761.82 C 1157.80 748.18 1163.65 730.44 1162.68 712.91 C 1162.40 705.07 1160.22 697.50 1158.53 689.90 C 1126.75 552.09 1095.12 414.25 1063.25 276.46 C 1057.35 254.70 1040.49 236.82 1020.00 227.89 C 891.09 166.54 762.20 105.17 633.29 43.81 C 619.15 37.09 602.94 35.15 587.54 37.78 Z" />
<path fill="#416cde" opacity="1.00" d=" M 564.89 365.70 C 568.12 349.54 583.55 336.74 599.98 336.36 C 614.03 336.18 627.04 345.71 632.55 358.40 C 636.66 367.01 636.26 376.79 635.85 386.07 C 634.54 395.58 633.14 405.11 630.69 414.39 C 628.80 436.51 625.63 458.66 626.63 480.92 C 626.70 486.77 629.84 492.09 634.13 495.89 C 635.73 497.74 638.53 499.14 638.52 501.91 C 638.88 506.32 639.12 510.74 639.53 515.14 C 674.21 518.42 708.55 525.46 741.61 536.45 C 773.49 546.84 804.18 560.84 833.05 577.89 C 854.38 590.68 875.13 604.68 893.68 621.31 C 906.30 632.16 918.51 643.51 929.99 655.57 C 934.78 652.71 939.14 649.16 944.04 646.48 C 948.03 646.55 951.99 648.27 956.02 647.26 C 962.92 645.89 968.06 640.64 973.58 636.67 C 988.92 624.78 1002.03 610.41 1015.83 596.84 C 1023.29 587.86 1031.30 579.31 1040.38 571.92 C 1048.80 564.98 1059.85 560.54 1070.89 561.83 C 1080.98 562.82 1090.73 568.41 1095.80 577.35 C 1104.75 592.01 1100.53 611.91 1088.73 623.72 C 1075.58 638.26 1056.48 644.73 1040.43 655.26 C 1025.28 664.57 1009.96 673.85 996.58 685.64 C 990.58 690.88 989.01 699.22 989.09 706.82 C 985.41 710.40 981.41 713.64 977.71 717.20 C 992.61 740.45 1005.75 764.82 1016.72 790.17 C 994.32 818.65 971.76 847.02 949.08 875.28 C 940.12 842.30 926.86 810.39 909.04 781.19 C 865.13 820.56 821.38 860.09 777.53 899.52 C 772.02 904.69 765.22 909.22 762.69 916.73 C 756.41 932.44 765.78 952.01 781.93 957.03 C 809.61 965.12 837.35 973.04 865.09 980.96 C 853.33 996.18 841.17 1011.11 829.27 1026.22 C 818.15 1040.58 801.70 1050.79 783.77 1053.91 C 774.28 1055.62 764.60 1054.78 755.02 1054.99 C 650.01 1055.23 545.00 1055.31 440.00 1055.59 C 433.62 1055.59 427.22 1055.79 420.90 1054.82 C 403.37 1052.38 386.88 1043.20 375.66 1029.50 C 362.18 1012.89 348.70 996.28 335.24 979.65 C 360.16 972.38 385.09 965.18 410.01 957.93 C 414.44 956.58 419.19 955.81 423.06 953.10 C 433.99 945.28 439.09 930.17 434.70 917.38 C 433.07 912.25 429.88 907.70 425.80 904.23 C 379.63 863.26 333.65 822.09 287.44 781.18 C 270.14 809.40 257.09 840.12 247.87 871.89 C 225.79 844.70 203.74 817.48 181.68 790.27 C 190.95 767.91 202.08 746.32 214.86 725.77 C 217.13 721.65 219.45 717.54 222.29 713.78 C 218.71 709.96 214.19 707.07 210.93 702.98 C 210.84 696.27 210.61 688.66 205.19 683.83 C 188.56 668.45 168.49 657.61 149.51 645.49 C 146.03 643.06 141.95 641.77 138.27 639.72 C 132.33 636.48 126.52 632.99 121.00 629.08 C 118.84 626.78 116.10 625.27 113.50 623.56 C 104.38 615.46 98.83 603.26 99.42 591.01 C 99.77 582.09 103.80 573.34 110.47 567.40 C 121.05 558.18 137.05 557.06 149.52 562.95 C 155.57 565.32 159.80 570.37 164.88 574.18 C 172.42 580.29 178.10 588.27 185.19 594.85 C 200.62 611.39 216.11 628.16 234.45 641.56 C 238.56 644.60 243.69 647.23 248.94 646.02 C 251.60 645.80 254.61 644.32 257.07 645.92 C 260.72 648.23 264.06 650.99 267.75 653.24 C 317.50 600.71 379.99 560.32 448.53 537.06 C 466.67 530.90 485.19 525.82 503.96 521.99 C 522.62 518.20 541.58 516.15 560.48 513.97 C 561.04 508.96 560.95 503.87 561.83 498.91 C 566.18 494.09 572.03 489.81 573.01 482.89 C 575.55 465.30 572.79 447.53 570.98 429.99 C 570.01 421.28 569.45 412.44 566.86 404.02 C 564.71 397.23 563.91 390.09 563.97 382.99 C 564.02 377.22 563.64 371.38 564.89 365.70 M 516.14 616.29 C 451.12 630.90 390.33 664.10 343.30 711.38 C 393.66 747.47 444.15 783.37 494.54 819.42 C 504.72 827.79 520.61 826.72 530.67 818.68 C 538.19 812.81 542.74 803.50 543.12 794.01 C 546.59 732.46 550.03 670.91 553.52 609.37 C 541.02 611.40 528.60 614.00 516.14 616.29 M 644.16 610.48 C 647.67 673.25 651.06 736.03 654.61 798.80 C 656.39 815.72 675.21 827.34 691.34 823.41 C 698.56 822.07 704.15 817.08 710.01 813.05 C 757.73 779.17 805.47 745.34 853.17 711.45 C 797.64 655.41 722.57 619.21 644.16 610.48 Z" />
</g>
<g id="#cfe8ebff">
<path fill="#cfe8eb" opacity="1.00" d=" M 149.52 365.00 C 297.80 279.50 446.07 193.98 594.34 108.48 C 743.04 193.91 891.72 279.36 1040.43 364.78 C 950.73 416.32 861.10 467.96 771.43 519.54 C 761.46 525.12 751.75 531.18 741.61 536.45 C 708.55 525.46 674.21 518.42 639.53 515.14 C 639.12 510.74 638.88 506.32 638.52 501.91 C 638.53 499.14 635.73 497.74 634.13 495.89 C 629.84 492.09 626.70 486.77 626.63 480.92 C 625.63 458.66 628.80 436.51 630.69 414.39 C 633.14 405.11 634.54 395.58 635.85 386.07 C 636.26 376.79 636.66 367.01 632.55 358.40 C 627.04 345.71 614.03 336.18 599.98 336.36 C 583.55 336.74 568.12 349.54 564.89 365.70 C 563.64 371.38 564.02 377.22 563.97 382.99 C 563.91 390.09 564.71 397.23 566.86 404.02 C 569.45 412.44 570.01 421.28 570.98 429.99 C 572.79 447.53 575.55 465.30 573.01 482.89 C 572.03 489.81 566.18 494.09 561.83 498.91 C 560.95 503.87 561.04 508.96 560.48 513.97 C 541.58 516.15 522.62 518.20 503.96 521.99 C 485.19 525.82 466.67 530.90 448.53 537.06 C 348.87 479.69 249.22 422.30 149.52 365.00 Z" />
</g>
<g id="#5bbcccff">
<path fill="#5bbccc" opacity="1.00" d=" M 771.43 519.54 C 861.10 467.96 950.73 416.32 1040.43 364.78 C 1040.42 433.83 1040.50 502.87 1040.38 571.92 C 1031.30 579.31 1023.29 587.86 1015.83 596.84 C 1002.03 610.41 988.92 624.78 973.58 636.67 C 968.06 640.64 962.92 645.89 956.02 647.26 C 951.99 648.27 948.03 646.55 944.04 646.48 C 939.14 649.16 934.78 652.71 929.99 655.57 C 918.51 643.51 906.30 632.16 893.68 621.31 C 875.13 604.68 854.38 590.68 833.05 577.89 C 804.18 560.84 773.49 546.84 741.61 536.45 C 751.75 531.18 761.46 525.12 771.43 519.54 Z" />
<path fill="#5bbccc" opacity="1.00" d=" M 149.52 365.00 C 249.22 422.30 348.87 479.69 448.53 537.06 C 379.99 560.32 317.50 600.71 267.75 653.24 C 264.06 650.99 260.72 648.23 257.07 645.92 C 254.61 644.32 251.60 645.80 248.94 646.02 C 243.69 647.23 238.56 644.60 234.45 641.56 C 216.11 628.16 200.62 611.39 185.19 594.85 C 178.10 588.27 172.42 580.29 164.88 574.18 C 159.80 570.37 155.57 565.32 149.52 562.95 C 149.49 496.96 149.48 430.98 149.52 365.00 Z" />
<path fill="#5bbccc" opacity="1.00" d=" M 516.14 616.29 C 528.60 614.00 541.02 611.40 553.52 609.37 C 550.03 670.91 546.59 732.46 543.12 794.01 C 542.74 803.50 538.19 812.81 530.67 818.68 C 520.61 826.72 504.72 827.79 494.54 819.42 C 444.15 783.37 393.66 747.47 343.30 711.38 C 390.33 664.10 451.12 630.90 516.14 616.29 Z" />
<path fill="#5bbccc" opacity="1.00" d=" M 644.16 610.48 C 722.57 619.21 797.64 655.41 853.17 711.45 C 805.47 745.34 757.73 779.17 710.01 813.05 C 704.15 817.08 698.56 822.07 691.34 823.41 C 675.21 827.34 656.39 815.72 654.61 798.80 C 651.06 736.03 647.67 673.25 644.16 610.48 Z" />
<path fill="#5bbccc" opacity="1.00" d=" M 149.51 645.49 C 168.49 657.61 188.56 668.45 205.19 683.83 C 210.61 688.66 210.84 696.27 210.93 702.98 C 214.19 707.07 218.71 709.96 222.29 713.78 C 219.45 717.54 217.13 721.65 214.86 725.77 C 202.08 746.32 190.95 767.91 181.68 790.27 C 175.57 782.70 169.43 775.16 163.31 767.59 C 154.57 756.75 149.38 742.97 149.50 728.99 C 149.51 701.16 149.48 673.33 149.51 645.49 Z" />
<path fill="#5bbccc" opacity="1.00" d=" M 996.58 685.64 C 1009.96 673.85 1025.28 664.57 1040.43 655.26 C 1040.43 684.17 1040.46 713.08 1040.42 741.99 C 1040.08 750.24 1040.01 759.17 1035.46 766.38 C 1029.32 774.39 1022.83 782.13 1016.72 790.17 C 1005.75 764.82 992.61 740.45 977.71 717.20 C 981.41 713.64 985.41 710.40 989.09 706.82 C 989.01 699.22 990.58 690.88 996.58 685.64 Z" />
<path fill="#5bbccc" opacity="1.00" d=" M 287.44 781.18 C 333.65 822.09 379.63 863.26 425.80 904.23 C 429.88 907.70 433.07 912.25 434.70 917.38 C 439.09 930.17 433.99 945.28 423.06 953.10 C 419.19 955.81 414.44 956.58 410.01 957.93 C 385.09 965.18 360.16 972.38 335.24 979.65 C 306.13 943.72 276.99 907.81 247.87 871.89 C 257.09 840.12 270.14 809.40 287.44 781.18 Z" />
<path fill="#5bbccc" opacity="1.00" d=" M 777.53 899.52 C 821.38 860.09 865.13 820.56 909.04 781.19 C 926.86 810.39 940.12 842.30 949.08 875.28 C 920.99 910.43 893.00 945.67 865.09 980.96 C 837.35 973.04 809.61 965.12 781.93 957.03 C 765.78 952.01 756.41 932.44 762.69 916.73 C 765.22 909.22 772.02 904.69 777.53 899.52 Z" />
</g>
</svg>
