<svg width="1024" height="1024" viewBox="0 0 1024 1024" fill="none" xmlns="http://www.w3.org/2000/svg">
<g clip-path="url(#clip0_42_1064)">
<path opacity="0.55" d="M507.378 88.2073C529.911 84.9772 552.803 84.5516 575.462 86.5729C579.563 87.2692 583.925 86.8824 587.803 88.5555C559.631 85.2963 531.082 85.4317 502.997 89.4452C504.157 88.333 505.908 88.5265 507.378 88.2073Z" fill="#0E0E0E"/>
<path d="M502.997 89.4445C531.082 85.431 559.631 85.2956 587.803 88.5547C597.832 89.5122 607.774 91.6592 617.464 94.3864C621.739 96.0209 626.12 97.4135 630.636 98.2066C666.729 109.299 700.655 128.235 728.063 154.338C744.195 169.879 757.831 187.955 768.837 207.452C769.794 208.999 770.616 210.827 772.299 211.736C798.827 223.293 822.754 240.363 843.343 260.624C865.045 282.577 882.918 308.283 896.341 336.059C899.146 343.447 902.434 350.681 906.051 357.703C909.078 364.811 911.786 372.122 913.865 379.569C915.722 387.761 918.904 396.136 916.747 404.627C915.287 409.018 912.115 412.993 907.898 415.004C901.622 417.644 894.958 419.221 888.711 421.929C873.401 427.422 858.547 434.637 845.703 444.714C841.893 447.47 838.46 450.691 834.813 453.64C833.16 454.965 830.752 456.242 831.206 458.776C831.815 478.137 833.247 497.451 833.711 516.822C834.678 528.766 834.407 540.758 835.239 552.702C835.993 591.367 837.067 630.09 834.572 668.717C834.03 681.26 832.125 693.688 830.665 706.135C830.065 710.951 829.011 715.709 827.86 720.429C827.618 721.454 827.357 722.672 828.063 723.601C833.924 733.359 838.798 743.678 844.968 753.252C855.452 769.384 867.318 784.867 882.018 797.411C887.792 802.991 894.475 807.488 900.732 812.498C904.765 815.486 908.198 820.041 907.792 825.322C907.531 832.072 901.254 836.724 895.316 838.62C870.664 847.73 844.001 848.513 818.044 847.353H818.034C809.707 846.289 801.458 844.857 793.179 843.533C787.589 842.546 782.202 840.67 776.941 838.62C775.858 838.184 774.698 838.155 773.586 838.059C770.81 850.196 767.328 862.169 764.475 874.287C761.4 885.389 759.649 897.043 754.272 907.352C749.91 915.534 741.651 920.689 733.334 924.171C719.398 930.012 704.543 933.803 689.524 935.36C683.712 935.408 677.986 936.492 672.193 936.656C660.356 937.671 648.499 936.424 636.71 935.408C626.545 934.122 616.381 931.24 607.609 925.824C601.884 922.207 596.913 916.878 594.969 910.283C593.896 904.606 593.876 898.793 595.105 893.136C595.443 891.511 596.342 889.886 595.859 888.204C593.905 878.871 590.192 870.031 587.242 860.999C586.894 859.616 586.565 858.242 586.255 856.879C563.847 857.208 541.401 857.952 519.002 856.56C518.867 856.927 518.606 857.662 518.47 858.03C517.552 865.834 515.056 873.329 513.103 880.921C510.443 889.886 508.528 899.287 503.645 907.391C499.38 914.229 491.546 917.517 484.177 919.828C476.372 921.84 468.442 923.252 460.511 924.644L459.825 924.751C444.912 926.259 429.96 927.788 414.95 927.691C408.713 927.739 402.475 927.613 396.237 927.652H396.217C385.424 926.724 374.622 925.815 363.974 923.726C355.444 922.033 346.972 916.337 344.487 907.643C342.649 900.544 343.8 893.194 346.488 886.492C348.152 882.507 351.227 879.374 353.49 875.747C348.616 860.06 343.732 844.326 340.666 828.165C339.786 822.208 338.21 816.376 336.846 810.515C336.517 808.146 334.322 806.966 332.533 805.776C324.844 800.148 318.568 792.798 312.862 785.225C301.121 769.732 293.684 751.289 289.332 732.459C288.007 724.722 286.286 717.053 285.444 709.249C284.67 703.901 284.564 698.485 283.626 693.175C283.336 691.289 283.113 689.394 283.229 687.508C284.119 674.433 282.891 661.27 284.371 648.224C284.641 641.899 285.618 635.642 285.812 629.326C285.135 629.181 283.79 628.891 283.123 628.746C278.752 627.566 274.535 625.825 270.425 623.959C265.696 621.435 260.86 619.075 255.86 617.15C241.905 610.187 229.564 600.39 218.181 589.82C201.16 573.456 186.808 554.23 176.238 533.108C166.093 531.59 155.89 524.801 153.017 514.569C151.944 509.868 151.963 505.033 153.046 500.342C152.872 500.091 152.514 499.578 152.331 499.327C150.039 496.609 147.698 493.756 146.837 490.226C146.46 488.331 146.199 486.406 145.609 484.569C138.346 483.727 131.141 482.151 124.304 479.559C119.333 477.499 114.275 475.11 110.648 471.01C108.607 467.867 106.509 464.569 106.093 460.758C105.232 456.145 107.089 451.677 108.569 447.412C114.903 436.406 127.157 430.072 139.294 427.644C147.659 426.523 156.209 425.962 164.603 427.122C173.713 428.389 182.785 429.83 191.808 431.619C192.572 425.159 194.584 418.94 197.611 413.196C201.547 407.171 207.446 402.277 214.294 399.956C219.816 398.679 225.638 398.418 231.16 399.888C236.953 401.88 241.276 407.287 242.417 413.263C244.371 420.73 241.247 429.085 245.415 436.039C251.121 445.836 261.315 451.609 270.86 457.074C271.905 457.528 272.968 457.973 274.052 458.389C271.876 448.138 271.237 437.567 273.007 427.199C274.264 420.807 276.614 414.608 279.825 408.94C280.599 407.848 280.26 406.503 279.612 405.459C275.26 397.151 271.344 388.399 269.941 379.057C268.375 370.246 266.982 361.358 267.098 352.393C266.943 348.264 267.369 344.124 267.05 340.004C265.28 337.935 262.166 337.403 259.912 335.875C259.351 335.208 258.82 334.502 258.481 333.699C257.746 328.032 257.591 322.287 257.814 316.581C257.91 313.061 260.551 309.521 264.226 309.27C273.171 308.689 282.156 309.434 291.102 308.902C293.268 307.596 292.611 304.357 293.268 302.248C298.897 279.279 307.059 256.978 316.285 235.227C327.688 208.535 343.307 183.545 363.258 162.413C391.962 132.5 428.364 109.996 467.987 97.7907C479.438 94.193 491.072 90.9435 502.997 89.4445ZM530.143 109.677C488.964 112.471 448.297 125.953 414.37 149.618C395.279 162.307 378.568 178.419 364.757 196.688C352.717 212.655 343.481 230.537 335.618 248.873C327.668 268.225 320.289 287.896 315.541 308.312C350.937 308.36 386.334 308.331 421.72 308.099C426.188 308.07 430.666 308.148 435.105 308.622C437.987 309.212 439.554 312.036 440.985 314.328C453.509 314.415 466.043 314.27 478.538 315.053C481.42 311.91 484.631 307.771 489.418 308.341C520.027 308.409 550.646 308.225 581.255 308.128C603.809 307.345 626.4 307.838 648.973 307.509C671.545 307.181 694.137 307.509 716.69 306.745C739.243 306.562 761.806 306.417 784.359 306.146C779.446 287.809 772.454 270.092 765.201 252.577C757.154 233.999 747.88 215.895 736.342 199.222C713.489 167.307 680.81 143.11 644.601 128.322C608.644 113.061 569.021 107.375 530.143 109.677ZM788.479 247.026C796.699 267.925 804.552 289.047 810.055 310.856C816.39 315.923 823.15 320.604 828.45 326.813C831.409 330.382 832.125 335.575 829.736 339.637C827.937 343.621 823.431 345.43 819.272 345.304C821.458 358.921 824.311 372.461 825.529 386.233C827.338 400.091 827.831 414.076 829.378 427.964C837.879 421.581 846.796 415.681 856.283 410.846C868.45 404.501 881.525 400.256 894.446 395.778C892.599 386.561 889.107 377.77 885.751 369.018C871.486 333.148 850.723 299.357 822.318 272.954C812.038 263.109 800.742 254.26 788.479 247.026ZM315.434 329.405C318.191 347.026 323.181 364.211 327.581 381.465C331.401 395.817 334.931 410.246 338.974 424.53C347.165 424.704 355.367 424.733 363.539 424.172C371.924 423.002 380.328 421.822 388.5 419.492C381.305 389.327 373.78 359.211 366.691 329.028C349.612 329.289 332.523 329.492 315.434 329.405ZM519.592 329.473C522.087 344.579 526.111 359.366 529.824 374.192C534.089 390.652 538.441 407.083 542.61 423.573C559.544 425.062 576.778 424.327 593.364 420.536C586.091 389.946 578.799 359.337 571.062 328.854C553.905 329.066 536.749 329.434 519.592 329.473ZM779.34 329.318C736.4 331.591 693.557 334.946 650.646 337.693C652.687 360.227 649.679 383.834 638.47 403.786C630.491 418.699 617.193 430.488 601.807 437.354C601.787 437.635 601.768 438.205 601.758 438.486L601.217 437.664C576.014 449.356 544.708 450.139 520.472 435.594C505.704 426.426 494.225 412.403 486.904 396.726C479.302 380.333 475.076 362.248 475.666 344.144C464.66 343.68 453.664 342.5 442.62 342.403C442.049 346.397 441.865 350.44 441.527 354.463C439.767 369.511 435.424 384.289 428.606 397.828C418.142 418.747 400.202 436.967 377.185 443.273C360.154 448.07 341.672 447.751 324.748 442.644C313.742 439.298 303.819 433.196 294.99 425.933C294.11 429.753 293.384 433.621 293.394 437.567C292.504 454.375 299.39 470.313 307.05 484.878C309.206 490.574 312.61 495.71 315.695 500.942C318.2 505.159 321.779 509.52 320.85 514.762C320.57 517.373 318.123 518.853 316.189 520.265C313.674 520.449 310.879 520.971 308.616 519.54C305.299 517.412 303.084 514.037 300.628 511.039C293.326 501.88 286.943 491.977 281.866 481.416C265.425 478.457 250.086 470.284 238.065 458.737C232.736 453.05 228.191 446.416 225.793 438.95C223.636 432.151 225.164 425.004 224.758 418.051C223.162 415.642 219.99 417.441 218.143 418.563C210.406 423.244 208.017 432.886 207.533 441.339C207.853 445.894 204.265 451.145 199.294 450.681C186.586 449.82 174.313 445.836 161.634 444.666C152.224 443.621 142.195 443.96 133.549 448.225C130.28 450.101 126.905 452.47 125.261 455.981C123.926 458.689 127.079 460.246 128.965 461.368C138.394 465.826 149.042 466.155 159.12 468.224C161.953 469.172 165.164 471.754 164.178 475.13C162.853 478.66 162.069 482.615 163.375 486.281C164.719 488.921 167.621 490.313 170.367 491.039C178.868 492.373 187.659 491.048 195.619 487.847C197.843 486.745 200.28 485.574 201.605 483.36C202.795 480.826 201.866 477.576 199.545 476C194.748 472.499 188.443 473.079 182.824 472.915C178.626 473.311 173.984 468.998 176.006 464.724C177.505 461.242 181.276 459.443 184.884 459.143C192.466 457.905 200.657 458.389 207.427 462.325C214.98 466.435 220 475.139 218.974 483.795C218.868 486.522 217.33 488.921 217.069 491.619C224.651 498.282 227.205 510.797 221.276 519.317C215.967 526.716 207.021 530.768 198.22 532.151C199.013 534.936 201.102 537.035 202.611 539.433C212.92 554.897 225.009 569.269 239.235 581.29C253.636 593.679 270.493 602.982 288.355 609.346C290.947 589.781 294.757 570.332 300.367 551.387C301.624 547.692 302.688 543.727 305.241 540.671C307.707 537.924 311.943 537.934 314.97 539.714L314.912 540.178C315.725 541.271 317.011 542.267 316.933 543.804C317.814 551.648 316.131 559.452 315.038 567.189C311.508 591 307.514 614.8 305.889 638.833C303.597 666.638 303.491 694.916 309.245 722.324C312.775 738.842 318.79 755.003 327.997 769.219C334.003 778.165 341.895 785.602 349.728 792.923C352.436 795.332 353.655 798.804 355.454 801.84C356.972 806.724 358.345 811.656 359.341 816.685C362.833 833.649 366.856 850.534 372.426 866.956C373.974 872.043 376.16 877.469 374.564 882.817C372.523 889.49 363.877 892.517 364.177 900.157C365.782 902.178 368.171 903.3 370.618 903.977C378.761 906.153 387.233 906.366 395.589 906.985C415.241 907.198 434.941 906.898 454.486 904.809C463.741 903.6 473.19 902.633 481.894 899.035C483.915 898.087 486.323 897.072 487.155 894.819C489.95 887.614 491.672 880.07 493.935 872.701C495.627 866.811 497.6 860.979 498.896 854.993C477.803 852.875 456.701 850.322 436.024 845.496C431.972 844.374 427.446 843.194 424.834 839.625C422.233 836.434 422.039 831.395 424.854 828.281C427.552 826.221 431.034 825.322 434.351 826.279C456.121 830.583 478.18 833.31 500.308 834.78C529.824 837.382 559.505 836.598 589.07 835.38C593.064 834.848 597.029 836.347 599.805 839.248C603.634 845.709 605.694 853.01 608.344 860.002C611.139 868.668 614.476 877.285 615.946 886.308C617.039 892.633 612.571 899.219 615.791 905.205C620.501 910.757 628.17 912.111 634.921 913.648C662.493 918.426 691.139 915.65 717.86 907.681C724.698 905.06 733.682 903.426 736.68 895.776C744.098 871.724 749.398 847.053 756.748 822.972C758.972 815.051 761.893 807.324 763.798 799.316C764.707 796.27 764.137 792.585 766.487 790.138C773.576 782.566 780.084 774.432 785.578 765.622C799.117 743.862 806.216 718.668 809.601 693.427C811.119 682.295 811.661 671.067 812.686 659.897C813.14 639.297 814.166 618.698 813.286 598.098C813.198 581.967 813.14 565.835 812.464 549.723C810.858 505.507 808.382 461.3 805.365 417.161C803.914 397.364 801.119 377.683 797.676 358.138C795.607 348.718 794.378 339.105 791.612 329.859C787.676 328.312 783.421 328.863 779.34 329.318ZM172.282 507.489C170.754 507.441 169.139 506.861 167.727 507.692C168.888 511.367 171.334 514.607 175 516.077C183.133 519.23 192.263 518.331 200.415 515.748C202.92 515.042 205.319 513.872 207.185 512.044C210.164 509.095 208.143 503.205 204.139 502.431C193.82 505.468 183.143 508.427 172.282 507.489ZM816.516 754.771C809.388 770.196 799.833 784.742 787.193 796.212C785.974 797.517 783.818 798.204 783.634 800.206C782.638 805.747 781.177 811.202 779.939 816.695C795.868 821.482 812.27 824.945 828.943 825.283C841.545 825.148 854.32 825.486 866.709 822.885C867.212 823.262 867.734 823.649 868.266 824.045C868.44 823.668 868.788 822.914 868.962 822.536C871.08 822.256 873.208 821.966 875.336 821.637C851.67 803.185 831.844 779.587 818.131 752.866C817.367 753.301 816.825 753.939 816.516 754.771Z" fill="black"/>
<path d="M450.192 414.956C458.48 413.583 467.223 414.695 474.621 418.805C487.91 425.798 497.145 438.447 503.606 451.697C509.418 464.424 513.741 478.583 511.391 492.683C510.221 502.886 504.06 512.606 494.882 517.403C477.919 526.493 456.266 521.165 442.62 508.495C430.772 497.383 424.283 481.494 422.388 465.565C421.15 452.635 422.707 438.708 430.357 427.838C434.892 421.107 442.155 416.291 450.192 414.956ZM447.31 486.851C450.076 490.072 452.455 493.699 455.946 496.223C462.484 501.629 471.169 504.53 479.66 503.554C485.376 502.461 491.14 498.612 492.339 492.577C494.592 481.252 491.294 469.627 486.565 459.356C470.327 462.287 455.453 472.441 447.31 486.851Z" fill="black"/>
<path opacity="0.55" d="M617.464 94.3867C621.981 94.9863 626.594 96.0695 630.636 98.2068C626.12 97.4138 621.739 96.0211 617.464 94.3867Z" fill="#0F0F0F"/>
<path d="M530.143 109.676C569.021 107.375 608.644 113.061 644.601 128.322C680.81 143.109 713.489 167.307 736.342 199.221C747.879 215.895 757.154 233.999 765.201 252.577C772.454 270.092 779.446 287.809 784.359 306.146C761.806 306.416 739.243 306.561 716.69 306.745C694.137 307.509 671.545 307.18 648.973 307.509C626.4 307.838 603.808 307.345 581.255 308.128C550.646 308.225 520.027 308.409 489.418 308.341C484.631 307.77 481.42 311.91 478.538 315.053C466.043 314.269 453.509 314.414 440.985 314.327C439.554 312.035 437.987 309.211 435.105 308.621C430.666 308.148 426.188 308.07 421.72 308.099C386.333 308.331 350.937 308.36 315.541 308.312C320.289 287.896 327.668 268.225 335.618 248.873C343.481 230.537 352.717 212.655 364.757 196.688C378.568 178.419 395.279 162.307 414.37 149.618C448.296 125.953 488.964 112.471 530.143 109.676Z" fill="#BCCBE7"/>
<path d="M788.479 247.026C800.742 254.26 812.038 263.109 822.318 272.955C850.723 299.357 871.486 333.148 885.751 369.018C889.107 377.771 892.599 386.562 894.446 395.778C881.525 400.256 868.45 404.502 856.283 410.846C846.796 415.681 837.879 421.581 829.378 427.964C827.831 414.076 827.338 400.092 825.529 386.233C824.311 372.461 821.458 358.921 819.272 345.305C823.431 345.43 827.937 343.622 829.736 339.637C832.125 335.575 831.409 330.382 828.45 326.813C823.15 320.604 816.39 315.924 810.055 310.856C804.553 289.047 796.7 267.926 788.479 247.026Z" fill="#BCCAE7"/>
<path d="M779.34 329.318C783.421 328.863 787.676 328.312 791.613 329.859C794.378 339.105 795.607 348.718 797.676 358.138C801.119 377.683 803.914 397.364 805.365 417.161C808.382 461.3 810.858 505.507 812.464 549.723C813.14 565.835 813.198 581.967 813.286 598.098C814.166 618.698 813.14 639.297 812.686 659.897C811.661 671.067 811.119 682.295 809.601 693.427C806.216 718.668 799.117 743.862 785.578 765.622C780.084 774.432 773.576 782.566 766.487 790.138C764.137 792.585 764.707 796.27 763.798 799.316C761.893 807.324 758.972 815.051 756.748 822.972C749.398 847.053 744.098 871.724 736.68 895.776C733.682 903.426 724.698 905.06 717.86 907.681C691.139 915.65 662.493 918.426 634.921 913.648C628.17 912.111 620.501 910.757 615.791 905.206C612.571 899.219 617.039 892.633 615.946 886.308C614.476 877.285 611.139 868.668 608.344 860.003C605.694 853.01 603.634 845.709 599.805 839.248C607.493 828.339 615.008 817.304 621.903 805.883C628.615 793.136 635.462 780.322 639.476 766.415C647.068 742.198 647.251 716.492 646.516 691.357C647.029 691.26 648.054 691.067 648.567 690.97C660.22 714.906 676.4 738.011 700.104 751.241C713.092 758.32 728.141 762.295 742.967 760.651C752.29 759.345 762.106 755.573 767.57 747.488C773.527 738.91 774.688 728.175 775.065 718.02C774.997 708.591 773.595 699.239 772.019 689.955C770.916 683.582 770.907 677.015 772.067 670.641C775.143 653.059 777.193 635.264 777.28 617.402C777.464 602.653 775.597 587.731 770.732 573.775C769.253 570.39 767.551 565.381 763.131 565.381C760.104 564.994 757.58 567.982 757.638 570.855C757.154 580.603 758.615 590.303 758.624 600.042C759.03 619.423 756.874 638.736 754.475 657.934C753.489 665.651 752.328 673.388 752.299 681.193C752.947 695.68 756.187 710.129 754.64 724.664C753.934 730.603 751.603 737.643 745.259 739.597C736.806 742.16 727.628 740.506 719.446 737.682C705.211 732.711 694.04 721.879 684.659 710.458C661.816 680.496 651.158 643.34 644.592 606.764C642.783 599.143 642.445 591.174 639.901 583.746C638.451 579.094 633.663 575.951 628.789 577.005C626.275 565.458 622.435 553.969 623.131 541.996C623.808 531.957 625.462 522.025 626.197 511.996C627.145 491.339 622.677 470.178 611.691 452.509C609.06 447.354 604.94 443.254 601.758 438.486C601.768 438.205 601.787 437.635 601.807 437.354C617.193 430.488 630.491 418.699 638.47 403.786C649.679 383.834 652.687 360.227 650.646 337.693C693.557 334.946 736.4 331.591 779.34 329.318ZM703.354 392.751C699.64 393.273 698.228 397.335 696.855 400.304C690.868 414.182 679.679 425.198 666.98 433.08C662.745 436.029 657.59 437.838 654.224 441.9C653.112 443.05 652.88 444.84 653.528 446.3C655.404 448.814 658.712 449.433 661.671 449.298C669.853 448.756 677.503 445.226 684.214 440.7C692.464 435.391 699.775 428.37 704.466 419.685C707.696 413.612 709.853 406.697 709.127 399.762C708.779 396.658 706.845 392.828 703.354 392.751ZM712.251 430.227C709.311 431.59 707.686 434.637 705.646 437.016C700.027 444.666 692.735 451.174 684.156 455.343C679.582 458.215 673.673 459.637 670.714 464.52C669.476 467.393 672.532 469.598 675.066 469.907C682.367 471.068 689.543 468.292 695.926 465.023C705.51 459.472 714.659 451.455 717.686 440.401C718.325 437.219 718.924 433.37 716.729 430.633C715.52 429.511 713.692 429.801 712.251 430.227Z" fill="#BCCAE7"/>
<path d="M355.454 801.84C362.949 806.859 371.121 810.776 379.293 814.567C393.819 821.153 409.564 824.103 424.854 828.281C422.039 831.395 422.233 836.434 424.834 839.625C427.446 843.194 431.972 844.373 436.024 845.495C456.701 850.321 477.803 852.874 498.896 854.992C497.6 860.979 495.627 866.811 493.935 872.7C491.672 880.07 489.95 887.613 487.155 894.818C486.323 897.072 483.915 898.087 481.894 899.035C473.19 902.633 463.741 903.6 454.486 904.808C434.941 906.897 415.241 907.197 395.589 906.984C387.233 906.366 378.761 906.153 370.618 903.977C368.171 903.3 365.782 902.178 364.177 900.157C363.877 892.516 372.523 889.489 374.564 882.816C376.16 877.468 373.974 872.043 372.426 866.956C366.856 850.534 362.833 833.648 359.341 816.685C358.345 811.656 356.972 806.724 355.454 801.84Z" fill="#BCCAE7"/>
<path opacity="0.52" d="M291.247 308.206C291.798 306.185 292.214 304.087 293.268 302.249C292.611 304.357 293.268 307.597 291.102 308.903C282.156 309.435 273.171 308.69 264.226 309.27C260.551 309.522 257.91 313.061 257.814 316.582C257.591 322.288 257.746 328.032 258.481 333.7C256.295 331.079 257.456 327.413 257.137 324.299C257.379 319.831 255.957 314.589 259.322 310.934C261.402 308.351 264.961 308.303 267.988 308.255C275.744 308.197 283.491 308.293 291.247 308.206Z" fill="#0E0E0E"/>
<path d="M315.434 329.405C332.523 329.492 349.612 329.288 366.691 329.027C373.78 359.211 381.305 389.327 388.5 419.491C380.328 421.822 371.924 423.002 363.539 424.172C355.367 424.733 347.165 424.704 338.974 424.53C334.931 410.246 331.401 395.816 327.581 381.464C323.181 364.211 318.191 347.025 315.434 329.405Z" fill="#FDFDFD"/>
<path d="M519.592 329.472C536.749 329.434 553.905 329.066 571.062 328.854C578.799 359.337 586.091 389.946 593.364 420.536C576.778 424.327 559.544 425.062 542.61 423.573C538.441 407.083 534.089 390.652 529.824 374.192C526.111 359.366 522.087 344.579 519.592 329.472Z" fill="#FEFEFE"/>
<path opacity="0.45" d="M259.912 335.875C262.166 337.403 265.28 337.935 267.05 340.005C267.369 344.125 266.943 348.264 267.098 352.393C266.982 361.358 268.375 370.246 269.941 379.057L269.129 379.144C266.943 366.184 265.377 352.993 266.344 339.84C264.071 338.767 261.382 338.09 259.912 335.875Z" fill="#0D0E0E"/>
<path opacity="0.65" d="M896.341 336.059C898.73 339.405 900.123 343.322 901.873 347.016C903.324 350.556 905.239 353.931 906.051 357.703C902.434 350.681 899.146 343.447 896.341 336.059Z" fill="#0C0C0D"/>
<path d="M442.62 342.402C453.664 342.499 464.66 343.679 475.666 344.143C475.076 362.248 479.302 380.333 486.904 396.725C477.078 396.628 467.349 394.888 457.503 395.333C447.784 394.868 438.2 396.609 428.606 397.828C435.424 384.288 439.767 369.511 441.527 354.462C441.865 350.439 442.049 346.397 442.62 342.402Z" fill="#BCCAE8"/>
<path opacity="0.49" d="M913.865 379.569C915.335 381.417 915.635 383.825 916.274 386.03C917.386 390.198 918.343 394.463 918.14 398.815C917.995 400.769 918.343 403.157 916.747 404.627C918.904 396.136 915.722 387.761 913.865 379.569Z" fill="#0C0C0C"/>
<path d="M703.354 392.751C706.845 392.828 708.779 396.658 709.127 399.763C709.853 406.697 707.696 413.612 704.466 419.685C699.775 428.37 692.464 435.391 684.214 440.701C677.503 445.227 669.853 448.757 661.671 449.298C658.712 449.434 655.404 448.815 653.528 446.3C652.88 444.84 653.112 443.051 654.224 441.9C657.59 437.838 662.745 436.029 666.981 433.08C679.679 425.198 690.868 414.182 696.855 400.304C698.228 397.335 699.64 393.273 703.354 392.751Z" fill="#020302"/>
<path d="M428.606 397.829C438.2 396.61 447.784 394.869 457.503 395.334C467.349 394.889 477.078 396.63 486.904 396.726C494.225 412.403 505.704 426.426 520.472 435.595C544.708 450.14 576.014 449.357 601.217 437.664L601.758 438.486C604.94 443.254 609.06 447.355 611.69 452.509C622.677 470.179 627.145 491.339 626.197 511.997C625.462 522.026 623.808 531.958 623.131 541.997C622.435 553.969 626.275 565.459 628.789 577.006C624.892 578.341 622.338 582.316 622.164 586.358C621.7 594.811 623.344 603.176 624.543 611.503C629.099 638.853 636.497 665.942 648.567 690.971C648.054 691.068 647.029 691.261 646.516 691.358C647.251 716.493 647.068 742.199 639.476 766.415C635.462 780.323 628.615 793.137 621.903 805.883C615.008 817.305 607.493 828.34 599.805 839.249C597.029 836.348 593.064 834.848 589.07 835.38C559.505 836.599 529.824 837.382 500.308 834.781C478.18 833.311 456.12 830.583 434.351 826.28C431.034 825.322 427.552 826.222 424.854 828.282C409.564 824.104 393.819 821.154 379.293 814.568C371.121 810.777 362.949 806.86 355.454 801.841C353.655 798.804 352.436 795.332 349.728 792.924C341.895 785.603 334.003 778.166 327.997 769.22C318.79 755.003 312.775 738.843 309.245 722.325C303.491 694.917 303.597 666.638 305.889 638.834C307.514 614.801 311.508 591 315.038 567.19C316.131 559.453 317.813 551.648 316.933 543.805C317.011 542.267 315.724 541.271 314.912 540.178L314.97 539.714C315.986 533.283 316.595 526.774 316.189 520.266C318.123 518.854 320.57 517.374 320.85 514.763C321.779 509.521 318.2 505.159 315.695 500.943C312.61 495.71 309.206 490.575 307.049 484.879C308.432 469.482 313.519 453.718 324.748 442.645C341.672 447.751 360.154 448.07 377.185 443.274C400.202 436.968 418.142 418.747 428.606 397.829ZM450.192 414.956C442.155 416.291 434.892 421.107 430.357 427.838C422.707 438.709 421.15 452.635 422.388 465.566C424.283 481.494 430.772 497.384 442.62 508.496C456.266 521.165 477.919 526.494 494.882 517.403C504.06 512.606 510.221 502.886 511.391 492.683C513.741 478.583 509.418 464.424 503.606 451.697C497.145 438.448 487.91 425.798 474.621 418.806C467.223 414.695 458.48 413.583 450.192 414.956Z" fill="#FCFBFC"/>
<path opacity="0.47" d="M214.294 399.956C219.361 397.47 226.295 396.725 231.16 399.888C225.638 398.418 219.816 398.679 214.294 399.956Z" fill="#0E0E0E"/>
<path opacity="0.52" d="M191.209 430.846C192.079 424.676 193.394 418.003 197.611 413.196C194.584 418.941 192.572 425.159 191.808 431.62C182.785 429.831 173.713 428.39 164.603 427.123C168.095 426.32 171.595 427.432 175.067 427.838C180.503 428.554 185.841 429.792 191.209 430.846Z" fill="#0D0E0E"/>
<path opacity="0.56" d="M888.711 421.928C894.958 419.221 901.622 417.644 907.898 415.004C905.49 417.093 902.366 417.954 899.417 418.979C895.877 420.072 892.405 421.474 888.711 421.928Z" fill="#0C0C0C"/>
<path d="M218.143 418.564C219.99 417.442 223.162 415.643 224.758 418.051C225.164 425.005 223.636 432.152 225.793 438.951C228.191 446.417 232.736 453.051 238.065 458.738C250.086 470.285 265.425 478.457 281.866 481.417C286.943 491.978 293.326 501.881 300.628 511.039C303.084 514.038 305.299 517.413 308.616 519.54C310.879 520.972 313.674 520.449 316.189 520.266C316.595 526.774 315.986 533.283 314.97 539.714C311.943 537.935 307.707 537.925 305.241 540.672C302.688 543.728 301.624 547.693 300.367 551.387C294.758 570.333 290.947 589.782 288.355 609.347C270.493 602.983 253.636 593.679 239.235 581.291C225.009 569.269 212.92 554.898 202.611 539.434C201.102 537.036 199.013 534.937 198.22 532.152C207.021 530.769 215.967 526.716 221.276 519.318C227.205 510.798 224.651 498.283 217.069 491.62C217.33 488.922 218.868 486.523 218.974 483.796C220 475.14 214.98 466.436 207.427 462.326C200.657 458.39 192.466 457.906 184.884 459.144C181.276 459.444 177.505 461.243 176.006 464.724C173.984 468.999 178.626 473.312 182.824 472.916C188.443 473.08 194.748 472.5 199.545 476.001C201.866 477.577 202.795 480.827 201.605 483.361C200.28 485.575 197.843 486.746 195.619 487.848C187.659 491.049 178.868 492.374 170.367 491.04C167.621 490.314 164.719 488.922 163.375 486.281C162.069 482.616 162.853 478.66 164.178 475.131C165.164 471.755 161.953 469.173 159.12 468.225C149.042 466.156 138.394 465.827 128.965 461.368C127.079 460.247 123.926 458.69 125.261 455.982C126.905 452.471 130.28 450.102 133.549 448.225C142.195 443.96 152.224 443.622 161.634 444.666C174.313 445.837 186.586 449.821 199.294 450.682C204.265 451.146 207.853 445.895 207.533 441.34C208.017 432.887 210.406 423.245 218.143 418.564Z" fill="#BBC9E6"/>
<path d="M294.99 425.933C303.819 433.196 313.742 439.298 324.748 442.644C313.519 453.718 308.432 469.482 307.049 484.878C299.39 470.314 292.504 454.375 293.394 437.567C293.384 433.621 294.109 429.753 294.99 425.933Z" fill="#BDC9E6"/>
<path opacity="0.47" d="M271.556 433.486C271.74 431.33 271.798 429.076 273.007 427.2C271.237 437.568 271.876 448.138 274.052 458.39C272.968 457.974 271.905 457.529 270.86 457.074C271.44 457.152 272.601 457.316 273.181 457.403C271.469 449.57 270.821 441.475 271.556 433.486Z" fill="#0B0B0C"/>
<path d="M712.251 430.227C713.692 429.801 715.52 429.511 716.729 430.633C718.924 433.37 718.325 437.219 717.686 440.401C714.659 451.455 705.51 459.472 695.926 465.023C689.543 468.292 682.367 471.068 675.066 469.907C672.532 469.598 669.476 467.393 670.714 464.521C673.673 459.637 679.582 458.215 684.156 455.343C692.735 451.174 700.027 444.666 705.646 437.016C707.686 434.637 709.311 431.59 712.251 430.227Z" fill="#020203"/>
<path opacity="0.55" d="M110.648 471.01C103.926 465.429 103.54 454.25 108.569 447.412C107.089 451.677 105.232 456.145 106.093 460.758C106.509 464.569 108.607 467.867 110.648 471.01Z" fill="#0C0D0D"/>
<path opacity="0.55" d="M831.206 458.776C830.752 456.242 833.16 454.966 834.813 453.641C833.875 454.956 832.899 456.232 831.912 457.499C833.982 506.9 837.057 556.29 836.796 605.768C836.931 636.106 836.738 666.561 832.618 696.667C832.057 699.829 832.019 703.156 830.665 706.135C832.125 693.688 834.03 681.261 834.572 668.717C837.067 630.091 835.993 591.367 835.239 552.702C834.407 540.758 834.678 528.766 833.711 516.822C833.247 497.451 831.815 478.138 831.206 458.776Z" fill="#0D0D0D"/>
<path d="M447.31 486.852C455.453 472.442 470.327 462.287 486.565 459.356C491.294 469.627 494.592 481.252 492.339 492.577C491.14 498.612 485.376 502.461 479.66 503.554C471.169 504.53 462.484 501.629 455.946 496.223C452.455 493.699 450.076 490.072 447.31 486.852Z" fill="#E79881"/>
<path opacity="0.49" d="M152.331 499.326C152.514 499.578 152.872 500.09 153.046 500.342C151.963 505.032 151.944 509.868 153.017 514.568C150.406 509.926 151.866 504.326 152.331 499.326Z" fill="#090A0A"/>
<path d="M172.282 507.49C183.143 508.428 193.82 505.468 204.139 502.432C208.143 503.205 210.164 509.095 207.185 512.045C205.319 513.873 202.92 515.043 200.415 515.749C192.263 518.331 183.133 519.23 175 516.078C171.334 514.608 168.888 511.368 167.727 507.693C169.139 506.861 170.754 507.441 172.282 507.49Z" fill="#BAC6E4"/>
<path d="M757.638 570.854C757.58 567.982 760.104 564.994 763.131 565.381C767.551 565.381 769.253 570.39 770.732 573.775C775.597 587.731 777.464 602.653 777.28 617.402C777.193 635.264 775.143 653.059 772.067 670.641C770.907 677.015 770.916 683.581 772.019 689.955C773.595 699.239 774.997 708.591 775.065 718.02C774.688 728.175 773.527 738.91 767.57 747.488C762.106 755.573 752.29 759.345 742.967 760.651C728.141 762.295 713.092 758.32 700.104 751.241C676.4 738.011 660.22 714.906 648.567 690.97C636.497 665.941 629.099 638.852 624.543 611.502C623.344 603.175 621.7 594.81 622.164 586.357C622.338 582.315 624.892 578.34 628.789 577.005C633.663 575.951 638.451 579.094 639.901 583.746C642.445 591.174 642.783 599.143 644.592 606.763C651.158 643.34 661.816 680.496 684.659 710.457C694.04 721.879 705.211 732.711 719.446 737.682C727.628 740.506 736.806 742.159 745.259 739.597C751.603 737.643 753.934 730.602 754.64 724.664C756.187 710.129 752.947 695.68 752.299 681.193C752.328 673.388 753.489 665.651 754.475 657.933C756.874 638.736 759.03 619.423 758.624 600.042C758.615 590.303 757.154 580.603 757.638 570.854Z" fill="#010201"/>
<path opacity="0.55" d="M255.86 617.15C260.86 619.075 265.696 621.435 270.425 623.959C265.241 622.624 260.193 620.274 255.86 617.15Z" fill="#0E0E0E"/>
<path opacity="0.47" d="M283.123 628.746C283.79 628.891 285.135 629.181 285.812 629.326C285.618 635.642 284.641 641.899 284.371 648.224C282.891 661.27 284.119 674.433 283.229 687.508C281.614 674.848 283.113 662.015 283.413 649.297C284.168 643.05 284.158 636.725 285.183 630.506C284.67 630.071 283.636 629.191 283.123 628.746Z" fill="#0E0E0D"/>
<path opacity="0.51" d="M283.626 693.176C284.564 698.485 284.67 703.901 285.444 709.249C286.286 717.054 288.007 724.723 289.332 732.46C287.872 730.574 287.939 728.05 287.369 725.835C285.493 716.851 284.429 707.721 283.452 698.601C283.229 696.793 283.375 694.965 283.626 693.176Z" fill="#0D0D0D"/>
<path d="M816.516 754.77C816.825 753.939 817.367 753.3 818.131 752.865C831.844 779.587 851.67 803.184 875.336 821.637C873.208 821.966 871.08 822.256 868.962 822.536C868.788 822.913 868.44 823.668 868.266 824.045C867.734 823.648 867.212 823.261 866.709 822.884C854.32 825.486 841.545 825.147 828.943 825.283C812.27 824.944 795.868 821.482 779.939 816.695C781.177 811.202 782.638 805.747 783.634 800.205C783.818 798.204 785.974 797.517 787.193 796.211C799.833 784.741 809.388 770.196 816.516 754.77Z" fill="#BCCAE6"/>
<path opacity="0.52" d="M332.533 805.776C334.322 806.966 336.517 808.146 336.846 810.515C338.21 816.376 339.786 822.208 340.666 828.165C337.04 821.086 338.8 811.502 332.533 805.776Z" fill="#0E0E0E"/>
<path opacity="0.56" d="M818.044 847.352C844.001 848.513 870.664 847.729 895.316 838.619C890.867 841.666 885.355 842.526 880.258 843.977C862.192 848.116 843.518 849.286 825.036 848.503C822.696 848.213 820.162 848.532 818.044 847.352Z" fill="#0F0F0F"/>
<path opacity="0.5" d="M793.179 843.533C801.458 844.858 809.707 846.289 818.034 847.353C812.899 848.117 807.754 846.541 802.657 845.932C799.514 845.11 796.003 845.264 793.179 843.533Z" fill="#0F0F0F"/>
<path opacity="0.56" d="M519.002 856.559C541.401 857.951 563.847 857.207 586.255 856.878C586.565 858.241 586.894 859.615 587.242 860.998C586.575 859.827 585.946 858.648 585.346 857.468C567.261 858.309 549.128 858.696 531.033 858.019C526.855 858.058 522.513 856.617 518.47 858.029C518.606 857.661 518.867 856.926 519.002 856.559Z" fill="#111111"/>
<path opacity="0.53" d="M342.823 899.838C342.958 895.225 343.645 890.274 346.488 886.492C343.8 893.194 342.649 900.544 344.486 907.643C342.842 905.419 342.949 902.469 342.823 899.838Z" fill="#090A0A"/>
<path opacity="0.55" d="M593.412 901.734C593.48 898.823 593.364 895.632 595.105 893.137C593.876 898.794 593.896 904.607 594.969 910.284C593.393 907.721 593.528 904.616 593.412 901.734Z" fill="#0A0A0A"/>
<path opacity="0.49" d="M460.511 924.644C468.442 923.252 476.372 921.84 484.177 919.828C480.434 922.217 475.821 922.42 471.614 923.455C467.929 923.89 464.225 925.408 460.511 924.644Z" fill="#0D0E0E"/>
<path opacity="0.53" d="M363.974 923.726C374.622 925.815 385.424 926.724 396.217 927.652C391.043 928.561 385.792 927.526 380.618 927.052C375.057 926.172 369.138 926.192 363.974 923.726Z" fill="#0D0D0D"/>
<path opacity="0.39" d="M414.95 927.691C429.96 927.788 444.912 926.26 459.825 924.751C459.051 926.308 456.962 925.66 455.589 926.018C437.61 927.788 419.525 929.113 401.44 928.581C399.67 928.474 397.804 928.619 396.237 927.652C402.475 927.614 408.713 927.739 414.95 927.691Z" fill="#0D0D0E"/>
<path opacity="0.59" d="M636.71 935.409C648.499 936.424 660.356 937.672 672.193 936.656C677.986 936.492 683.712 935.409 689.524 935.36C687.183 936.531 684.534 936.443 682.009 936.714C668.18 938.165 654.156 938.213 640.356 936.453C639.07 936.327 637.851 935.979 636.71 935.409Z" fill="#0D0D0D"/>
</g>
<defs>
<clipPath id="clip0_42_1064">
<rect width="813.827" height="852.995" fill="white" transform="translate(105 85.0049)"/>
</clipPath>
</defs>
</svg>
