<svg width="1024" height="1024" viewBox="0 0 1024 1024" fill="none" xmlns="http://www.w3.org/2000/svg">
<g clip-path="url(#clip0_42_2809)">
<path opacity="0.56" d="M493.961 59.4638C514.015 57.8693 534.198 57.0267 554.252 58.9193C564.687 59.8008 575.394 60.3452 585.454 63.3915C553.798 58.5434 521.624 57.9601 489.748 60.8379C491.018 60.0082 492.431 59.5415 493.961 59.4638Z" fill="#0E0F0F"/>
<path d="M489.749 60.8373C521.624 57.9595 553.799 58.5429 585.454 63.391C633.728 71.5318 679.5 93.7373 715.991 126.339C736.265 144.306 753.467 165.656 767.389 188.86C770.137 192.956 771.499 198.595 776.399 200.734C791.928 208.706 806.537 218.402 820.745 228.513C832.152 219.141 844.493 210.287 858.817 206.061C866.569 204.454 874.515 204.298 882.41 204.674C901.193 207.397 914.026 225.363 916.593 243.239C917.837 253.571 919.341 263.98 918.226 274.402C917.863 283.437 916.023 292.304 914.999 301.274C913.78 308.676 912.004 316 909.852 323.182C907.454 329.274 905.574 335.548 903.604 341.784C903.254 343.235 902.58 344.83 903.202 346.321C905.341 352.193 908.31 357.728 911.148 363.289C916.243 374.347 919.911 386.026 922.906 397.81C925.978 410.487 928.648 423.463 927.871 436.582C927.663 445.267 924.487 453.991 918.382 460.265C912.886 465.489 905.665 468.86 898.186 469.974C890.602 470.726 882.902 471.258 875.669 473.811C860.852 477.428 846.982 484.078 834.252 492.4C832.321 496.419 833.889 500.995 833.993 505.234C835.989 533.467 836.106 561.804 837.532 590.05C837.882 604.815 837.947 619.606 837.584 634.371C836.56 652.882 836.028 671.445 834.628 689.943C834.602 690.228 834.55 690.786 834.524 691.058C832.826 704.656 831.219 718.267 829.469 731.852C827.965 743.195 825.619 754.434 823.143 765.608C820.006 777.495 816.778 789.382 814.276 801.424C805.28 834.571 794.547 867.224 784.423 900.047C780.65 910.197 777.578 920.619 774.895 931.119C771.265 946.026 757.732 955.956 743.55 959.858C722.499 965.691 700.319 966.56 678.697 963.954C669.726 962.58 660.613 958.134 655.778 950.161C652.408 944.678 652.006 937.989 652.745 931.754C653.212 927.697 655.286 924.054 655.921 920.048C653.367 916.237 649.699 913.347 646.795 909.821C636.256 898.945 627.182 886.669 619.897 873.395L619.223 872.41C608.165 873.628 597.134 875.287 586.024 876.013C575.395 877.258 564.649 876.778 554.032 878.139C542.43 878.748 530.854 878.774 519.239 878.139C512.978 877.517 506.704 877.167 500.417 877.063C488.997 876.908 477.654 875.326 466.247 875.08C465.871 877.05 465.508 879.021 465.158 881.017C461.528 894.797 456.823 908.291 451.482 921.487C448.319 928.695 445.078 936.226 439.141 941.632C432.193 948.23 422.912 951.834 413.604 953.558C393.421 956.798 372.849 956.876 352.523 954.997C341.737 953.921 329.5 949.474 324.86 938.832C320.608 928.526 324.069 916.224 331.523 908.278C329.799 903.598 326.674 899.671 324.328 895.315C288.693 834.661 262.741 767.5 254.445 697.371C252.371 673.998 250.724 650.548 250.958 627.06C251.295 606.332 252.293 585.63 254.458 565.019C254.134 564.786 253.512 564.319 253.2 564.085C243.543 558.161 235.415 550.189 227.184 542.502C191.224 506.971 161.306 465.528 137.636 420.897C120.11 387.258 104.787 351.765 98.7597 314.095C97.8652 303.932 96.2838 293.769 96.88 283.528C97.0745 275.815 98.6171 268.232 100.121 260.687C104.373 246.285 115.339 233.154 130.052 228.863C138.75 226.698 147.747 226.439 156.562 228.047C179.817 233.997 197.252 251.963 213.663 268.439C218.356 269.878 223.334 269.269 228.169 269.308C236.621 269.074 245.099 269.748 253.525 268.711C253.732 267.7 254.134 265.691 254.341 264.68C266.941 223.471 286.632 183.895 314.917 151.15C348.906 110.887 395.832 82.0447 446.699 68.7188C460.971 65.7632 475.204 62.6003 489.684 60.8503L489.749 60.8373ZM499.199 82.1225C452.506 86.5299 406.189 102.254 368.804 131.032C334.53 156.711 308.267 192.126 291.052 231.171C285.763 243.265 280.578 255.489 277.389 268.323C317.562 268.426 357.734 268.245 397.906 268.491C401.276 268.387 404.776 269.269 407.226 271.706C412.554 276.671 410.286 284.798 411.776 291.215C423.495 287.676 435.887 289.076 447.476 292.382C447.969 287.65 447.723 282.828 448.747 278.174C451.041 271.421 458.469 267.869 465.287 268.374C569.743 268.465 674.199 268.193 778.641 268.452C765.847 231.248 748.074 195.276 722.486 165.163C707.604 148.026 690.428 132.873 671.437 120.441C646.004 104.341 617.576 93.2318 588.241 86.6466C559.023 80.5799 528.884 79.2707 499.199 82.1225ZM848.226 235.876C828.121 249.474 811.749 267.661 795.584 285.576C781.039 302.208 766.754 319.073 752.884 336.261C737.523 355.563 722.693 375.28 707.073 394.361C703.495 397.965 700.423 403.435 694.875 403.889C689.625 404.524 685.334 398.523 687.343 393.765C690.506 385.106 695.665 377.367 700.669 369.693C716.406 346.01 733.439 323.182 751.743 301.43C721.876 302.221 692.036 304.684 662.156 305.41C662.649 329.171 660.056 353.71 649.18 375.176C639.808 394.698 622.567 409.658 602.941 418.356C565.699 434.598 519.265 431.5 486.91 405.86C484.667 426.004 478.445 446.576 465.054 462.21C456.615 472.048 443.471 478.595 430.326 476.858C419.1 475.821 408.717 470.169 400.602 462.534C383.374 446.265 375.117 422.66 372.304 399.624C348.608 421.324 313.089 425.81 283.093 416.411C273.28 413.3 264.063 408.621 255.728 402.593C250.893 410.954 247.73 420.313 246.81 429.945C244.1 448.936 249.947 467.9 257.608 485.076C263.195 498.571 271.245 510.782 278.958 523.11C281.758 526.947 280.332 531.743 280.397 536.047C275.821 562.647 273.799 589.674 272.839 616.637C271.297 662.345 276.145 708.285 287.669 752.554C301.669 804.834 324.587 854.417 352.86 900.461C354.765 903.637 356.593 907.254 355.724 911.091C353.508 917.339 347.467 921.293 345.587 927.748C346.015 928.76 346.43 929.784 346.858 930.821C353.521 933.906 361.013 934.087 368.208 934.632C383.439 934.671 399.008 935.008 413.773 930.73C419.23 929.174 424.726 926.102 427.176 920.735C434.889 905.763 439.776 889.547 444.339 873.395C435.499 872.267 426.943 869.61 418.18 868.184L417.26 868.067C416.262 867.263 415.717 866.2 415.613 864.865C414.252 865.241 412.891 865.617 411.53 865.954C405.878 863.504 398.917 862.506 395.028 857.256C392.747 853.95 394.173 850.074 396.363 847.184C401.536 843.735 407.913 845.252 413.63 846.121C435.926 850.048 458.391 853.043 480.986 854.637C527.186 857.774 573.904 857.71 619.65 849.88C625.406 848.195 632.6 849.426 635.206 855.467C644.319 874.808 658.345 891.4 674.017 905.789C678.23 909.613 682.521 915.161 680.719 921.202C678.697 926.776 673.602 931.663 674.847 938.067C678.243 942.591 684.569 942.448 689.663 943.045C699.567 944.341 709.51 943.2 719.413 942.591C729.187 941.398 739.441 939.791 747.673 933.971C752.43 930.561 753.415 924.404 755.36 919.271C761.439 900.163 766.819 880.848 772.782 861.715C783.904 826.987 794.637 792.078 802.169 756.378C811.515 711.332 815.573 665.261 815.158 619.282C815.274 583.776 814.263 548.258 811.761 512.843C803.465 522.384 795.648 532.676 785.356 540.182C781.221 543.682 773.754 542.424 772.095 536.928C770.241 531.224 774.7 526.324 777.734 522.008C793.017 502.187 808.352 482.328 821.665 461.095C850.002 416.891 873.465 369.213 887.984 318.645C893.635 296.478 898.497 273.404 895.411 250.46C894.024 241.411 890.317 230.782 880.88 227.45C869.395 223.885 857.858 230.147 848.226 235.876ZM791.047 235.397C792.965 240.426 794.961 245.417 796.958 250.421C798.98 248.191 801.041 245.987 803.154 243.861C799.097 241.074 795.13 238.145 791.047 235.397ZM134.862 251.082C125.424 255.424 121.173 266.002 119.695 275.673C116.817 294.858 120.732 314.237 125.554 332.787C134.058 363.406 147.176 392.573 162.576 420.3C176.097 444.943 192.249 468.043 209.412 490.248C224.241 508.474 239.706 526.156 255.624 543.423C256.195 539.365 256.96 535.347 257.699 531.328C240.536 506.141 226.717 477.571 223.904 446.861C222.582 426.406 226.795 404.408 240.276 388.373C235.221 382.267 230.878 375.565 227.612 368.332C218.408 349.121 217.008 327.486 216.152 306.55C211.239 304.217 205.341 302.571 202.424 297.554C200.26 294.573 200.182 290.8 199.962 287.287C189.708 275.569 178.443 264.473 165.299 256.008C156.367 250.693 144.96 246.389 134.862 251.082ZM273.812 292.278C281.9 327.823 290.806 363.211 300.36 398.393C318.637 399.028 337.006 397.978 354.843 393.7C354.039 388.347 352.743 383.097 351.525 377.834C344.589 349.367 338.276 320.758 331.38 292.291C312.195 292.511 292.997 292.304 273.812 292.278ZM513.717 293.056C518.578 314.535 523.699 335.963 529.065 357.326C532.811 371.326 535.378 385.702 540.071 399.417C558.712 399.469 577.456 400.208 595.941 397.084C587.775 362.343 578.791 327.784 570.508 293.069C551.569 293.147 532.643 293.03 513.717 293.056ZM410.662 320.874C409.417 334.032 406.358 347.047 401.523 359.348C398.217 366.893 394.782 374.424 389.999 381.165C414.615 388.204 441.021 387.724 465.936 382.397C461.036 375.798 457.769 368.189 454.813 360.58C450.678 348.161 447.671 335.25 447.489 322.106C436.315 316.324 422.121 315.534 410.662 320.874ZM850.223 458.191C863.289 453.434 876.939 450.374 890.719 448.56C896.228 447.587 903.5 446.058 905.16 439.81C906.91 429.167 904.447 418.395 902.1 408.05C899.339 396.954 896.099 385.974 892.002 375.306C880.763 404.2 866.219 431.682 850.223 458.191ZM405.1 436.478C409.974 443.439 415.51 450.413 423.43 454.043C429.419 457.219 437.119 457.997 443.069 454.276C450.756 449.61 455.215 441.326 458.586 433.276C461.632 425.654 464.51 417.824 465.287 409.606C442.654 409.113 419.152 418.265 405.1 436.478Z" fill="#000100"/>
<path opacity="0.56" d="M463.758 64.0901C472.353 62.8716 480.973 59.9549 489.684 60.8494C475.205 62.5994 460.971 65.7623 446.699 68.7179C452.053 66.1123 458.029 65.4123 463.758 64.0901Z" fill="#0C0C0C"/>
<path d="M499.199 82.1224C528.884 79.2706 559.023 80.5798 588.242 86.6465C617.577 93.2317 646.004 104.341 671.438 120.441C690.429 132.872 707.604 148.026 722.486 165.163C748.075 195.276 765.847 231.248 778.642 268.452C674.199 268.193 569.743 268.465 465.288 268.374C458.469 267.869 451.042 271.421 448.747 278.174C447.723 282.828 447.969 287.65 447.477 292.382C435.888 289.076 423.495 287.676 411.777 291.215C410.286 284.798 412.554 276.671 407.227 271.706C404.777 269.269 401.277 268.387 397.906 268.491C357.734 268.245 317.562 268.426 277.39 268.322C280.579 255.489 285.764 243.265 291.053 231.171C308.267 192.126 334.53 156.711 368.804 131.032C406.19 102.254 452.506 86.5299 499.199 82.1224Z" fill="#BECCE6"/>
<path d="M848.228 235.877C857.859 230.147 869.396 223.886 880.881 227.451C890.318 230.783 894.026 241.412 895.413 250.46C898.498 273.405 893.637 296.479 887.985 318.646C873.466 369.214 850.003 416.892 821.666 461.096C808.353 482.329 793.018 502.188 777.735 522.008C774.702 526.325 770.242 531.225 772.096 536.929C773.755 542.425 781.222 543.683 785.357 540.183C795.65 532.677 803.466 522.384 811.763 512.844C814.265 548.259 815.276 583.777 815.159 619.283C815.574 665.262 811.516 711.333 802.17 756.379C794.639 792.079 783.905 826.988 772.783 861.716C766.82 880.849 761.44 900.164 755.361 919.271C753.416 924.405 752.431 930.562 747.674 933.971C739.442 939.792 729.189 941.399 719.415 942.592C709.511 943.201 699.568 944.342 689.665 943.046C684.57 942.449 678.244 942.592 674.848 938.068C673.603 931.664 678.698 926.777 680.72 921.203C682.522 915.162 678.231 909.614 674.018 905.79C658.346 891.401 644.32 874.809 635.207 855.468C632.602 849.427 625.407 848.196 619.652 849.881C621.998 848.96 623.553 846.951 624.915 844.942C633.444 832.523 642.44 820.273 648.585 806.442C661.25 780.516 666.357 751.557 668.081 722.96C669.326 691.11 666.694 659.105 660.537 627.838C656.829 606.903 650.231 586.629 644.1 566.303C642.596 561.221 641.961 555.92 642.052 550.631C642.129 532.016 644.942 513.297 641.831 494.773C637.061 466.19 623.787 438.683 602.942 418.357C622.568 409.659 639.809 394.699 649.181 375.177C660.057 353.71 662.65 329.171 662.157 305.41C692.037 304.684 721.878 302.221 751.744 301.431C733.441 323.183 716.407 346.01 700.67 369.694C695.666 377.368 690.507 385.107 687.344 393.766C685.335 398.523 689.626 404.525 694.876 403.89C700.424 403.436 703.496 397.966 707.074 394.362C722.694 375.281 737.524 355.564 752.885 336.262C766.755 319.073 781.041 302.208 795.585 285.577C811.75 267.662 828.122 249.475 848.228 235.877Z" fill="#BECCE6"/>
<path d="M134.862 251.082C144.96 246.39 156.368 250.693 165.299 256.008C178.444 264.473 189.709 275.569 199.962 287.288C200.183 290.801 200.26 294.573 202.425 297.554C205.342 302.571 211.24 304.217 216.153 306.551C217.009 327.486 218.409 349.121 227.612 368.332C230.879 375.566 235.222 382.267 240.277 388.373C226.796 404.408 222.583 426.406 223.905 446.862C226.718 477.571 240.536 506.141 257.699 531.328C256.96 535.347 256.196 539.366 255.625 543.423C239.707 526.156 224.242 508.475 209.412 490.249C192.249 468.043 176.098 444.943 162.577 420.301C147.177 392.573 134.059 363.406 125.555 332.788C120.733 314.238 116.818 294.858 119.696 275.673C121.173 266.003 125.425 255.425 134.862 251.082Z" fill="#BECCE6"/>
<path opacity="0.5" d="M858.816 206.061C866.089 203.183 874.942 201.628 882.409 204.674C874.515 204.298 866.568 204.454 858.816 206.061Z" fill="#0F1010"/>
<path opacity="0.51" d="M128.315 228.954C135.277 225.765 143.08 225.765 150.547 226.297C152.673 226.374 154.721 226.971 156.562 228.047C147.747 226.439 138.751 226.699 130.052 228.863L128.315 228.954Z" fill="#090909"/>
<path d="M791.047 235.396C795.13 238.145 799.097 241.074 803.154 243.861C801.041 245.987 798.98 248.191 796.958 250.421C794.962 245.417 792.965 240.426 791.047 235.396Z" fill="#CFD2D5"/>
<path opacity="0.57" d="M916.593 243.239L916.982 242.033C920.716 258.665 919.847 275.983 917.177 292.705C916.762 295.635 916.192 298.552 914.999 301.274C916.023 292.304 917.864 283.437 918.227 274.402C919.342 263.98 917.838 253.57 916.593 243.239Z" fill="#0B0B0B"/>
<path opacity="0.57" d="M903.604 341.783C905.574 335.548 907.454 329.274 909.852 323.182C908.919 330.558 905.756 337.376 903.915 344.519C905.198 351.13 910.008 356.561 911.148 363.289C908.309 357.728 905.341 352.193 903.202 346.321C902.58 344.83 903.254 343.235 903.604 341.783Z" fill="#0B0B0B"/>
<path opacity="0.55" d="M96.0245 279.665C96.9708 273.287 97.0875 266.508 100.121 260.688C98.6171 268.232 97.0745 275.815 96.8801 283.528C96.2838 293.769 97.8653 303.932 98.7597 314.095C95.4153 303.012 95.6356 291.15 96.0245 279.665Z" fill="#0F0F0F"/>
<path opacity="0.59" d="M252.229 267.882C252.747 267.078 253.81 265.483 254.342 264.68C254.134 265.691 253.733 267.7 253.525 268.711C245.099 269.748 236.621 269.074 228.17 269.307C223.334 269.269 218.357 269.878 213.664 268.439C226.484 267.583 239.37 268.102 252.229 267.882Z" fill="#131313"/>
<path d="M273.812 292.277C292.997 292.303 312.195 292.511 331.38 292.29C338.276 320.757 344.589 349.366 351.524 377.833C352.743 383.096 354.039 388.346 354.843 393.7C337.006 397.977 318.637 399.027 300.36 398.392C290.806 363.211 281.9 327.822 273.812 292.277Z" fill="#FEFEFE"/>
<path d="M513.717 293.056C532.643 293.03 551.569 293.146 570.508 293.069C578.791 327.783 587.774 362.343 595.941 397.083C577.456 400.207 558.711 399.469 540.071 399.417C535.378 385.702 532.811 371.326 529.065 357.326C523.698 335.963 518.578 314.535 513.717 293.056Z" fill="#FEFEFE"/>
<path d="M410.661 320.875C422.121 315.534 436.315 316.325 447.489 322.106C447.671 335.251 450.678 348.162 454.813 360.58C445.026 358.973 435.148 357.975 425.232 357.91C417.298 357.767 409.469 359.504 401.522 359.349C406.358 347.047 409.417 334.032 410.661 320.875Z" fill="#BDCCE8"/>
<path d="M401.523 359.348C409.469 359.503 417.299 357.766 425.232 357.909C435.149 357.974 445.027 358.972 454.814 360.579C457.769 368.188 461.036 375.798 465.936 382.396C441.021 387.724 414.616 388.203 389.999 381.164C394.782 374.424 398.218 366.892 401.523 359.348Z" fill="#FDFDFD"/>
<path d="M850.223 458.191C866.219 431.682 880.763 404.2 892.002 375.306C896.099 385.974 899.339 396.954 902.1 408.05C904.447 418.395 906.91 429.167 905.16 439.809C903.5 446.058 896.228 447.587 890.719 448.559C876.939 450.374 863.289 453.433 850.223 458.191Z" fill="#BECBE6"/>
<path d="M283.093 416.411C313.089 425.809 348.607 421.324 372.304 399.624C375.117 422.659 383.374 446.265 400.602 462.533C408.717 470.168 419.1 475.82 430.326 476.857C443.47 478.594 456.615 472.048 465.054 462.209C478.444 446.576 484.667 426.004 486.909 405.859C519.265 431.5 565.698 434.598 602.941 418.356C623.785 438.681 637.059 466.189 641.83 494.772C644.941 513.296 642.128 532.015 642.05 550.63C641.959 555.918 642.594 561.22 644.098 566.302C650.23 586.628 656.828 606.902 660.535 627.837C666.693 659.104 669.324 691.109 668.08 722.959C666.356 751.556 661.248 780.515 648.583 806.441C642.439 820.272 633.443 832.522 624.913 844.941C623.552 846.95 621.996 848.959 619.65 849.88C573.904 857.709 527.185 857.774 480.985 854.637C458.391 853.043 435.926 850.048 413.63 846.12C407.913 845.252 401.535 843.735 396.363 847.183C362.828 833.935 334.283 808.722 316.498 777.391C294.837 737.841 287.293 692.328 285.335 647.761C283.806 619.683 285.944 591.58 287.656 563.567C288.031 558.356 288.654 553.131 288.252 547.907C287.811 542.852 283.624 539.481 280.396 536.046C280.331 531.743 281.757 526.946 278.957 523.109C271.244 510.781 263.194 498.57 257.607 485.076C258.865 477.817 258.424 470.363 259.993 463.156C263.233 445.798 272.074 430.009 283.093 416.411Z" fill="#FCFBFC"/>
<path d="M255.728 402.593C264.064 408.621 273.28 413.3 283.093 416.411C272.075 430.009 263.234 445.798 259.993 463.156C258.425 470.363 258.865 477.817 257.608 485.076C249.947 467.9 244.101 448.935 246.81 429.945C247.73 420.313 250.893 410.954 255.728 402.593Z" fill="#BFCDE7"/>
<path d="M405.101 436.477C419.152 418.264 442.654 409.112 465.288 409.605C464.51 417.823 461.632 425.653 458.586 433.275C455.215 441.325 450.756 449.609 443.069 454.275C437.119 457.996 429.419 457.218 423.43 454.042C415.51 450.412 409.975 443.438 405.101 436.477Z" fill="#E19588"/>
<path opacity="0.57" d="M875.669 473.812C882.902 471.258 890.602 470.726 898.186 469.975C890.978 472.451 883.2 472.852 875.669 473.812Z" fill="#0F0F0F"/>
<path opacity="0.45" d="M833.993 505.233C833.889 500.994 832.321 496.418 834.252 492.399C834.9 507.138 836.313 521.838 836.43 536.59C837.558 554.375 837.985 572.238 837.532 590.049C836.106 561.803 835.989 533.466 833.993 505.233Z" fill="#0B0B0C"/>
<path d="M272.839 616.637C273.799 589.674 275.821 562.646 280.397 536.046C283.624 539.481 287.812 542.851 288.252 547.907C288.654 553.131 288.032 558.355 287.656 563.566C285.945 591.579 283.806 619.683 285.336 647.761C287.293 692.327 294.837 737.84 316.499 777.39C334.284 808.722 362.828 833.935 396.363 847.183C394.173 850.074 392.747 853.95 395.028 857.255C398.917 862.505 405.878 863.503 411.53 865.953C412.891 865.616 414.252 865.24 415.613 864.864C415.717 866.2 416.262 867.263 417.26 868.066L418.18 868.183C426.943 869.609 435.499 872.266 444.339 873.394C439.776 889.546 434.889 905.763 427.176 920.735C424.726 926.101 419.23 929.174 413.773 930.729C399.008 935.007 383.439 934.67 368.208 934.631C361.013 934.087 353.521 933.905 346.858 930.82C346.43 929.783 346.015 928.759 345.587 927.748C347.467 921.292 353.508 917.339 355.724 911.09C356.593 907.253 354.765 903.637 352.86 900.461C324.587 854.416 301.669 804.833 287.669 752.553C276.145 708.285 271.297 662.344 272.839 616.637Z" fill="#BFCCE7"/>
<path opacity="0.6" d="M253.201 564.085C253.512 564.318 254.134 564.785 254.458 565.018C252.294 585.629 251.295 606.331 250.958 627.059C250.725 650.548 252.371 673.998 254.445 697.37C252.345 690.539 252.553 683.292 251.594 676.266C251.231 666.298 250.012 656.381 250.09 646.413C250.064 628.705 249.675 610.972 251.166 593.303C251.295 583.529 253.058 573.859 253.201 564.085Z" fill="#0D0D0D"/>
<path opacity="0.43" d="M837.583 634.371C838.283 651.417 837.013 668.477 835.872 685.471C835.587 686.988 835.172 688.478 834.628 689.943C836.028 671.445 836.559 652.882 837.583 634.371Z" fill="#0A0A0A"/>
<path opacity="0.43" d="M829.469 731.852C831.219 718.267 832.826 704.656 834.524 691.058C835.561 697.422 833.708 703.735 833.228 710.061C831.958 717.308 832.204 724.969 829.469 731.852Z" fill="#0C0C0D"/>
<path opacity="0.46" d="M814.275 801.424C816.777 789.382 820.005 777.494 823.142 765.607C822.857 771.843 820.912 777.806 819.5 783.846C817.814 789.719 816.855 795.837 814.275 801.424Z" fill="#0D0D0D"/>
<path opacity="0.56" d="M586.024 876.013C597.133 875.287 608.165 873.628 619.222 872.409L619.896 873.394C605.209 875.157 590.509 877.089 575.718 877.841C568.498 878.191 561.213 879.474 554.031 878.139C564.648 876.778 575.394 877.257 586.024 876.013Z" fill="#0D0D0D"/>
<path opacity="0.57" d="M466.247 875.079C477.655 875.325 488.997 876.907 500.417 877.062C506.705 877.166 512.979 877.516 519.24 878.138C509.971 879.577 500.586 878.035 491.279 877.685C483.319 877.412 475.399 876.57 467.453 876.012C466.753 877.698 465.988 879.37 465.158 881.016C465.508 879.02 465.871 877.049 466.247 875.079Z" fill="#0E0E0E"/>
<path opacity="0.46" d="M774.896 931.118C777.579 920.618 780.651 910.196 784.423 900.046C783.633 906.177 781.26 911.933 779.64 917.87C778.136 922.303 777.371 927.061 774.896 931.118Z" fill="#0C0C0C"/>
<path opacity="0.55" d="M352.523 954.996C372.849 956.876 393.422 956.798 413.605 953.558C410.844 955.048 407.681 955.334 404.634 955.8C386.979 958.172 368.986 958.134 351.344 955.632L352.523 954.996Z" fill="#0B0B0C"/>
<path opacity="0.5" d="M678.696 963.954C700.319 966.559 722.498 965.691 743.55 959.857C738.559 962.852 732.609 963.28 727.048 964.459C711.726 966.598 696.015 967.856 680.719 964.9C680.213 964.667 679.202 964.2 678.696 963.954Z" fill="#0C0C0C"/>
</g>
<defs>
<clipPath id="clip0_42_2809">
<rect width="833.194" height="910" fill="white" transform="translate(95 57)"/>
</clipPath>
</defs>
</svg>
