<svg width="753" height="823" viewBox="135.489 100.023 752.511 823.239" fill="none" xmlns="http://www.w3.org/2000/svg">
<g clip-path="url(#clip0_42_873)">
<path opacity="0.3" d="M456.275 101.701C463.074 99.6947 470.3 100.462 477.296 100.254C480.794 100.429 484.533 99.6179 487.812 101.219C477.307 101.526 466.791 101.394 456.275 101.701Z" fill="#0F0F0F"/>
<path opacity="0.48" d="M445.497 102.227C449.005 101.92 452.536 101.01 456.067 101.722C449.959 102.83 443.753 103.29 437.579 103.872C439.981 102.457 442.81 102.523 445.497 102.227Z" fill="#0F0F10"/>
<path d="M456.067 101.722L456.275 101.7C466.791 101.393 477.307 101.525 487.812 101.218C493.229 101.777 498.734 101.645 504.096 102.643C509.667 103.959 515.402 104.354 521.104 104.836C539.493 106.876 557.52 111.569 575.153 117.118C615.605 130.419 654.072 151.451 684.578 181.453C702.923 199.305 718.319 220.128 730.381 242.684C733.726 250.349 737.586 257.795 741.435 265.219C748.387 280.307 754.056 295.966 758.968 311.822C774.068 320.88 787.709 332.097 801.098 343.458C838.315 376.311 866.442 419.745 879.568 467.719C880.631 473.783 882.166 479.77 884.009 485.659C884.085 485.966 884.228 486.602 884.294 486.92C885.862 499.761 888.768 512.81 886.169 525.738C884.535 531.33 879.743 535.848 874.271 537.658C864.457 540.542 854.193 540.958 844.226 542.987L844.193 542.998C837.482 543.853 830.771 545.114 824.422 547.494C809.278 552.198 794.541 558.492 781.217 567.144L780.231 567.824C779.748 577.715 779.693 587.693 780.713 597.562C780.768 607.771 781.579 617.958 781.415 628.178C780.549 636.424 781.228 644.714 781.207 652.982C781.272 660.318 780.79 667.654 781.064 675.001V675.352C780.34 689.662 779.66 703.961 778.641 718.249C779.079 718.008 779.945 717.504 780.384 717.251C788.356 712.525 796.832 708.589 805.671 705.792C821.406 701.253 838.403 697.59 854.522 702.481C857.724 703.709 860.323 706.286 862.11 709.181C863.503 713.315 863.602 717.723 863.185 722.032C861.211 729.829 857.066 736.847 853.612 744.051C847.427 756.135 840.793 768.022 835.354 780.479C833.49 785.128 831.319 791.028 834.576 795.556C839.653 802.87 846.989 808.156 853.48 814.121C860.992 820.788 869.205 827.214 874.151 836.162C877.725 842.423 876.914 851.228 871.036 855.867C864.632 860.79 856.485 862.929 848.656 864.354C840.146 865.604 831.582 866.361 823.062 867.512C816.077 868.675 808.971 868.072 801.931 868.214C785.319 867.743 768.695 865.911 752.499 862.084C744.209 860.089 735.809 858.049 728.199 854.079C703.384 877.765 671.726 893.808 638.457 901.67C624.542 905.124 610.583 908.611 596.349 910.42C584.057 911.703 571.863 913.875 559.571 915.289C539.877 917.778 520.095 919.5 500.313 921.046C489.172 921.88 477.976 920.893 466.857 921.858C464.719 922.022 462.602 921.682 460.53 921.342C452.986 920.202 445.408 919.445 437.897 918.151C424.903 915.859 414.069 906.528 407.292 895.551C407.051 895.156 406.558 894.367 406.316 893.983C397.423 893.687 388.53 893.018 379.714 891.735L378.87 892.009C374.637 890.474 370.141 890.09 365.7 889.63C363.945 889.389 362.191 889.093 360.524 888.544C353.495 886.538 346.247 883.149 338.823 885.068C317.835 887.733 296.672 888.928 275.552 890.068C265.486 890.946 255.332 890.189 245.309 891.647C237.151 892.382 228.949 892.349 220.757 892.218C209.189 891.373 197.159 891.023 186.523 885.825C172.026 879.202 162.344 865.549 155.841 851.481C147.146 832.609 141.696 812.29 138.647 791.784C137.792 781.005 135.994 770.182 137.145 759.348C137.507 752.67 139.217 746.19 140.928 739.753C144.02 731.463 150.972 723.962 159.898 722.23C167.903 721.374 175.831 723.14 182.992 726.693C189.451 730.136 194.966 735.147 199.945 740.454C210.241 735.136 220.659 729.642 231.975 726.791C233.51 726.441 235.056 726.09 236.602 725.75C235.813 719.982 235.199 714.181 235.21 708.358C225.626 708.106 216.152 706.648 206.897 704.202C189.933 698.128 176.424 683.752 170.458 666.854C168.55 661.031 166.708 655.099 166.149 648.969C166.05 645.537 165.842 642.104 165.568 638.694C164.888 629.922 166.368 621.215 167.169 612.508C169.724 595.611 176.763 579.645 185.569 565.093C190.613 557.176 196.172 549.468 203.223 543.184C201.809 539.752 199.44 536.846 197.543 533.688C186.336 515.836 177.553 496.153 173.616 475.384C172.717 468.882 171.654 462.401 170.71 455.898C169.833 448.475 169.559 440.92 170.623 433.496C171.599 425.908 172.706 418.341 173.759 410.764C176.215 398.889 179.823 386.947 186.172 376.541C179.79 366.463 174.735 355.377 172.662 343.567C171.774 335.617 170.502 327.667 170.623 319.641C170.754 311.329 171.917 303.094 172.75 294.847C172.882 292.709 174.011 289.946 171.314 288.97C166.982 286.645 164.723 281.557 165.677 276.754C166.774 270.438 166.533 262.675 172.081 258.354C180.327 255.865 188.661 259.352 196.973 259.56L197.083 259.571C202.938 260.558 208.816 261.501 214.759 261.742C218.147 261.973 221.514 262.4 224.913 262.389C231.196 249.45 239.037 237.333 247.283 225.556C266.517 198.471 289.95 174.303 316.881 154.806C338.845 139.06 362.959 126.428 388.124 116.646C398.443 112.765 409.003 109.409 419.793 107.139C425.747 106.514 431.592 105.176 437.426 103.893L437.579 103.871C443.753 103.29 449.959 102.83 456.067 101.722ZM427.995 125.704C401.448 131.395 376.457 142.624 352.761 155.64C307.977 181.233 270.749 219.701 246.11 264.966C278.633 269.232 311.212 273.191 343.769 277.27C348.835 277.829 353.364 282.643 353.199 287.819C353.32 293.378 353.024 298.949 352.859 304.508C364.505 306.098 376.139 307.644 387.785 309.245C388.793 303.653 390.175 298.148 391.48 292.632C392.862 286.876 399.342 283.268 405.011 284.331C464.62 293.773 524.152 303.653 583.772 313.017C587.895 313.259 589.529 317.667 593.038 319.037C646.582 338.6 699.853 358.853 753.244 378.822C749.626 353.82 743.299 329.246 735.425 305.276C721.971 264.988 701.915 225.797 670.937 196.136C659.895 185.104 647.427 175.564 634.389 167.011C592.72 140.387 544.055 125.572 494.896 121.844C472.57 120.846 449.904 120.616 427.995 125.704ZM222.095 281.897C227.03 318.632 232.03 355.355 237.019 392.079C244.706 393.154 252.426 394.141 260.2 394.415C269.148 394.59 278.041 393.417 286.88 392.112C282.756 357.538 278.118 323.029 273.929 288.476C256.658 286.261 239.322 284.397 222.095 281.897ZM442.327 311.57C443.654 324.235 445.891 336.791 447.481 349.423C451.122 374.699 454.477 400.018 458.216 425.272C466.057 426.906 473.919 428.496 481.913 429.208C491.442 430.371 501.015 429.285 510.511 428.342C505.544 391.98 500.017 355.684 495.148 319.301C477.559 316.625 459.971 313.884 442.327 311.57ZM347.826 329.63C344.986 340.936 341.126 351.989 335.972 362.45C324.601 384.743 304.337 402.935 279.894 409.405C259.279 414.778 236.986 412.464 217.577 403.823C211.14 400.994 205.23 397.046 199.934 392.43C193.047 410.183 188.935 429.296 189.988 448.409C190.909 482.929 206.458 515.398 227.106 542.439C229.979 546.573 233.839 550.29 235.155 555.301C235.868 557.67 234.76 560.06 233.466 562.012C232.26 562.856 231.131 564.063 229.519 563.942C223.806 564.6 219.65 559.885 215.735 556.496C213.07 558.35 211.48 561.255 209.518 563.767C198.574 579.14 190.043 596.51 186.556 615.162C183.365 631.709 183.781 649.616 190.931 665.143C196.216 676.69 207.171 685.309 219.54 688.028C230.067 690.199 241.065 689.322 251.351 686.35C268.94 681.712 284.675 671.086 296.178 657.062C309.162 641.381 318.011 621.851 319.502 601.444C319.721 593.735 318.998 584.941 313.032 579.327C307.297 573.515 298.448 573.986 290.926 574.261C269.806 575.829 250.748 585.84 231.602 594.021C227.633 595.929 221.602 596.828 219.178 592.156C216.777 588.264 219.979 584.119 222.972 581.717C228.016 577.803 233.521 574.458 239.267 571.673L239.157 571.475C253.106 564.545 267.591 558.141 283.129 555.86C295.137 554.292 308.24 553.832 319.14 559.973C329.678 565.466 336.312 576.596 338.253 588.11C340.117 600.666 338.582 613.55 334.952 625.656C328.592 646.743 316.75 666.284 300.323 681.021C286.781 693.423 270.058 702.601 251.965 706.121C253.259 713.962 254.279 721.857 255.167 729.752C255.562 732.647 254.74 735.476 253.621 738.119C251.592 740.115 249.333 742.066 246.406 742.516C234.037 744.994 221.953 749.271 211.086 755.73C212.073 759.249 213.41 763.208 211.437 766.651C209.858 770.16 205.307 771.739 201.831 770.193C197.741 768.439 195.339 764.48 192.51 761.267C186.073 753.153 178.595 745.049 168.594 741.507C164.986 740.027 161.028 741.968 159.767 745.575C154.778 757.177 155.885 770.237 156.686 782.529C159.273 802.487 164.504 822.137 172.322 840.691C176.204 849.342 180.579 858.279 188.091 864.365C196.304 871.295 207.533 871.92 217.764 872.644C248.785 873.554 279.741 870.561 310.708 869.245C309.425 866.745 307.429 864.234 308.021 861.251C308.131 858.422 310.368 856.525 312.528 855.088C316.465 854.507 320.489 854.935 324.042 856.832C346.565 866.975 370.941 872.578 395.548 874.344C383.607 844.243 378.277 811.281 381.622 778.987C383.398 765.5 386.249 750.839 396.447 740.981C404.321 733.031 417.03 731.759 427.074 736.003C438.862 740.937 448.117 750.269 456.374 759.776C478.163 746.518 503.307 738.349 528.845 737.264C535.403 737.406 542.201 737.483 548.419 739.818C551.259 740.915 554.702 743.514 553.32 747.001C550.426 750.773 545.294 750.718 541.006 751.157C515.851 753.251 491.497 761.366 469.083 772.759C468.118 773.406 465.706 773.943 466.561 775.588C468.173 779.941 471.046 784.141 470.563 789.01C470.487 792.925 467.131 796.861 462.986 796.434C458.677 796.499 455.606 792.98 453.49 789.646C446.812 779.141 439.663 768.647 430.013 760.62C425.846 757.385 421.218 754.304 415.944 753.394C410.363 752.747 406.843 758.142 405.132 762.693C400.274 775.566 399.88 789.613 400.241 803.21C401.217 824.144 404.935 845.088 412.742 864.607C417.194 876.142 423.258 887.634 432.984 895.595C437.042 899.17 442.503 900.124 447.667 900.902C486.694 905.398 525.852 900.047 564.571 895.233C590.132 892.086 615.681 888.117 640.431 880.781C656.046 876.504 671.354 870.638 685.083 861.953C702.814 851.448 718.692 837.467 729.943 820.086C745.294 797.223 751.698 769.755 755.865 742.9C758.892 723.666 760.58 704.224 761.118 684.76C763.026 642.335 759.341 599.909 760.328 557.494C760.427 512.536 762.499 467.489 758.683 422.618C758.146 419.427 759.275 415.589 756.742 413.056C754.593 410.545 752.575 407.771 749.746 406.005C743.77 403.768 737.575 402.145 731.544 400.062C686.267 386.19 640.968 372.418 595.801 358.195C592.489 357.066 589.189 355.772 585.68 355.498C581.601 386.201 567.367 416.927 541.631 435.25C533.232 441.314 523.659 445.722 513.669 448.431C478.733 458.092 438.062 449.231 412.6 422.75C397.982 408.429 389.736 388.691 386.425 368.733C384.1 357.592 383.574 346.177 384.473 334.85C372.191 333.622 360.129 330.738 347.826 329.63ZM767.28 342.35C770.471 358.152 774.156 373.909 775.669 389.985C777.533 393.987 781.009 396.992 783.323 400.742C787.446 407.08 792.15 413.177 794.979 420.238C797.446 426.017 794.442 433.43 788.685 435.908C785.845 437.191 782.654 436.621 779.682 436.446C782.687 472.226 780.834 508.182 780.79 544.04C802.502 532.164 826.582 524.631 851.2 522.043C856.584 521.22 862.187 520.957 867.33 519.049C868.218 505.726 865.236 492.523 862.231 479.628C852.976 444.505 836.111 411.236 812.173 383.833C799.157 368.064 783.597 354.577 767.28 342.35ZM776.261 743.547C771.217 776.816 762.532 810.733 742.235 838.212C766.589 846.919 792.797 848.399 818.424 847.511C830.31 846.842 842.23 845.526 853.711 842.281C846.912 833.749 837.58 827.828 829.828 820.262C822.854 813.573 815.616 806.259 812.919 796.708C810.561 787.179 814.454 777.704 818.204 769.107C825.222 752.122 835.979 736.891 842.35 719.631C818.402 719.861 795.418 729.643 776.261 743.547Z" fill="#000100"/>
<path opacity="0.55" d="M504.096 102.644C509.743 102.534 515.731 103.039 521.104 104.837C515.402 104.355 509.667 103.96 504.096 102.644Z" fill="#0F0F10"/>
<path opacity="0.57" d="M419.793 107.14C425.341 104.947 431.471 104.037 437.425 103.895C431.592 105.178 425.747 106.515 419.793 107.14Z" fill="#0E0E0F"/>
<path d="M427.995 125.705C449.904 120.617 472.57 120.847 494.896 121.845C544.055 125.573 592.72 140.388 634.389 167.012C647.427 175.565 659.895 185.105 670.937 196.137C701.915 225.798 721.971 264.989 735.425 305.277C743.299 329.247 749.626 353.821 753.244 378.823C699.853 358.854 646.582 338.601 593.038 319.039C589.529 317.668 587.895 313.26 583.772 313.018C524.152 303.654 464.62 293.774 405.011 284.333C399.342 283.269 392.862 286.877 391.48 292.634C390.175 298.149 388.793 303.654 387.785 309.246C376.139 307.645 364.505 306.099 352.859 304.509C353.024 298.95 353.32 293.379 353.199 287.82C353.364 282.644 348.835 277.83 343.769 277.271C311.212 273.192 278.633 269.233 246.11 264.967C270.749 219.702 307.977 181.234 352.761 155.641C376.457 142.625 401.448 131.396 427.995 125.705Z" fill="#BDCBE5"/>
<path opacity="0.54" d="M730.381 242.686C732.596 245.197 733.791 248.366 735.349 251.294C737.607 255.822 740.195 260.263 741.435 265.22C737.586 257.796 733.726 250.35 730.381 242.686Z" fill="#0C0C0C"/>
<path opacity="0.54" d="M172.081 258.353C175.985 255.228 181.248 256.928 185.722 257.334C189.44 258.167 193.574 257.63 196.973 259.56C188.661 259.351 180.327 255.864 172.081 258.353Z" fill="#0B0B0B"/>
<path opacity="0.45" d="M197.083 259.569C200.043 258.747 203.037 259.679 205.998 260.019C208.947 260.403 212.04 260.359 214.759 261.741C208.816 261.499 202.938 260.556 197.083 259.569Z" fill="#0E0E0E"/>
<path d="M222.095 281.897C239.322 284.398 256.658 286.262 273.929 288.477C278.118 323.029 282.756 357.538 286.879 392.112C278.041 393.417 269.148 394.59 260.2 394.415C252.426 394.141 244.706 393.154 237.019 392.079C232.03 355.356 227.029 318.632 222.095 281.897Z" fill="#FEFEFE"/>
<path opacity="0.52" d="M171.489 298.697C171.632 297.326 172.059 296.043 172.75 294.848C171.917 303.094 170.754 311.329 170.623 319.641C170.502 327.668 171.774 335.618 172.662 343.568C171.939 342.23 171.5 340.815 171.347 339.313C169.164 325.88 169.669 312.14 171.489 298.697Z" fill="#0A0A0A"/>
<path d="M442.327 311.571C459.971 313.885 477.559 316.626 495.148 319.302C500.017 355.686 505.544 391.982 510.511 428.343C501.015 429.286 491.442 430.372 481.913 429.21C473.919 428.497 466.057 426.907 458.216 425.273C454.477 400.019 451.122 374.7 447.481 349.424C445.891 336.792 443.654 324.237 442.327 311.571Z" fill="#FDFDFD"/>
<path d="M347.826 329.631C360.13 330.738 372.192 333.622 384.473 334.85C383.574 346.178 384.1 357.593 386.425 368.734C370.47 362.33 352.969 361.058 335.972 362.451C341.126 351.99 344.986 340.936 347.826 329.631Z" fill="#BECBE7"/>
<path d="M767.28 342.351C783.597 354.577 799.157 368.065 812.173 383.833C836.111 411.236 852.976 444.506 862.231 479.628C865.235 492.524 868.218 505.726 867.33 519.049C862.187 520.957 856.584 521.221 851.2 522.043C826.582 524.631 802.502 532.164 780.79 544.04C780.834 508.183 782.687 472.227 779.682 436.446C782.654 436.621 785.845 437.192 788.685 435.909C794.442 433.43 797.446 426.018 794.979 420.239C792.15 413.177 787.446 407.08 783.323 400.742C781.009 396.992 777.533 393.987 775.669 389.985C774.156 373.909 770.471 358.152 767.28 342.351Z" fill="#BECCE6"/>
<path d="M209.518 563.767C211.481 561.256 213.071 558.35 215.736 556.497C219.65 559.885 223.806 564.601 229.519 563.943C231.131 564.063 232.261 562.857 233.467 562.013C235.528 565.072 237.491 568.186 239.158 571.476L239.268 571.673C233.522 574.459 228.017 577.803 222.973 581.718C219.979 584.119 216.777 588.264 219.179 592.157C221.602 596.828 227.633 595.929 231.603 594.021C250.749 585.841 269.807 575.829 290.926 574.261C298.449 573.987 307.298 573.516 313.033 579.327C318.998 584.942 319.722 593.736 319.503 601.445C318.011 621.852 309.162 641.381 296.179 657.062C284.676 671.087 268.94 681.713 251.352 686.351C241.066 689.323 230.068 690.2 219.541 688.029C207.171 685.309 196.217 676.69 190.931 665.144C183.782 649.616 183.365 631.71 186.556 615.163C190.043 596.51 198.574 579.141 209.518 563.767Z" fill="#BECCE6"/>
<path d="M776.261 743.549C795.418 729.644 818.402 719.863 842.35 719.633C835.979 736.893 825.222 752.124 818.204 769.109C814.454 777.706 810.561 787.181 812.919 796.71C815.616 806.261 822.854 813.575 829.828 820.264C837.58 827.83 846.912 833.751 853.711 842.283C842.23 845.528 830.31 846.844 818.423 847.513C792.797 848.401 766.589 846.921 742.235 838.214C762.532 810.735 771.217 776.818 776.261 743.549Z" fill="#BECCE6"/>
<path d="M246.405 742.516C249.333 742.067 251.592 740.115 253.621 738.119C255.485 755.949 260.277 773.319 266.966 789.92C274.598 807.816 284.28 825.12 297.878 839.211C302.417 844.836 308.372 849.156 312.528 855.089C310.368 856.525 308.131 858.422 308.021 861.251C307.429 864.234 309.424 866.745 310.707 869.245C279.741 870.561 248.785 873.555 217.763 872.645C207.533 871.921 196.304 871.296 188.091 864.366C180.579 858.28 176.204 849.343 172.322 840.691C164.504 822.137 159.273 802.487 156.685 782.53C155.885 770.237 154.777 757.177 159.767 745.576C161.028 741.968 164.986 740.027 168.594 741.508C178.594 745.049 186.073 753.153 192.51 761.267C195.339 764.48 197.74 768.439 201.83 770.193C205.307 771.74 209.857 770.161 211.436 766.652C213.41 763.208 212.072 759.25 211.085 755.73C221.952 749.271 234.036 744.995 246.405 742.516Z" fill="#BECCE6"/>
<path d="M541.631 435.252C567.367 416.929 581.6 386.204 585.679 355.5C589.188 355.774 592.489 357.068 595.801 358.198C640.968 372.42 686.267 386.193 731.543 400.064C737.574 402.147 743.77 403.77 749.746 406.007C752.575 407.773 754.593 410.547 756.742 413.058C759.275 415.591 758.146 419.429 758.683 422.62C762.499 467.491 760.427 512.538 760.328 557.496C759.341 599.911 763.025 642.337 761.117 684.763C760.58 704.226 758.891 723.668 755.865 742.902C751.698 769.757 745.294 797.225 729.942 820.088C718.692 837.469 702.814 851.45 685.082 861.955C671.353 870.64 656.045 876.506 640.43 880.783C615.681 888.119 590.132 892.088 564.571 895.235C525.851 900.049 486.693 905.4 447.667 900.904C442.502 900.126 437.041 899.172 432.984 895.597C423.258 887.636 417.194 876.144 412.742 864.608C404.934 845.09 401.217 824.146 400.241 803.212C399.879 789.615 400.274 775.568 405.132 762.695C406.842 758.144 410.362 752.749 415.944 753.396C421.218 754.306 425.846 757.387 430.013 760.622C439.662 768.649 446.812 779.143 453.49 789.648C455.606 792.982 458.676 796.501 462.986 796.436C467.131 796.863 470.486 792.927 470.563 789.012C471.046 784.143 468.173 779.944 466.561 775.59C465.705 773.945 468.118 773.408 469.083 772.761C491.496 761.368 515.851 753.253 541.006 751.159C545.293 750.72 550.425 750.775 553.32 747.003C553.956 746.192 554.581 745.38 555.206 744.569C561.204 744.393 566.961 746.235 572.817 747.233C575.317 741.685 576.94 735.763 577.477 729.688C577.971 723.548 579.166 717.275 577.554 711.2C582.609 708.92 587.609 706.387 592.04 703.02C593.597 701.682 595.592 700.213 595.658 697.965C595.921 695.936 594.222 694.138 592.292 693.886C587.226 693.107 582.182 694.478 577.291 695.662C554 701.441 529.909 705.718 505.85 703.426C488.525 702.242 471.44 697.866 455.562 690.892C433.938 680.892 415.11 664.915 401.612 645.287C394.265 634.277 387.74 621.535 388.87 607.905C389.287 598.902 395.164 590.338 403.706 587.224C413.213 583.759 423.62 584.351 433.467 585.744C453.61 588.935 473.129 596.896 493.799 596.051C509.096 595.393 524.36 591.347 537.661 583.715C541.631 581.281 546.204 578.704 547.805 574.032C548.78 571.028 546.511 568.341 544.054 566.971C544.844 567.047 546.412 567.212 547.19 567.289C557.893 554.634 571.26 543.022 575.778 526.442C579.55 515.016 578.958 502.723 576.655 491.067C571.304 469.432 559.088 449.233 541.631 435.252Z" fill="#BDCBE6"/>
<path d="M279.894 409.405C304.337 402.936 324.601 384.744 335.972 362.451C352.969 361.058 370.47 362.33 386.425 368.734C389.736 388.691 397.982 408.429 412.599 422.75C438.061 449.232 478.733 458.092 513.669 448.432C523.659 445.723 533.231 441.315 541.631 435.251C559.088 449.232 571.304 469.431 576.655 491.066C578.958 502.722 579.55 515.014 575.778 526.441C571.26 543.02 557.893 554.633 547.191 567.287C546.412 567.21 544.844 567.046 544.054 566.969C537.837 565.927 531.937 568.625 526.126 570.379C510.785 575.171 494.435 578.702 478.371 575.796C458.688 572.364 439.454 565.149 419.223 565.719C406.163 565.577 392.412 568.965 382.609 578.012C373.54 586.422 368.792 599.011 369.165 611.292C369.307 627.302 376.292 642.368 385.01 655.483C397.05 673.083 412.665 688.336 430.934 699.389C451.845 712.372 475.98 719.664 500.401 722.088C526.466 724.774 553.353 721.452 577.554 711.199C579.166 717.274 577.971 723.546 577.477 729.687C576.94 735.762 575.317 741.683 572.817 747.232C566.961 746.234 561.205 744.392 555.206 744.567C554.581 745.379 553.956 746.19 553.32 747.002C554.702 743.515 551.259 740.916 548.419 739.819C542.201 737.484 535.403 737.407 528.845 737.264C503.306 738.35 478.162 746.519 456.374 759.776C448.117 750.269 438.862 740.938 427.074 736.003C417.029 731.759 404.32 733.032 396.447 740.982C386.249 750.84 383.398 765.5 381.622 778.988C378.277 811.282 383.606 844.244 395.548 874.345C370.941 872.579 346.565 866.976 324.042 856.833C320.489 854.936 316.464 854.508 312.528 855.089C308.372 849.157 302.418 844.836 297.878 839.211C284.281 825.12 274.598 807.817 266.966 789.921C260.277 773.319 255.485 755.949 253.621 738.119C254.739 735.477 255.562 732.648 255.167 729.753C254.279 721.858 253.259 713.962 251.965 706.122C270.058 702.602 286.781 693.424 300.323 681.022C316.75 666.284 328.592 646.744 334.952 625.657C338.582 613.551 340.117 600.666 338.253 588.111C336.312 576.597 329.678 565.467 319.14 559.973C308.24 553.832 295.136 554.293 283.129 555.861C267.591 558.142 253.105 564.546 239.157 571.476C237.491 568.186 235.528 565.072 233.466 562.013C234.76 560.061 235.868 557.67 235.155 555.302C233.839 550.291 229.979 546.573 227.106 542.439C206.458 515.398 190.909 482.929 189.988 448.41C190.525 442.499 190.043 436.26 192.466 430.711C198.508 419.921 207.05 410.403 217.577 403.824C236.986 412.465 259.279 414.778 279.894 409.405ZM347.859 385.325C335.577 386.092 324.217 392.749 316.245 401.927C307.725 412.103 302.45 424.823 300.586 437.916C297.384 458.268 300.542 479.365 308.383 498.336C316.004 516.275 329.799 532.472 348.462 539.27C360.601 543.909 374.461 544.249 386.534 539.259C399.057 534.423 408.356 523.359 413.159 511.067C420.538 491.691 420.1 470.132 415.319 450.197C410.264 430.711 400.625 411.894 385.295 398.527C375.196 389.47 361.511 384.031 347.859 385.325Z" fill="#FCFBFC"/>
<path d="M347.859 385.324C361.511 384.03 375.196 389.469 385.295 398.527C400.625 411.894 410.264 430.711 415.319 450.196C420.1 470.132 420.538 491.69 413.159 511.066C408.356 523.358 399.057 534.423 386.534 539.259C374.461 544.248 360.601 543.908 348.462 539.27C329.799 532.471 316.004 516.275 308.383 498.335C300.542 479.365 297.384 458.267 300.586 437.915C302.45 424.822 307.725 412.102 316.245 401.926C324.217 392.748 335.577 386.092 347.859 385.324ZM323.877 492.403C330.281 510.715 347.727 526.242 367.739 526.462C378.979 527.054 389.988 520.288 394.89 510.222C403.224 493.96 402.774 474.704 399.112 457.247C370.525 457.181 341.751 469.814 323.877 492.403Z" fill="black"/>
<path d="M189.988 448.411C188.936 429.298 193.048 410.185 199.934 392.432C205.23 397.048 211.141 400.996 217.578 403.825C207.051 410.404 198.508 419.922 192.466 430.712C190.043 436.261 190.526 442.5 189.988 448.411Z" fill="#BDCAE8"/>
<path opacity="0.51" d="M171.347 421.61C171.983 417.969 172.081 414.131 173.759 410.765C172.706 418.342 171.599 425.908 170.623 433.496C169.68 429.538 170.93 425.557 171.347 421.61Z" fill="#0F0F0F"/>
<path opacity="0.51" d="M170.711 455.899C171.654 462.402 172.717 468.883 173.616 475.385L173.211 476.262C171.906 469.562 170.195 462.742 170.711 455.899Z" fill="#0E0E0E"/>
<path opacity="0.51" d="M206.897 704.203C216.152 706.648 225.626 708.107 235.21 708.359C235.199 714.182 235.813 719.983 236.603 725.75C235.057 726.09 233.51 726.441 231.975 726.792C232.863 726.343 234.64 725.432 235.528 724.983C234.782 719.697 234.53 714.368 234.234 709.05C226.438 709.313 218.685 708.041 211.152 706.144C209.605 705.782 208.169 705.091 206.897 704.203Z" fill="#0E0E0E"/>
<path d="M323.878 492.403C341.752 469.814 370.525 457.182 399.112 457.247C402.775 474.704 403.224 493.96 394.891 510.222C389.989 520.288 378.98 527.054 367.74 526.462C347.728 526.243 330.282 510.715 323.878 492.403Z" fill="#E38A76"/>
<path opacity="0.51" d="M879.568 467.721C882.144 473.269 883.362 479.563 884.009 485.66C882.166 479.772 880.631 473.785 879.568 467.721Z" fill="#0E0E0E"/>
<path opacity="0.49" d="M884.294 486.921C887.123 495.902 887.715 505.42 887.989 514.784C887.836 518.447 888.186 522.482 886.169 525.739C888.768 512.811 885.862 499.762 884.294 486.921Z" fill="#090909"/>
<path opacity="0.51" d="M844.226 542.988C854.193 540.959 864.457 540.542 874.271 537.658C870.17 540.411 864.994 540.498 860.301 541.43C854.95 541.979 849.621 543.316 844.226 542.988Z" fill="#0D0E0D"/>
<path opacity="0.44" d="M824.422 547.494C830.771 545.114 837.482 543.853 844.193 542.998C842.011 544.511 839.291 544.489 836.813 545.071C832.657 545.805 828.666 547.362 824.422 547.494Z" fill="#0E0E0E"/>
<path d="M382.609 578.012C392.412 568.965 406.163 565.577 419.223 565.719C439.454 565.149 458.688 572.365 478.371 575.797C494.435 578.703 510.785 575.172 526.126 570.38C531.938 568.625 537.837 565.928 544.055 566.97C546.511 568.34 548.781 571.027 547.805 574.031C546.204 578.703 541.631 581.28 537.662 583.714C524.36 591.346 509.096 595.392 493.799 596.05C473.129 596.894 453.611 588.933 433.467 585.743C423.62 584.35 413.214 583.758 403.706 587.223C395.164 590.337 389.287 598.901 388.87 607.904C387.741 621.534 394.265 634.276 401.612 645.285C415.111 664.914 433.938 680.891 455.563 690.891C471.441 697.865 488.525 702.241 505.85 703.425C529.909 705.717 554 701.44 577.291 695.661C582.182 694.477 587.226 693.106 592.292 693.885C594.222 694.137 595.922 695.935 595.658 697.964C595.593 700.212 593.597 701.681 592.04 703.019C587.61 706.386 582.609 708.919 577.554 711.199C553.353 721.452 526.466 724.775 500.401 722.088C475.98 719.665 451.845 712.373 430.934 699.389C412.665 688.336 397.05 673.083 385.01 655.483C376.293 642.369 369.307 627.302 369.165 611.292C368.792 599.011 373.54 586.422 382.609 578.012Z" fill="#010201"/>
<path opacity="0.63" d="M780.23 567.823L781.217 567.144C780.669 577.276 781.557 587.441 780.713 597.562C779.693 587.693 779.748 577.714 780.23 567.823Z" fill="#151515"/>
<path opacity="0.62" d="M164.756 627.684C165.261 622.618 165.239 617.267 167.169 612.508C166.368 621.214 164.888 629.921 165.568 638.694C165.842 642.104 166.05 645.536 166.149 648.968C163.89 642.126 164.888 634.768 164.756 627.684Z" fill="#0E0E0E"/>
<path opacity="0.49" d="M781.415 628.181C782.49 633.082 782.095 638.137 782.226 643.127C782.15 654.235 782.533 665.354 781.777 676.44L781.064 675.004C780.79 667.657 781.272 660.321 781.207 652.985C781.228 644.717 780.549 636.427 781.415 628.181Z" fill="#131414"/>
<path opacity="0.64" d="M778.641 718.25C779.66 703.962 780.34 689.663 781.064 675.353C781.996 678.785 781.305 682.349 781.316 685.847C781.25 694.257 780.505 702.635 779.978 711.013C779.967 713.074 779.101 715.388 780.384 717.252C779.945 717.504 779.079 718.009 778.641 718.25Z" fill="#0B0B0C"/>
<path opacity="0.55" d="M809.651 703.821C822.689 700.148 836.539 697.647 850.004 700.4C851.671 700.674 853.151 701.485 854.522 702.483C838.403 697.593 821.406 701.255 805.671 705.795C806.877 704.928 808.171 704.15 809.651 703.821Z" fill="#0B0C0C"/>
<path opacity="0.54" d="M862.11 709.181C864.72 712.799 865.455 718.074 863.185 722.032C863.602 717.723 863.503 713.315 862.11 709.181Z" fill="#101110"/>
<path opacity="0.51" d="M159.898 722.231C163.791 720.104 168.364 721.135 172.465 721.979C176.215 722.845 180.075 724.052 182.992 726.694C175.831 723.142 167.903 721.376 159.898 722.231Z" fill="#0F0F0F"/>
<path opacity="0.59" d="M137.825 748.604C138.592 745.578 138.954 742.299 140.928 739.755C139.217 746.192 137.507 752.672 137.145 759.35C135.993 770.184 137.792 781.007 138.647 791.786C136.794 787.422 137.068 782.521 136.344 777.915C135.961 768.134 135.599 758.199 137.825 748.604Z" fill="#0D0D0D"/>
<path opacity="0.53" d="M823.062 867.513C831.582 866.362 840.146 865.606 848.656 864.355C844.412 866.373 839.554 866.34 834.992 867.053C831.023 867.382 827.021 868.446 823.062 867.513Z" fill="#0C0C0C"/>
<path opacity="0.56" d="M338.823 885.071C346.246 883.152 353.495 886.54 360.524 888.547C354.646 888.547 349.317 885.323 343.472 885.444C317.681 888.722 291.704 890.301 265.737 891.42C258.928 891.387 252.085 892.801 245.309 891.65C255.331 890.192 265.485 890.948 275.552 890.071C296.671 888.931 317.835 887.735 338.823 885.071Z" fill="#0C0C0C"/>
<path opacity="0.55" d="M365.7 889.63C370.141 890.09 374.637 890.474 378.87 892.009C374.44 891.976 369.746 891.516 365.7 889.63Z" fill="#0E0E0E"/>
<path opacity="0.53" d="M379.714 891.736C388.53 893.019 397.423 893.688 406.316 893.984C406.558 894.368 407.051 895.158 407.292 895.552C403.728 893.995 399.781 894.708 396.02 894.401C390.756 894.028 385.449 893.6 380.262 892.646L379.714 891.736Z" fill="#0B0B0B"/>
<path opacity="0.55" d="M559.571 915.289C571.863 913.874 584.057 911.703 596.349 910.42C593.751 911.692 590.823 911.802 588.016 912.262C558.222 916.758 528.242 920.103 498.175 921.978C487.758 922.329 477.22 923.272 466.857 921.857C477.976 920.892 489.172 921.879 500.313 921.046C520.095 919.499 539.877 917.778 559.571 915.289Z" fill="#0B0C0C"/>
<path opacity="0.51" d="M437.897 918.152C445.408 919.446 452.986 920.203 460.53 921.343C455.859 922.21 451.242 920.795 446.615 920.356C443.687 919.797 440.463 919.83 437.897 918.152Z" fill="#0F0F0F"/>
</g>
<defs>
<clipPath id="clip0_42_873">
<rect width="752.511" height="823.239" fill="white" transform="translate(135.489 100.023)"/>
</clipPath>
</defs>
</svg>
