<svg width="927" height="595" viewBox="48 213 927 595" fill="none" xmlns="http://www.w3.org/2000/svg">
<path opacity="0.34" d="M713.912 215.285C724.71 212.841 735.913 214.915 746.85 215.297C749.19 215.517 751.89 215.065 753.813 216.792C740.559 215.239 727.213 215.876 713.912 215.285Z" fill="#0E0E0F"/>
<path opacity="0.51" d="M690.648 217.997C696.673 216.201 703.161 215.263 709.452 215.784C703.23 216.873 696.939 217.51 690.648 217.997Z" fill="#0C0C0C"/>
<path d="M709.452 215.784C710.923 215.576 712.406 215.344 713.912 215.286C727.213 215.877 740.559 215.24 753.813 216.792C800.734 221.322 844.25 244.528 878.867 275.809C891.391 287.661 903.741 299.826 914.029 313.717C929.38 333.98 941.301 357 948.206 381.492C951.601 396.24 954.914 411.093 955.54 426.27C956.977 442.779 955.227 459.335 952.933 475.682C952.702 479.749 950.153 484.209 952.655 487.998C963.407 507.311 969.721 528.918 972.64 550.745C974.297 569.479 974.552 588.351 972.698 607.074C971.262 621.59 967.786 635.84 963.719 649.824C960.209 660.46 957.035 671.501 950.512 680.758C949.122 682.322 950.361 684.268 950.894 685.913C954.891 695.17 958.17 704.797 960.012 714.726C961.588 724.516 961.912 734.538 960.267 744.35C955.772 764.567 938.347 779.791 918.86 785.189C902.027 789.372 884.787 792.245 867.409 792.291C832.965 793.461 798.545 790.843 764.356 786.95C756.466 786 748.611 784.703 740.663 784.297C740.351 784.239 739.737 784.123 739.424 784.066C729.912 781.841 720.192 780.358 710.448 779.686C710.17 779.628 709.603 779.512 709.313 779.455C702.269 777.508 694.959 776.883 687.776 775.643C677.314 774.172 666.979 771.889 656.518 770.418C650.656 770.545 645.106 772.92 639.615 774.774C631.458 777.172 623.163 779.142 614.81 780.636C609.145 781.25 603.584 782.49 598.08 783.903L597.918 783.938C578.825 787.043 559.698 790.078 540.628 793.322L539.597 793.438C523.064 795.141 506.671 798.188 490.138 800.042C466.156 803.043 442.023 804.549 417.902 805.904C403.56 805.904 389.275 807.306 374.932 807.237C351.807 807.341 328.648 807.781 305.558 806.229C269.411 805.487 233.403 801.873 197.303 800.239L197.21 800.227C167.748 796.949 138.019 796.404 108.5 793.612C101.618 793.01 94.7128 790.067 90.2524 784.668C86.5682 777.473 87.2633 769.224 88.9896 761.601C94.261 745.451 103.946 731.189 113.296 717.159C122.796 703.175 132.47 689.284 142.943 676.007C147.323 670.817 151.598 664.932 158.213 662.51C163.566 660.761 169.219 662.035 174.525 663.344C177.978 664.294 181.071 662.163 184.026 660.749C193.896 655.675 204.242 651.62 214.658 647.831C210.336 634.381 206.131 620.849 203.698 606.9C200.257 605.023 196.642 603.471 193.317 601.385C188.938 598.744 184.535 595.21 179.252 594.897C172.301 595.928 165.755 599.149 160.264 603.494C153.011 608.533 145.909 614.813 136.896 616.249C131.103 617.315 125.623 614.025 121.325 610.491C104.201 595.604 88.3524 579.292 73.268 562.365C66.896 554.765 60.6398 547.014 55.3916 538.592C51.7653 532.683 48.2665 526.114 48.7762 518.966C49.3439 510.879 54.9281 503.847 61.9258 500.093C71.1942 495.134 82.212 494.462 92.4189 496.339C94.3537 496.965 95.5354 495.331 96.5897 494.034C111.431 474.813 128.844 457.157 149.732 444.506C160.472 438.331 172.058 433.21 184.362 431.205C196.306 429.502 208.39 429.769 220.346 431.205C231.318 432.561 241.455 437.357 251.164 442.385C254.906 437.079 259.552 432.515 264.545 428.413C264.568 427.95 264.603 427.023 264.626 426.56C260.965 423.594 257.42 420.373 255.022 416.283C250.7 408.95 249.31 400.446 250.063 392.046C253.098 375.56 264.974 362.457 277.231 351.81C291.342 340.502 307.353 331.246 324.616 325.708C330.096 324.433 335.483 322.811 340.882 321.201L340.917 321.189C362.802 316.856 385.393 316.242 407.452 319.706C429.824 323.089 451.385 331.593 470.524 343.596C474.046 337.154 476.977 330.284 482.04 324.85C493.185 311.411 509.231 303.799 523.736 294.728C526.957 292.585 530.977 291.16 533.236 287.904C538.322 275.844 545.389 264.084 556.002 256.114C556.037 253.113 555.411 249.765 557.346 247.193C562.212 239.94 568.352 233.475 575.535 228.505C579.266 225.678 584.514 226.686 587.85 229.641C593.701 234.414 598.776 240.044 604.568 244.899C619.826 238.457 635.131 231.946 651.084 227.416C662.056 224.752 672.946 221.786 683.918 219.144C686.119 218.6 688.378 218.229 690.649 217.997C696.94 217.511 703.231 216.873 709.452 215.784ZM654.259 250.077C643.368 253.46 632.235 256.565 621.97 261.559C632.188 271.047 641.932 281.011 651.687 290.974C665.612 304.448 679.179 318.305 693.012 331.894C696.592 335.602 700.693 339.008 703.103 343.665C704.412 346.886 703.937 350.709 701.968 353.571C708.641 361.542 715.882 369.026 722.532 377.032C725.591 374.772 729.692 373.51 733.376 375.062C737.118 376.835 739.69 380.241 742.621 383.079C757.544 398.696 772.975 413.816 788.071 429.271C826.211 467.422 863.667 506.245 902.05 544.164C910.472 529.288 918.154 513.88 923.24 497.509C927.353 484.082 930.539 470.341 932.334 456.404C937.826 405.914 919.741 353.918 885.981 316.254C872.368 300.474 856.658 286.549 839.696 274.453C822.11 262.289 802.646 252.788 782.279 246.312C759.177 239.755 734.987 236.603 710.993 238.504C691.773 240.566 672.772 244.528 654.259 250.077ZM603.143 271.858C600.351 279.366 597.293 286.78 594.419 294.265C586.124 316.729 576.462 338.672 568.491 361.252C577.296 370.636 587.816 378.19 599.169 384.191C601.996 378.318 604.429 372.282 606.851 366.245C615.841 344.638 624.843 323.043 633.625 301.355C623.441 291.554 613.234 281.764 603.143 271.858ZM502.894 335.231C493.301 344.499 487.775 357.394 486.072 370.521C484.23 379.268 485.898 389.243 480.592 396.935C478.182 400.504 473.617 400.133 470.072 398.87C465.762 402.381 460.039 402.96 454.802 404.119C450.782 404.999 446.727 405.706 442.661 406.239C445.186 415.774 443.588 426.479 437.551 434.415C431.307 443.347 420.845 447.923 410.65 450.715C394.187 455.373 376.936 456.809 359.882 455.848C336.908 454.261 314.05 449.742 292.524 441.424C289.326 439.373 286.152 441.98 283.267 443.266C267.546 451.932 256.516 466.796 247.676 482.031C244.815 486.932 241.814 492.586 236.021 494.428C232.743 494.08 229.429 491.67 229.267 488.171C228.34 478.08 233.276 468.858 237.597 460.123C224.065 453.994 208.911 450.854 194.082 452.778C178.059 454.608 163.183 461.977 150.289 471.396C134.08 483.711 120.479 499.143 108.442 515.478C105.8 518.966 101.178 520.205 96.9836 519.487C90.1597 518.34 83.1736 517.321 76.2687 518.271C74.3686 518.375 73.129 519.869 71.8662 521.086C75.6431 529.798 81.8065 537.12 87.7731 544.408C101.583 560.604 116.239 576.152 132.424 590.008C133.907 591.039 135.216 592.708 137.081 592.974C148.678 585.664 159.464 575.816 173.413 573.406C182.693 572.12 191.765 575.723 199.736 580.16C199.817 574.043 198.218 567.486 200.639 561.658C202.25 557.314 208.402 556.341 211.588 559.527C216.894 564.868 217.172 572.943 220.242 579.442C220.01 581.249 220.613 583.045 220.937 584.829C225.536 604.49 229.603 624.324 235.882 643.556C241.189 643.116 246.657 641.819 251.94 643.047C256.759 644.089 260.281 649.94 257.617 654.458C255.96 658.108 251.836 659.359 248.325 660.46C230.101 664.99 211.877 670.168 194.916 678.371C190.05 680.63 185.601 683.932 180.307 685.206C175.255 686.052 170.308 684.198 165.338 683.538C162.534 687.315 159.545 690.941 156.892 694.834C144.473 712.676 131.288 730.031 120.41 748.892C116.424 755.866 112.195 762.899 110.249 770.777C122.588 773.928 135.413 772.781 147.971 774.172C167.285 775.064 186.516 776.987 205.83 778.203C240.91 780.938 276.061 782.826 311.211 784.344C361.794 786.163 412.492 785.201 462.959 781.714C500.843 778.586 538.624 773.824 575.952 766.56C594.477 762.806 612.817 758.114 631.319 754.233C635.038 753.746 636.556 749.274 640.379 748.927C654.757 747.421 668.984 750.746 683.153 752.646C712.731 757.616 742.413 761.995 772.222 765.332C804.928 769.259 837.889 772.121 870.862 771.101C886.502 770.047 902.525 768.367 917.007 762.007C926.09 758.079 934.42 750.919 937.05 741.072C940.56 728.467 937.606 715.085 933.365 703.036C925.835 683.225 912.639 666.368 900.416 649.291C896.883 644.414 893.558 638.667 894.832 632.4C896.825 623.282 902.849 615.705 905.502 606.83C906.904 601.756 906.962 595.384 902.791 591.561C900.891 590.008 897.311 588.826 895.724 591.398C883.814 604.919 871.533 618.115 858.592 630.65C850.297 638.424 841.863 646.047 833.417 653.647C839.082 656.022 844.597 658.722 850.054 661.537C852.858 663.124 855.823 664.827 857.735 667.515C860.156 670.921 859.183 676.297 855.348 678.232C851.386 679.425 847.343 677.734 843.508 676.842C824.438 671.223 805.009 666.936 785.801 661.815C782.568 660.784 778.942 659.962 776.625 657.297C774.424 655.061 774.424 651.319 775.779 648.666C777.656 646.186 780.738 644.703 783.831 644.541C791.385 643.777 798.915 645.167 806.226 647.021C835.329 621.532 863.632 594.839 887.429 564.219C875.137 554.058 863.817 542.786 851.711 532.417C844.516 526.288 837.935 519.452 830.544 513.567C815.274 529.659 796.343 543.666 774.088 547.814C753.222 552.506 731.036 546.701 713.391 535.116C693.012 521.364 676.422 499.954 673.375 475.022C670.698 456.775 675.611 438.307 683.628 421.983C688.621 412.078 695.364 403.18 702.582 394.804C696.592 386.52 690.359 378.097 682.145 371.876C672.123 379.928 661.14 386.81 649.451 392.151C628.944 401.257 605.032 404.397 583.448 397.248C562.942 390.482 545.749 375.027 535.565 356.131C529.077 345.218 526.146 332.508 525.509 319.915C517.584 324.387 509.37 328.708 502.894 335.231ZM348.528 341.255C324.268 346.318 299.95 356.398 283.232 375.352C277.023 382.512 270.905 391.629 272.481 401.581C274.416 406.772 278.691 410.757 283.232 413.758C294.019 420.327 306.149 424.312 318.29 427.498C340.986 432.318 364.458 435.376 387.583 431.889C396.817 430.464 406.572 429.305 414.612 424.161C418.679 421.752 421.459 417.094 420.741 412.275C420.474 402.23 413.037 394.63 406.468 387.864C403.085 384.319 398.543 379.916 400.443 374.506C401.59 368.991 408.599 367.416 413.002 370.092C420.81 374.575 427.993 380.345 433.74 387.308C443.553 384.481 453.806 383.682 463.943 383.068C463.538 376.638 464.221 370.242 464.951 363.87C448.558 354.811 431.295 347.129 413.118 342.46C392.032 337.421 369.799 336.969 348.528 341.255ZM748.182 417.882C736.666 447.819 724.432 477.49 712.847 507.392C721.93 516.799 732.403 525.106 744.371 530.459C755.713 502.862 767.217 475.335 778.93 447.889C771.747 440.682 764.391 433.65 757.173 426.479C754.172 423.617 751.6 420.28 748.182 417.882ZM936.98 527.145C930.678 542.172 922.405 556.271 913.23 569.71C918.316 572.85 923.216 576.754 925.893 582.246C929.774 589.035 929.774 597.122 929.079 604.675C927.746 615.531 921.664 624.892 917.957 634.983C923.321 643.95 930.168 651.91 936.088 660.494C954.474 615.855 956.988 564.59 941.383 518.746C938.845 520.808 938.544 524.411 936.98 527.145Z" fill="#010101"/>
<path opacity="0.5" d="M662.346 223.639C669.459 221.866 676.538 219.549 683.918 219.144C672.946 221.785 662.056 224.751 651.084 227.416C654.479 225.249 658.546 224.751 662.346 223.639Z" fill="#0C0C0C"/>
<path d="M654.259 250.078C672.772 244.528 691.773 240.566 710.993 238.504C734.986 236.604 759.177 239.755 782.279 246.312C802.646 252.789 822.11 262.289 839.696 274.453C856.658 286.549 872.368 300.475 885.981 316.254C919.741 353.919 937.826 405.914 932.334 456.404C930.538 470.341 927.352 484.082 923.24 497.509C918.154 513.88 910.472 529.288 902.05 544.164C863.667 506.245 826.211 467.422 788.071 429.271C772.975 413.816 757.543 398.697 742.621 383.079C739.69 380.241 737.118 376.835 733.376 375.062C729.692 373.51 725.591 374.772 722.532 377.032C715.882 369.026 708.641 361.542 701.968 353.571C703.937 350.709 704.412 346.886 703.103 343.665C700.693 339.008 696.592 335.602 693.012 331.894C679.179 318.305 665.612 304.448 651.687 290.974C641.932 281.011 632.188 271.047 621.97 261.559C632.234 256.565 643.368 253.46 654.259 250.078Z" fill="#BBC9E6"/>
<path d="M649.451 392.15C661.14 386.809 672.124 379.927 682.145 371.875C690.359 378.096 696.592 386.519 702.582 394.803C695.364 403.179 688.621 412.077 683.628 421.982C677.882 416.653 673.421 410.061 667.339 405.091C661.697 400.352 655.915 395.706 649.451 392.15Z" fill="#BBC9E6"/>
<path d="M150.289 471.395C163.183 461.976 178.059 454.607 194.082 452.777C208.911 450.854 224.065 453.993 237.597 460.122C233.276 468.858 228.34 478.08 229.267 488.171C229.429 491.669 232.743 494.079 236.021 494.427C228.931 513.381 223.196 533.053 221.47 553.281C220.578 561.982 222.188 570.845 220.242 579.441C217.172 572.942 216.894 564.867 211.588 559.526C208.402 556.34 202.25 557.313 200.639 561.658C198.218 567.485 199.817 574.042 199.736 580.16C191.765 575.722 182.693 572.119 173.413 573.405C159.464 575.815 148.678 585.663 137.081 592.973C135.216 592.707 133.907 591.038 132.424 590.007C116.239 576.151 101.583 560.603 87.7731 544.407C81.8066 537.119 75.6431 529.797 71.8662 521.085C73.129 519.869 74.3687 518.374 76.2687 518.27C83.1737 517.32 90.1597 518.339 96.9836 519.486C101.178 520.205 105.8 518.965 108.442 515.478C120.479 499.142 134.08 483.71 150.289 471.395Z" fill="#BBC9E6"/>
<path d="M603.143 271.857C613.234 281.763 623.441 291.553 633.624 301.354C624.843 323.042 615.841 344.638 606.85 366.245C604.429 372.281 601.996 378.317 599.169 384.191C587.815 378.189 577.296 370.636 568.491 361.251C576.462 338.671 586.124 316.728 594.419 294.264C597.292 286.78 600.351 279.365 603.143 271.857Z" fill="#FFFFFD"/>
<path opacity="0.52" d="M353.58 318.189C371.85 315.559 390.572 315.709 408.68 319.336L407.452 319.706C385.393 316.242 362.802 316.856 340.917 321.189C344.844 319.196 349.316 318.953 353.58 318.189Z" fill="#0C0C0C"/>
<path d="M502.894 335.23C509.37 328.707 517.584 324.386 525.509 319.914C526.146 332.508 529.077 345.217 535.565 356.13C523.667 358.714 511.618 361.703 501.121 368.098C495.016 371.794 490.416 377.367 484.983 381.908C485.342 378.108 485.666 374.308 486.072 370.52C487.775 357.393 493.301 344.499 502.894 335.23Z" fill="#BDC9E7"/>
<path opacity="0.47" d="M324.616 325.707C329.47 322.869 335.286 321.559 340.882 321.2C335.483 322.811 330.096 324.433 324.616 325.707Z" fill="#0E0E0E"/>
<path d="M348.528 341.255C369.799 336.968 392.032 337.42 413.118 342.459C431.295 347.128 448.558 354.81 464.951 363.869C464.221 370.241 463.538 376.637 463.943 383.067C453.806 383.681 443.553 384.48 433.74 387.307C427.993 380.344 420.81 374.575 413.002 370.091C408.599 367.415 401.59 368.99 400.443 374.505C398.543 379.915 403.085 384.318 406.468 387.863C413.036 394.629 420.474 402.229 420.741 412.274C421.459 417.093 418.679 421.751 414.612 424.161C406.572 429.304 396.817 430.463 387.583 431.888C364.458 435.375 340.986 432.317 318.29 427.497C306.148 424.311 294.018 420.326 283.232 413.757C278.691 410.756 274.416 406.771 272.481 401.58C270.905 391.628 277.023 382.511 283.232 375.351C299.95 356.397 324.268 346.317 348.528 341.255Z" fill="#BCC9E6"/>
<path d="M535.565 356.131C545.749 375.027 562.942 390.482 583.448 397.248C605.032 404.396 628.944 401.256 649.451 392.15C655.915 395.707 661.697 400.353 667.339 405.091C673.421 410.061 677.882 416.654 683.628 421.983C675.611 438.307 670.698 456.774 673.375 475.021C676.422 499.953 693.012 521.364 713.391 535.116C708.653 550.71 701.701 565.736 692.097 578.944C681.577 594.005 667.872 606.702 652.845 617.199C632.756 631.217 612.006 644.367 590.098 655.362C580.401 659.44 571.086 664.329 561.308 668.187C540.825 677.421 519.334 684.163 497.796 690.431C464.882 699.051 430.994 703.812 397.002 704.994C373.275 705.168 349.293 704.357 326.11 698.854C309.995 695.355 293.822 691.022 279.305 682.958C267.893 677.142 256.806 670.214 248.325 660.459C251.836 659.359 255.96 658.107 257.617 654.458C260.281 649.94 256.759 644.089 251.94 643.046C246.657 641.818 241.189 643.116 235.882 643.556C229.603 624.324 225.537 604.49 220.937 584.829C220.613 583.045 220.01 581.249 220.242 579.442C222.188 570.845 220.578 561.982 221.47 553.282C223.196 533.053 228.931 513.381 236.021 494.427C241.814 492.585 244.815 486.931 247.676 482.031C256.516 466.796 267.546 451.932 283.267 443.266C286.152 441.98 289.326 439.373 292.524 441.423C314.05 449.742 336.908 454.26 359.882 455.847C376.936 456.809 394.187 455.372 410.65 450.715C420.845 447.923 431.307 443.347 437.551 434.414C443.588 426.478 445.186 415.773 442.661 406.238C446.727 405.705 450.782 404.999 454.802 404.118C460.039 402.96 465.762 402.38 470.072 398.87C473.617 400.133 478.182 400.503 480.592 396.935C485.898 389.242 484.23 379.267 486.072 370.52C485.666 374.309 485.342 378.109 484.983 381.909C490.416 377.367 495.016 371.794 501.121 368.099C511.618 361.704 523.667 358.714 535.565 356.131ZM592.068 410.467C588.673 413.873 587.642 418.832 586.669 423.35C585.429 431.518 585.916 441.4 592.983 446.915C600.096 452.522 609.504 451.167 617.915 452.001C618.54 459.091 618.911 466.564 622.561 472.878C625.955 478.787 632.547 482.39 639.267 482.749C646.496 483.212 654.178 482.587 660.526 478.787C663.805 476.725 666.991 473.318 666.516 469.136C666.69 463.378 660.955 459.115 655.498 459.671C650.656 460.296 645.824 460.922 640.958 461.246C639.429 452.221 640.321 441.47 633.022 434.669C625.909 428.76 615.934 430.533 607.384 429.954C607.314 424.497 610.002 418.866 607.951 413.537C605.588 407.455 596.563 406.007 592.068 410.467Z" fill="#FCFBFC"/>
<path opacity="0.52" d="M948.206 381.491C950.442 385.662 951.022 390.435 952.145 394.977C956.629 415.101 957.741 435.897 956.2 456.438C955.262 462.856 955.331 469.564 952.933 475.681C955.227 459.334 956.977 442.779 955.54 426.269C954.914 411.092 951.601 396.24 948.206 381.491Z" fill="#0E0E0E"/>
<path opacity="0.55" d="M255.022 416.283C249.565 409.795 247.665 400.121 250.063 392.046C249.31 400.445 250.7 408.949 255.022 416.283Z" fill="#0D0D0D"/>
<path d="M592.068 410.467C596.563 406.006 605.588 407.454 607.951 413.537C610.002 418.866 607.314 424.497 607.384 429.953C615.934 430.533 625.909 428.76 633.022 434.669C640.321 441.469 639.429 452.221 640.958 461.246C645.824 460.922 650.656 460.296 655.498 459.67C660.955 459.114 666.69 463.378 666.516 469.136C666.991 473.318 663.805 476.724 660.526 478.786C654.178 482.586 646.496 483.212 639.267 482.749C632.547 482.39 625.955 478.786 622.561 472.878C618.911 466.564 618.541 459.091 617.915 452.001C609.504 451.167 600.096 452.522 592.983 446.915C585.916 441.4 585.429 431.518 586.669 423.35C587.642 418.831 588.673 413.873 592.068 410.467Z" fill="#020202"/>
<path d="M748.183 417.881C751.6 420.279 754.172 423.616 757.173 426.477C764.391 433.649 771.748 440.681 778.931 447.887C767.218 475.333 755.713 502.861 744.371 530.457C732.403 525.105 721.93 516.798 712.847 507.391C724.432 477.488 736.667 447.818 748.183 417.881Z" fill="#FEFEFC"/>
<path opacity="0.58" d="M184.362 431.205C190.027 428.864 196.353 429.189 202.377 428.945C208.378 429.293 214.669 428.945 220.346 431.205C208.39 429.768 196.306 429.501 184.362 431.205Z" fill="#0A0A0A"/>
<path d="M830.544 513.566C837.935 519.452 844.516 526.287 851.711 532.416C863.817 542.785 875.137 554.058 887.429 564.218C863.632 594.839 835.329 621.532 806.226 647.02C798.915 645.166 791.385 643.776 783.831 644.541C780.738 644.703 777.656 646.186 775.779 648.665C774.424 651.318 774.424 655.06 776.625 657.296C778.942 659.961 782.568 660.784 785.801 661.815C805.009 666.936 824.438 671.222 843.508 676.841C847.343 677.733 851.386 679.425 855.348 678.231C859.183 676.297 860.156 670.921 857.735 667.515C855.823 664.827 852.858 663.124 850.054 661.537C844.597 658.721 839.082 656.022 833.417 653.647C841.863 646.047 850.297 638.424 858.592 630.65C871.533 618.114 883.814 604.918 895.724 591.398C897.311 588.826 900.891 590.008 902.791 591.56C906.962 595.383 906.904 601.755 905.502 606.83C902.849 615.704 896.825 623.281 894.832 632.399C893.557 638.667 896.883 644.413 900.416 649.291C912.639 666.368 925.835 683.225 933.365 703.036C937.606 715.085 940.56 728.466 937.05 741.071C934.42 750.919 926.09 758.079 917.007 762.006C902.525 768.367 886.502 770.047 870.862 771.101C837.889 772.12 804.928 769.259 772.222 765.331C742.413 761.995 712.731 757.615 683.153 752.645C668.984 750.745 654.757 747.42 640.379 748.926C636.556 749.274 635.038 753.746 631.319 754.232C612.817 758.113 594.477 762.806 575.952 766.559C538.624 773.823 500.843 778.585 462.959 781.713C412.492 785.2 361.794 786.162 311.211 784.343C276.061 782.825 240.91 780.937 205.83 778.203C186.516 776.986 167.285 775.063 147.971 774.171C135.413 772.781 122.588 773.928 110.249 770.777C112.195 762.898 116.424 755.866 120.41 748.891C131.288 730.03 144.473 712.675 156.892 694.833C159.545 690.941 162.534 687.314 165.338 683.538C170.308 684.198 175.255 686.052 180.307 685.206C185.601 683.931 190.05 680.63 194.916 678.37C211.877 670.168 230.101 664.989 248.325 660.459C256.806 670.214 267.893 677.142 279.305 682.958C293.822 691.022 309.995 695.355 326.11 698.854C349.293 704.357 373.275 705.168 397.002 704.994C430.994 703.812 464.882 699.051 497.796 690.431C519.334 684.163 540.825 677.42 561.308 668.187C571.086 664.329 580.401 659.44 590.098 655.362C612.006 644.367 632.756 631.217 652.845 617.199C667.872 606.702 681.577 594.005 692.097 578.943C701.701 565.736 708.653 550.71 713.391 535.115C731.036 546.701 753.222 552.505 774.088 547.813C796.343 543.666 815.274 529.659 830.544 513.566Z" fill="#BCCAE7"/>
<path d="M936.98 527.145C938.544 524.41 938.845 520.807 941.383 518.745C956.988 564.589 954.474 615.855 936.088 660.494C930.168 651.909 923.321 643.95 917.957 634.983C921.664 624.892 927.746 615.531 929.079 604.675C929.774 597.121 929.774 589.034 925.893 582.245C923.216 576.754 918.316 572.85 913.23 569.71C922.405 556.271 930.678 542.171 936.98 527.145Z" fill="#BDCAE6"/>
<path opacity="0.51" d="M972.64 550.744C974.644 555.297 973.903 560.395 974.517 565.226C975.618 575.595 975.316 586.057 974.366 596.437C973.961 599.983 974.459 603.817 972.698 607.073C974.552 588.351 974.297 569.478 972.64 550.744Z" fill="#0F0F0F"/>
<path opacity="0.51" d="M160.264 603.493C165.755 599.148 172.301 595.928 179.252 594.896C184.535 595.209 188.938 598.743 193.317 601.384C188.741 600.017 184.848 597.005 180.249 595.765C172.915 596.252 166.844 600.736 160.264 603.493Z" fill="#0B0C0C"/>
<path opacity="0.4" d="M960.012 714.726C963.268 724.052 963.465 734.919 960.267 744.35C961.912 734.537 961.588 724.515 960.012 714.726Z" fill="#0F0F0F"/>
<path opacity="0.57" d="M90.2524 784.667C85.0621 778.237 85.5255 768.726 88.9896 761.601C87.2634 769.224 86.5682 777.473 90.2524 784.667Z" fill="#0D0E0E"/>
<path opacity="0.58" d="M639.615 774.774C645.106 772.92 650.655 770.545 656.518 770.418C666.979 771.889 677.314 774.172 687.775 775.643C694.958 776.883 702.269 777.508 709.313 779.455C692.004 778.111 674.997 774.114 657.815 771.704C651.501 770.87 645.848 774.693 639.615 774.774Z" fill="#0D0D0D"/>
<path opacity="0.6" d="M710.449 779.686C720.192 780.358 729.912 781.84 739.424 784.065C733.759 784.088 728.244 782.733 722.683 781.968C718.57 781.365 714.411 780.96 710.449 779.686Z" fill="#0D0D0E"/>
<path opacity="0.49" d="M598.08 783.903C603.583 782.489 609.144 781.25 614.81 780.636C609.631 782.964 603.734 783.741 598.08 783.903Z" fill="#101010"/>
<path opacity="0.48" d="M540.628 793.322C559.698 790.078 578.825 787.042 597.918 783.938C596.401 784.702 594.802 785.351 593.11 785.629C577.215 788.34 561.308 790.982 545.366 793.368C543.779 793.611 542.192 793.6 540.628 793.322Z" fill="#0F0F0F"/>
<path opacity="0.51" d="M740.663 784.297C748.611 784.702 756.466 786 764.356 786.95C798.545 790.843 832.965 793.461 867.409 792.291C884.787 792.245 902.026 789.371 918.86 785.189C915.535 787.274 911.608 787.83 907.866 788.711C885.482 793.658 862.427 793.866 839.615 793.612C812.505 792.662 785.441 790.565 758.528 787.205C752.562 786.266 746.433 786.174 740.663 784.297Z" fill="#0E0E0F"/>
<path opacity="0.56" d="M108.5 793.611C138.02 796.403 167.748 796.948 197.21 800.227C185.034 800.841 172.857 798.535 160.658 798.257C142.828 796.682 124.8 796.913 107.121 793.924L108.5 793.611Z" fill="#0B0B0B"/>
<path opacity="0.55" d="M490.138 800.041C506.671 798.188 523.064 795.141 539.597 793.438C537.372 795.036 534.499 794.816 531.927 795.291C509.787 798.512 487.636 801.628 465.357 803.691C426.07 807.027 386.622 808.371 347.196 808.522C302.696 807.757 258.254 805.371 213.881 801.999C208.355 801.524 202.62 802.022 197.303 800.238C233.403 801.872 269.411 805.486 305.558 806.228C328.648 807.78 351.807 807.34 374.932 807.236C389.275 807.305 403.56 805.904 417.902 805.904C442.024 804.548 466.156 803.042 490.138 800.041Z" fill="#0C0C0C"/>
</svg>
