<svg width="1024" height="1024" viewBox="0 0 1024 1024" fill="none" xmlns="http://www.w3.org/2000/svg">
<path d="M443.127 111.094C478.943 106.552 515.509 107.091 551.008 113.935C591.387 122.131 630.108 139.168 662.703 164.475C687.386 182.853 708.077 206.216 724.776 231.998C727.575 235.568 728.758 240.976 733.31 242.793C799.619 275.123 855.281 330.912 883.281 399.576C889.946 416.687 895.797 435.012 893.336 453.612C892.185 461.502 888.087 468.948 881.623 473.691C870.258 482.341 855.45 483.281 842.681 488.847C827.587 494.699 814.849 505.197 803.77 516.784C806.072 545.365 808.301 573.946 809.632 602.59C812.008 650.891 813.086 699.783 803.854 747.492C822 763.652 842.057 777.721 858.798 795.433C867.016 804.633 875.106 815.015 877.208 827.5C878.528 834.502 877.187 842.424 872.085 847.673C864.998 855.447 854.457 858.426 844.687 861.235C812.959 869.41 780.005 870.783 747.4 871.1C737.229 871.449 727.1 870.044 716.939 870.487C713.253 871.554 709.904 873.55 706.356 874.987C680.162 886.32 651.781 891.105 623.739 895.414C592.824 899.66 561.845 903.462 530.803 906.652C503.416 909.662 475.996 912.482 448.535 914.669C433.072 915.778 417.461 916.232 402.062 914.088C392.746 912.767 383.356 910.233 375.635 904.645C365.887 897.907 359.75 887.408 354.606 877.015C346.864 876.18 339.228 874.48 331.792 872.198C328.866 871.343 325.972 869.695 322.835 870.297C300.792 874.068 278.517 876.201 256.294 878.641C239.416 880.426 222.475 881.599 205.543 882.834C196.777 883.014 187.609 883.711 179.36 880.141C167.795 875.261 159.662 864.984 153.451 854.444C142.974 836.076 136.372 815.681 132.665 794.916C130.067 780.805 129 766.345 130.352 752.044C131.736 741.07 134.894 729.579 142.942 721.541C148.487 715.816 156.271 711.993 164.372 712.574C176.065 712.109 185.634 720.094 193.577 727.73C203.463 725.227 213.518 723.347 223.636 722.069C223.436 719.872 220.827 720.252 219.359 719.523C202.016 713.767 185.972 702.677 176.371 686.897C170.076 676.831 166.865 665.044 166.432 653.225C165.819 633.569 171.914 614.452 179.804 596.686C189.014 577.22 200.537 558.789 214.732 542.566C205.079 530.958 197.485 517.185 194.728 502.229C193.587 492.713 193.767 482.753 197.252 473.701C198.361 470.469 200.389 467.628 201.319 464.333C183.522 450.222 174.047 428.084 171.259 405.977C169.77 397.285 170.277 388.423 169.094 379.699C163.538 377.481 157.275 374.576 155.479 368.313C154.159 363.116 153.779 357.36 155.5 352.216C156.937 348.15 160.94 344.971 165.355 345.161C178.515 344.918 191.686 345.171 204.846 345.066C214.933 301.339 231.854 258.699 258.037 222.028C280.144 190.257 309.274 163.324 342.988 144.249C373.692 126.589 408.072 115.71 443.127 111.094ZM440.075 134.405C406.635 139.39 374.136 151.061 345.375 168.89C331.76 177.413 319.16 187.511 307.468 198.506C274.334 230.562 250.77 271.617 236.469 315.249C233.132 324.892 230.079 334.651 228.104 344.685C263.16 344.58 298.226 344.706 333.281 344.654C338.098 344.833 343.96 344.569 347.097 349.016C350.318 353.832 348.818 360.095 350.741 365.387C359.761 362.218 369.478 364.003 378.382 366.591C379.364 362.461 379.343 358.205 379.543 354.001C381.128 351.149 382.881 348.086 385.923 346.587C389.324 345.097 393.105 344.685 396.791 344.58C492.178 344.654 587.595 344.548 682.971 344.78C687.555 344.495 692.139 345.076 696.723 345.15C703.071 345.277 709.155 347.938 714.119 351.794C722.04 357.846 729.339 364.658 736.51 371.555C739.499 374.544 742.182 378.378 741.929 382.814C742.467 388.138 738.813 392.965 734.229 395.246C728.473 397.622 721.586 396.218 716.981 392.077C710.095 386.184 704.011 379.318 696.628 373.995C691.812 373.161 686.879 374.101 682.021 374.027C647.049 375.907 612.068 377.681 577.097 379.509C577.044 390.884 577.012 402.344 574.784 413.561C571.7 429.024 566.26 444.455 556.184 456.802C543.794 473.268 524.793 483.777 505.106 488.868C493.899 491.477 482.291 492.618 470.81 491.604C452.348 490.727 433.864 484.96 419.035 473.754C405.568 464.111 395.45 450.486 388.637 435.498C384.529 425.982 381.487 415.969 379.945 405.702C379.11 401.626 379.343 397.39 378.139 393.387C369.245 389.426 359.074 388.856 349.906 392.236C348.375 396.778 348.237 401.636 347.097 406.283C345.259 416.793 341.319 426.753 336.851 436.385L336.556 436.406C329.109 451.943 317.132 465.368 302.239 474.103C287.389 482.964 269.698 485.858 252.619 484.76C240.979 483.725 229.35 481.306 218.894 475.93C214.447 485.467 215.208 496.568 218.778 506.243C222.137 514.693 226.456 522.91 232.244 529.955C234.114 532.532 236.321 534.856 238.318 537.348C242.69 529.913 248.225 523.142 254.742 517.492C264.501 509.274 277.154 504.046 290.051 504.743C302.176 504.923 313.942 510.933 321.41 520.46C332.679 534.243 335.795 552.579 337.686 569.774C339.365 593.908 336.461 618.307 329.743 641.522C324.156 660.386 315.432 678.817 301.574 693.044C297.233 697.385 292.586 701.589 286.977 704.219C284.041 704.779 280.492 705.603 277.936 703.532C275.961 702.159 275.581 699.667 274.863 697.575C276.468 691.069 282.203 687.108 286.09 682.049C300.645 664.199 308.957 642.061 313.393 619.659C316.741 600.489 318.209 580.801 315.527 561.462C313.763 550.741 310.9 539.429 303.084 531.434C295.67 524.484 284.094 524.431 275.306 528.666C264.987 533.599 257.509 542.777 251.225 552.072C242.363 566.046 234.304 580.6 223.974 593.592C222.348 595.82 219.792 596.94 217.215 597.658C215.472 596.876 213.433 596.391 212.25 594.775C210.402 592.704 210.972 589.662 211.564 587.212C215.239 576.428 223.256 567.725 226.942 556.952C226.615 556.814 225.971 556.529 225.654 556.392C212.557 575.404 200.368 595.345 193.207 617.451C187.81 632.671 184.895 649.623 189.542 665.424C193.989 680.475 206.431 692.062 220.489 698.325C230.734 703.025 242.036 704.536 253.136 705.666C258.322 706.152 262.558 710.609 262.938 715.795L262.125 716.154C261.216 722.333 264.702 729.072 261.047 734.722L261.068 735.419C256.125 740.373 248.816 738.683 242.574 739.496C229.91 740.986 217.415 743.584 205.015 746.531C206.251 749.425 207.55 752.477 207.17 755.709C206.938 760.145 202.702 764.286 198.139 763.652C194.231 763.282 191.475 760.177 189.426 757.135C184.472 749.9 179.687 742.2 172.4 737.057C169.4 735.092 165.809 733.233 162.112 734.194C156.092 737.152 153.8 744.112 152.638 750.259C149.902 766.546 152.247 783.202 155.754 799.183C159.936 816.008 165.059 833.034 174.892 847.515C178.8 853.208 183.807 858.827 190.725 860.696C197.052 861.415 203.452 860.717 209.768 860.179C237.557 858.489 265.262 855.51 292.945 852.574C289.491 849.617 285.657 846.311 284.77 841.611C284.147 839.213 285.477 836.773 287.041 835.052C289.797 832.39 294.012 832.76 297.434 833.615C304.764 837.946 311.999 842.487 319.783 845.983C328.391 849.701 337.464 852.141 346.569 854.306C339.122 829.306 336.334 802.742 339.407 776.791C341.034 765.511 344.234 754.061 351.258 744.894C357.109 737.289 365.823 731.321 375.572 730.519C384.022 729.494 392.556 732.071 399.706 736.528C396.548 727.17 396.084 716.872 399.052 707.409C403.329 693.277 413.86 682.155 425.108 673.114C439.367 661.96 454.302 651.715 468.233 640.149C486.611 625.605 503.891 609.635 519.681 592.314C523.832 587.899 527.244 581.392 534.067 581.107C536.105 581.688 538.102 582.427 539.982 583.473L539.844 583.758C544.967 589.409 539.876 596.792 536.274 601.756C513.397 631.911 483.316 655.496 453.14 677.888C444.701 684.257 435.797 690.15 428.488 697.85C422.288 704.663 417.345 713.535 418.201 723.041C418.528 732.124 425.193 739.834 433.104 743.658C444.416 749.044 457.238 749.731 469.564 750.238C521.371 751.241 572.65 733.191 614.434 702.962C618.384 700.533 622.007 696.593 627.003 696.773C630.435 696.678 633.615 699.244 634.449 702.55C635.23 705.508 633.784 708.56 631.872 710.778C626.02 717.707 618.775 723.262 611.476 728.565C600.883 736.021 589.507 742.464 577.54 747.418C578.512 748.812 579.906 749.847 580.91 751.231C583.191 754.695 581.227 759.913 577.382 761.275C574.657 761.941 571.816 761.634 569.091 761.18C563.419 760.092 557.705 759.205 551.97 758.603C548.611 758.223 545.516 759.786 542.369 760.642C528.965 764.909 515.118 767.634 501.166 769.366C480.285 772.26 458.738 772.397 438.205 767.158C434.614 767.708 431.055 768.479 427.485 769.144C429.396 774.837 433.135 781.597 429.513 787.321C427.907 790.215 424.168 790.786 421.264 789.835C417.493 788.23 415.592 784.375 413.543 781.09C407.66 771.51 401.006 761.909 391.479 755.625C386.25 752.393 379.184 750.164 373.449 753.396C367.481 756.892 364.683 763.715 362.781 770.031C360.088 779.801 359.497 790.015 359.549 800.102C360.352 822.884 364.598 845.783 373.724 866.759C377.79 875.304 382.807 884.303 391.563 888.77C400.372 893.175 410.459 892.626 420.028 893.206C451.461 893.196 482.682 889.034 513.925 886.035C552.086 881.873 590.257 877.67 628.281 872.272C657.781 867.203 687.851 860.992 714.161 846.068C735.158 834.376 752.607 816.515 763.729 795.211C770.034 783.054 774.714 770.084 778.252 756.871C787.673 719.978 789.12 681.648 788.349 643.751C787.821 611.315 785.698 578.931 783.026 546.622C779.392 503.867 774.872 461.122 767.32 418.842C759.208 374.09 748.086 329.539 729.117 288.041C712.619 251.528 690.016 217.116 659.259 191.06C628.682 164.369 591.007 146.382 551.547 137.415C514.992 129.483 477.021 129.113 440.075 134.405ZM749.829 278.112C759.768 300.092 767.975 322.822 774.745 345.984C781.611 371.302 787.103 396.968 791.655 422.803C795.046 444.645 798.108 466.54 800.918 488.456C811.279 479.553 823.077 472.244 835.794 467.206C843.906 463.815 852.588 462.231 860.911 459.495C865.495 457.869 870.829 454.88 871.346 449.493C872.55 434.379 867.111 419.782 861.576 405.988C844.328 365.641 817.141 329.655 783.332 301.719C772.612 293.29 761.923 284.524 749.829 278.112ZM223.055 367.32C228.78 395.098 236.395 422.443 243.261 449.968C244.623 454.806 245.521 459.802 247.412 464.491C264.417 464.576 281.643 464.09 298.099 459.358C290.6 428.686 283.312 397.95 275.876 367.246C258.269 367.394 240.662 367.309 223.055 367.32ZM439.504 367.721C446.254 400.4 455.305 432.53 463.259 464.924C480.718 466.318 498.325 465.537 515.678 463.276C507.947 431.358 500.173 399.45 492.209 367.594C474.644 367.837 457.069 367.637 439.504 367.721ZM798.035 771.521C789.627 800.82 774.133 828.714 750.452 848.37C760.127 848.592 769.802 848.149 779.456 847.589C801.594 846.163 823.996 844.315 845.247 837.565C848.511 836.361 852.271 835.654 854.658 832.897C855.64 829.2 853.274 825.757 851.648 822.62C844.719 811.509 834.537 803.017 824.894 794.366C815.937 786.751 806.907 779.22 798.035 771.521Z" fill="#010101"/>
<path d="M350.909 467.079C360.489 464.84 370.006 469.234 377.515 474.885C380.42 477.251 383.504 479.606 385.543 482.817C388.553 487.601 386.102 494.72 380.79 496.643C377.621 498.079 373.924 497.097 371.252 495.09C366.626 491.795 362.253 487.696 356.655 486.176C350.836 487.042 346.78 491.7 341.837 494.393C336.461 497.266 329.035 492.502 329.342 486.429C329.004 481.93 332.288 478.444 335.415 475.709C339.862 471.748 345.079 468.463 350.909 467.079Z" fill="#010101"/>
<path d="M440.075 134.405C477.021 129.114 514.992 129.483 551.547 137.416C591.007 146.383 628.682 164.37 659.259 191.06C690.016 217.117 712.619 251.528 729.117 288.042C748.087 329.54 759.208 374.091 767.32 418.843C774.872 461.123 779.393 503.867 783.026 546.623C785.698 578.932 787.821 611.316 788.349 643.752C789.12 681.648 787.673 719.978 778.252 756.872C774.714 770.085 770.035 783.055 763.729 795.212C752.607 816.516 735.159 834.376 714.161 846.069C687.851 860.993 657.781 867.203 628.281 872.273C590.257 877.67 552.086 881.874 513.925 886.036C482.682 889.035 451.461 893.197 420.028 893.207C410.459 892.626 400.372 893.176 391.563 888.771C382.807 884.303 377.79 875.305 373.724 866.76C364.598 845.783 360.352 822.885 359.549 800.102C359.497 790.016 360.088 779.802 362.781 770.032C364.683 763.716 367.482 756.893 373.449 753.397C379.184 750.165 386.25 752.393 391.479 755.625C401.006 761.91 407.66 771.511 413.543 781.091C415.592 784.375 417.493 788.231 421.264 789.836C424.168 790.787 427.907 790.216 429.513 787.322C433.136 781.598 429.397 774.838 427.485 769.145C431.055 768.48 434.614 767.708 438.205 767.159C458.738 772.398 480.285 772.261 501.166 769.367C515.118 767.635 528.965 764.909 542.369 760.642C545.516 759.787 548.611 758.224 551.97 758.604C557.705 759.206 563.419 760.093 569.091 761.181C571.816 761.635 574.657 761.942 577.382 761.276C581.227 759.914 583.191 754.696 580.91 751.232C579.906 749.848 578.512 748.813 577.54 747.419C589.507 742.465 600.883 736.022 611.476 728.565C618.775 723.263 626.02 717.708 631.872 710.779C633.784 708.561 635.231 705.508 634.449 702.551C633.615 699.245 630.435 696.678 627.003 696.773C622.007 696.594 618.384 700.534 614.434 702.963C572.65 733.192 521.371 751.242 469.564 750.239C457.238 749.732 444.416 749.045 433.104 743.659C425.193 739.835 418.528 732.125 418.201 723.041C417.345 713.536 422.288 704.663 428.488 697.851C435.797 690.151 444.701 684.257 453.14 677.888C483.316 655.497 513.397 631.912 536.274 601.757C539.876 596.793 544.967 589.41 539.844 583.759L539.982 583.474C542.538 578.372 544.048 572.468 542.4 566.849C538.25 549.485 533.169 532.015 523.927 516.605C518.889 506.561 511.834 497.794 505.106 488.869C524.793 483.778 543.795 473.269 556.184 456.803C566.26 444.456 571.7 429.024 574.784 413.561C577.012 402.345 577.044 390.885 577.097 379.509C612.068 377.682 647.05 375.908 682.021 374.028C686.879 374.102 691.812 373.161 696.628 373.996C704.011 379.319 710.095 386.185 716.981 392.078C721.586 396.219 728.473 397.623 734.229 395.247C738.813 392.965 742.468 388.139 741.929 382.815C742.182 378.379 739.5 374.545 736.511 371.556C729.339 364.659 722.04 357.846 714.119 351.794C709.155 347.939 703.071 345.278 696.723 345.151C692.139 345.077 687.555 344.496 682.971 344.781C587.596 344.549 492.178 344.654 396.791 344.58C393.105 344.686 389.324 345.098 385.923 346.587C382.881 348.087 381.128 351.15 379.544 354.002C379.343 358.206 379.364 362.462 378.382 366.592C369.478 364.004 359.761 362.219 350.741 365.388C348.818 360.096 350.318 353.833 347.097 349.017C343.96 344.57 338.098 344.834 333.282 344.654C298.226 344.707 263.16 344.58 228.104 344.686C230.079 334.652 233.132 324.893 236.469 315.25C250.77 271.618 274.335 230.563 307.468 198.507C319.16 187.512 331.761 177.414 345.375 168.891C374.136 151.062 406.635 139.391 440.075 134.405Z" fill="#BCCBE7"/>
<path d="M749.829 278.112C761.923 284.523 772.612 293.29 783.332 301.719C817.141 329.655 844.328 365.64 861.576 405.988C867.111 419.782 872.55 434.378 871.346 449.493C870.828 454.879 865.495 457.869 860.911 459.495C852.588 462.231 843.906 463.815 835.794 467.205C823.077 472.244 811.279 479.552 800.918 488.456C798.108 466.54 795.045 444.645 791.655 422.802C787.103 396.968 781.61 371.302 774.745 345.984C767.975 322.822 759.768 300.092 749.829 278.112Z" fill="#BCCBE7"/>
<path d="M349.906 392.236C359.074 388.856 369.245 389.427 378.139 393.388C379.343 397.391 379.11 401.626 379.945 405.703C381.487 415.969 384.529 425.982 388.637 435.499C376.977 433.935 365.169 433.756 353.445 434.717C347.921 435.361 342.418 436.259 336.852 436.386C341.319 426.753 345.259 416.793 347.097 406.284C348.237 401.637 348.375 396.778 349.906 392.236Z" fill="#BCCBE7"/>
<path d="M218.894 475.931C229.35 481.307 240.979 483.725 252.619 484.761C246.778 492.112 242.49 500.488 238.708 509.032C235.445 515.602 233.66 522.784 232.244 529.956C226.456 522.911 222.136 514.694 218.778 506.244C215.208 496.569 214.447 485.468 218.894 475.931Z" fill="#BCCBE7"/>
<path d="M275.306 528.666C284.094 524.431 295.67 524.484 303.085 531.434C310.9 539.429 313.763 550.741 315.527 561.462C318.209 580.801 316.741 600.488 313.393 619.659C308.957 642.061 300.645 664.199 286.09 682.049C282.203 687.108 276.468 691.069 274.863 697.575C275.581 699.666 275.961 702.159 277.936 703.532C280.492 705.602 284.041 704.779 286.977 704.219C283.397 705.476 279.204 705.486 276.362 708.338C272.465 711.75 267.628 713.735 262.938 715.795C262.558 710.609 258.322 706.152 253.136 705.666C242.036 704.536 230.734 703.025 220.489 698.325C206.431 692.062 193.989 680.475 189.542 665.424C184.895 649.623 187.81 632.671 193.207 617.451C200.368 595.345 212.557 575.404 225.654 556.392C225.971 556.529 226.615 556.814 226.942 556.951C223.256 567.725 215.24 576.428 211.564 587.212C210.972 589.662 210.402 592.704 212.251 594.774C213.433 596.39 215.472 596.876 217.215 597.658C219.792 596.94 222.348 595.82 223.974 593.591C234.304 580.6 242.363 566.045 251.225 552.072C257.509 542.777 264.987 533.599 275.306 528.666Z" fill="#BCCBE7"/>
<path d="M152.638 750.26C153.8 744.113 156.092 737.152 162.112 734.195C165.809 733.234 169.4 735.093 172.4 737.057C179.688 742.201 184.472 749.901 189.426 757.136C191.475 760.177 194.232 763.283 198.14 763.652C202.702 764.286 206.938 760.146 207.17 755.71C207.55 752.478 206.251 749.425 205.015 746.531C217.415 743.584 229.91 740.986 242.574 739.497C248.816 738.684 256.125 740.374 261.069 735.42C261.195 750.619 262.769 765.818 266.17 780.647C270.986 798.856 277.915 817.044 290.378 831.482C292.786 831.957 295.226 832.496 297.434 833.616C294.012 832.76 289.797 832.39 287.041 835.052C285.478 836.774 284.147 839.214 284.77 841.611C285.657 846.311 289.491 849.617 292.945 852.575C265.262 855.511 237.557 858.489 209.768 860.179C203.452 860.718 197.052 861.415 190.725 860.697C183.807 858.827 178.8 853.208 174.892 847.515C165.059 833.035 159.936 816.009 155.754 799.183C152.247 783.203 149.903 766.546 152.638 750.26Z" fill="#BCCBE7"/>
<path d="M798.035 771.521C806.907 779.221 815.937 786.752 824.894 794.367C834.537 803.018 844.719 811.51 851.648 822.621C853.274 825.758 855.64 829.201 854.658 832.898C852.271 835.654 848.511 836.362 845.247 837.566C823.996 844.315 801.594 846.164 779.456 847.59C769.802 848.149 760.127 848.593 750.452 848.371C774.133 828.715 789.627 800.821 798.035 771.521Z" fill="#BCCBE7"/>
<path d="M223.055 367.32C240.662 367.309 258.269 367.394 275.876 367.246C283.312 397.95 290.6 428.686 298.099 459.358C281.643 464.09 264.417 464.576 247.412 464.491C245.521 459.802 244.623 454.806 243.261 449.968C236.395 422.444 228.78 395.098 223.055 367.32Z" fill="#FCFCFC"/>
<path d="M439.504 367.722C457.069 367.638 474.644 367.839 492.209 367.596C500.173 399.451 507.947 431.359 515.678 463.278C498.325 465.538 480.718 466.32 463.259 464.925C455.305 432.531 446.254 400.402 439.504 367.722Z" fill="#FCFCFC"/>
<path d="M336.852 436.386C342.418 436.259 347.921 435.362 353.445 434.717C365.169 433.756 376.977 433.936 388.638 435.499C395.45 450.487 405.569 464.112 419.035 473.755C433.864 484.961 452.348 490.728 470.811 491.605C482.292 492.619 493.899 491.478 505.106 488.869C511.834 497.794 518.889 506.561 523.927 516.605C533.169 532.015 538.25 549.485 542.4 566.849C544.048 572.468 542.538 578.372 539.982 583.474C538.102 582.428 536.105 581.689 534.067 581.108C527.244 581.393 523.832 587.899 519.681 592.314C503.891 609.636 486.611 625.606 468.233 640.15C454.302 651.715 439.367 661.961 425.108 673.114C413.86 682.155 403.329 693.277 399.052 707.409C396.084 716.873 396.549 727.171 399.707 736.529C392.556 732.072 384.022 729.495 375.572 730.519C365.823 731.322 357.11 737.29 351.258 744.894C344.234 754.062 341.034 765.511 339.408 776.792C336.334 802.743 339.122 829.306 346.569 854.307C337.464 852.142 328.391 849.702 319.783 845.984C311.999 842.488 304.764 837.946 297.434 833.616C295.226 832.496 292.787 831.958 290.378 831.482C277.915 817.044 270.986 798.856 266.17 780.647C262.769 765.818 261.195 750.619 261.069 735.42L261.047 734.723C264.702 729.072 261.216 722.334 262.125 716.155L262.938 715.796C267.628 713.736 272.465 711.75 276.362 708.339C279.204 705.487 283.397 705.477 286.977 704.22C292.586 701.59 297.233 697.386 301.574 693.045C315.432 678.818 324.156 660.387 329.743 641.523C336.461 618.308 339.365 593.909 337.686 569.775C335.795 552.58 332.68 534.244 321.41 520.46C313.942 510.933 302.176 504.924 290.051 504.744C277.155 504.047 264.501 509.275 254.742 517.492C248.225 523.143 242.691 529.913 238.318 537.349C236.322 534.856 234.114 532.533 232.245 529.956C233.66 522.784 235.445 515.602 238.709 509.032C242.49 500.487 246.778 492.112 252.619 484.76C269.698 485.859 287.389 482.965 302.24 474.103C317.132 465.368 329.11 451.944 336.556 436.407L336.852 436.386ZM350.91 467.08C345.079 468.463 339.862 471.748 335.415 475.709C332.289 478.444 329.004 481.93 329.342 486.429C329.036 492.503 336.461 497.266 341.837 494.393C346.78 491.7 350.836 487.042 356.656 486.176C362.253 487.697 366.626 491.795 371.252 495.09C373.925 497.097 377.621 498.079 380.79 496.643C386.103 494.721 388.553 487.602 385.543 482.817C383.504 479.606 380.42 477.251 377.516 474.885C370.006 469.234 360.49 464.84 350.91 467.08Z" fill="#FCFCFC"/>
</svg>
