<svg width="1024" height="1024" viewBox="0 0 1024 1024" fill="none" xmlns="http://www.w3.org/2000/svg">
<g clip-path="url(#clip0_42_2510)">
<path opacity="0.56" d="M540.549 162.485C568.268 155.063 597.115 151.448 625.807 153.081C637.889 154.018 649.947 155.327 661.872 157.537C663.314 157.837 664.707 158.33 666.04 159.026C645.635 155.687 625.014 152.985 604.285 153.838C584.037 154.366 563.896 157.441 544.296 162.485C539.3 163.782 534.412 165.463 529.344 166.448C532.743 164.31 536.766 163.65 540.549 162.485Z" fill="#0D0E0E"/>
<path d="M544.296 162.485C563.896 157.441 584.037 154.366 604.285 153.838C625.014 152.985 645.635 155.687 666.04 159.026C707.042 167.313 746.038 186.084 777.792 213.394C814.77 244.32 841.083 286.414 858.053 331.199C861.236 339.942 864.731 348.613 867.025 357.657C870.087 370.399 873.714 383.01 876.741 395.776C880.848 413.767 883.971 431.986 886.205 450.301C887.946 467.067 890.204 483.796 892.221 500.526L892.245 500.802C897.278 557.153 901.901 613.959 896.521 670.466C895.932 678.728 894.143 686.859 893.482 695.122C892.69 701.895 890.876 708.489 889.495 715.154C889.988 717.268 891.813 718.697 893.11 720.367C903.198 732.605 913.707 744.482 924.144 756.432C930.221 764.07 937.619 771.901 938.471 782.133C939.252 790.924 932.286 798.467 924.408 801.229C917.178 803.307 909.948 805.372 902.646 807.162L902.418 807.21C881.497 810.02 860.287 809.756 839.378 807.09C834.814 806.705 830.311 805.456 825.723 805.649C822.216 806.585 819.418 809.035 816.559 811.125C804.129 818.763 790.558 824.396 776.999 829.692C766.694 833.499 756.27 837.102 745.605 839.745C731.482 843.179 717.382 846.722 703.306 850.337L703.018 850.397C691.837 852.307 680.668 854.577 669.763 857.663C665.511 858.732 661.2 859.621 656.852 860.113C645.035 861.662 633.301 863.872 621.567 865.914L621.255 865.962C591.939 869.469 562.251 873.216 532.73 869.721C519.436 867.667 505.864 862.683 496.557 852.583C493.626 849.689 491.645 846.05 489.363 842.663C488.894 842.831 487.934 843.155 487.465 843.311C478.206 846.386 469.126 849.989 459.759 852.727C452.132 855.105 444.302 856.69 436.616 858.816C424.522 860.594 412.404 862.828 400.13 862.323C391.747 862.407 383.592 860.401 375.425 858.888C357.014 853.892 339.912 841.354 331.637 823.916C330.593 820.168 329.584 816.421 328.515 812.698C278.59 808.579 228.617 805.048 178.68 801.157C170.549 799.992 163.559 794.551 158.996 787.91C155.261 782.109 153.447 775.396 151.297 768.922C130.244 704.093 108.41 639.504 87.8854 574.507C84.1383 562.749 90.3594 549.154 101.649 544.242C105.732 543.053 109.959 542.284 114.223 542.417C129.56 542.705 144.884 543.834 160.233 543.389C163.547 543.401 166.862 543.389 170.177 543.509C198.736 544.734 227.344 544.458 255.915 545.047C279.611 545.371 303.294 546.26 326.99 545.815C332.394 545.875 337.798 545.719 343.203 545.947C358.708 546.992 374.284 546.668 389.813 547.064C396.335 547.028 402.856 547.605 409.365 547.22C409.954 545.851 408.573 545.179 407.732 544.434C397.692 536.4 388.936 526.107 384.577 513.893C383.532 509.281 382.367 504.657 382.319 499.914C382.127 497.824 382.523 495.494 381.142 493.741C364.028 482.211 353.459 462.791 349.748 442.831C348.643 434.82 346.902 426.894 346.422 418.799C345.905 408.483 344.428 398.142 345.569 387.802C346.842 384.727 349.244 381.677 352.775 381.328C359.128 381.028 365.493 381.172 371.834 380.728C372.543 370.351 372.795 359.963 373.864 349.622C380.397 301.847 402.82 256.306 436.748 222.018C462.473 196.316 494.755 177.449 529.344 166.448C534.412 165.463 539.3 163.782 544.296 162.485ZM543.587 183.73C499.223 196.292 457.969 222.642 431.319 260.689C406.783 295.23 393.044 337.168 392.035 379.491C415.13 379.106 438.189 378.206 461.284 377.833C471.973 377.797 482.649 376.656 493.35 377.329C496.785 377.689 500.628 378.614 502.634 381.725C505.636 385.64 505.312 390.816 505.696 395.476C512.734 394.239 520.096 393.903 526.966 396.22C527.182 391.272 526.954 385.712 530.232 381.617C533.043 377.605 538.267 376.02 542.975 376.056C577.011 375.792 611.011 374.254 645.047 374.098C661.056 373.534 677.077 372.909 693.098 372.909C697.866 372.741 702.67 374.615 707.378 373.15C738.231 365.271 769.024 357.116 799.998 349.718C810.915 347.016 821.423 353.009 829.338 359.987C833.781 364.13 839.354 367.853 841.288 373.918C843.485 382.025 835.823 390.804 827.452 389.255C817.832 388.582 814.806 376.741 806.039 374.339C801.451 374.519 797.115 376.416 792.672 377.449C764.076 386.228 735.325 394.635 706.789 403.498C707.21 418.535 707.894 433.883 703.595 448.499C698.875 467.847 686.637 485.346 669.607 495.794C668.454 496.611 666.965 497.127 666.34 498.508L665.992 497.752C650.079 507.324 631.079 511.467 612.596 510.554C594.941 510.146 577.539 503.444 564.076 492.059C547.947 478.704 537.462 459.524 532.25 439.456C530.989 433.919 529.356 428.443 529.104 422.75C522.006 418.643 511.893 416.697 505.36 422.858C505.288 430.292 503.51 437.546 501.937 444.764C496.929 463.752 486.685 482.043 470.399 493.536C456.78 503.457 439.678 508.176 422.888 506.999C416.115 506.927 409.233 506.327 402.808 504.045C402.76 505.534 402.952 507.047 403.733 508.356C407.756 516.703 413.485 524.15 420.162 530.551C431.583 541.552 444.698 550.703 458.834 557.861C462.377 559.663 466.244 561.86 467.649 565.824C469.258 571.456 460.984 574.903 457.212 571.733C457.14 571.937 457.008 572.333 456.936 572.537L456.708 572.189C447.665 570.808 439.33 566.833 431.247 562.749C436.291 576.056 440.255 589.771 444.302 603.402C446.007 602.874 447.737 602.406 449.478 601.985C451.304 596.365 452.373 588.582 459.374 587.309C462.233 587.838 465.211 589.015 466.544 591.825C469.138 597.133 466.544 602.946 464.803 608.098C478.926 615.569 492.473 625.705 499.763 640.321C506.669 653.315 508.747 669.601 502.742 683.304C513.046 684.157 523.315 685.322 533.631 686.054C534.015 672.579 539.828 659.789 548.091 649.316C560.353 633.932 576.843 622.33 594.557 614.019C617.208 603.463 642.801 600.412 664.539 587.73C671.312 583.959 677.077 578.71 682.95 573.726C685.003 571.961 687.67 571.276 690.168 570.399L690.156 570.952C694.059 570.616 697.722 574.074 697.097 578.074C695.74 584.595 690.492 589.207 685.904 593.626C669.174 608.675 647.328 615.893 626.035 621.802C602.52 628.263 579.353 639.564 563.68 658.78C556.762 667.127 551.238 677.431 551.67 688.576C551.322 697.62 556.342 707.396 565.085 710.735C571.294 713.149 578.116 711.467 584.097 709.161C595.506 704.838 604.405 695.614 616.223 692.191C623.777 690.174 631.644 691.711 639.09 693.428C652.901 696.455 666.941 698.929 681.136 698.929C702.25 699.505 723.903 694.798 741.81 683.268C748.644 679.077 754.589 673.648 761.086 668.988C764.773 666.202 770.201 666.43 773.864 669.169C775.63 672.195 775.642 675.894 773.564 678.788C766.334 690.042 754.853 697.752 743.203 703.877C726.065 712.98 706.573 716.716 687.297 717.088C688.606 724.99 685.688 733.433 679.755 738.826C676.02 741.864 671.36 743.401 667.133 745.611C616.415 769.691 565.758 793.891 514.752 817.37C510.764 819.076 506.801 821.009 502.502 821.778C504.051 829.032 507.558 836.07 513.419 840.789C521.874 847.995 533.283 850.001 544.008 851.046C569.012 852.175 593.945 849.124 618.721 846.122C656.324 840.609 693.626 832.923 730.341 823.015C759.188 815.629 787.471 805.072 812.908 789.399C826.972 780.536 839.09 768.646 848.313 754.823C859.362 737.709 867.421 718.649 871.529 698.677C880.836 653.868 878.939 607.774 876.813 562.365C874.735 531.031 871.613 499.769 867.661 468.616C861.044 418.715 852.169 368.37 831.476 322.132C812.464 279.232 782.992 240.164 743.78 213.863C685.94 174.807 610.35 164.046 543.587 183.73ZM571.078 396.845C576.374 415.905 583.4 434.448 589.861 453.135C594.365 465.145 597.98 477.491 602.904 489.333C619.273 488.42 636.087 489.093 651.844 483.88C640.927 454.636 630.467 425.224 620.09 395.776C603.757 396.377 587.399 396.184 571.078 396.845ZM384.373 400.004C393.32 429.44 404.357 458.215 414.301 487.327C429.566 487.652 444.746 485.706 459.542 482.007C450.019 454.384 439.678 427.05 430.082 399.451C414.842 399.499 399.613 399.98 384.373 400.004ZM107.293 556.708C104.783 557.765 103.126 559.999 101.529 562.113C100.724 564.551 100.123 567.229 101.12 569.727C122.75 635.721 144.031 701.847 165.445 767.902C167.595 775.42 170.165 785.064 178.812 787.297C258.521 793.783 338.231 800.244 417.952 806.633C440.615 808.231 463.205 810.861 485.904 811.774C491.777 808.987 493.446 801.217 491.248 795.524C483.442 771.529 475.852 747.461 467.985 723.489C452.481 674.141 435.727 625.188 421.255 575.528C420.222 568.79 415.19 563.037 408.537 561.356C399.037 559.41 389.225 560.792 379.617 559.927C293.134 558.846 206.675 557.669 120.228 555.771C115.928 555.711 111.293 554.606 107.293 556.708ZM448.601 616.974C453.213 632.322 458.594 647.407 463.169 662.755C465.908 672.039 468.946 681.226 472.057 690.39C479.527 687.327 485.64 681.01 487.489 673.036C490.984 659.344 484.235 645.125 474.411 635.745C466.796 628.191 457.152 623.315 448.601 616.974ZM485.171 703.649C482.193 703.937 479.623 705.69 476.765 706.447C478.722 711.695 480.548 717.004 481.977 722.42L482.349 722.456C482.878 724.498 483.454 726.564 484.006 728.617C488.943 744.194 494.815 759.483 499.043 775.276L499.475 775.312C500.328 778.446 501.289 781.545 502.225 784.667C516.313 778.782 530.124 772.177 544.092 765.968C580.746 748.65 618.073 732.737 654.474 714.902C644.831 713.785 635.439 711.131 625.843 709.774C619.454 708.861 614.217 713.377 609.005 716.295C596.839 723.933 583.172 731.632 568.268 729.962C557.807 729.122 548.571 723.021 542.038 715.07C540.08 711.84 537.955 708.669 536.874 705.018H536.381C535.853 702.964 535.385 700.935 534.916 698.893C521.886 697.668 508.867 696.251 495.848 694.954C492.654 698.28 488.81 700.839 485.171 703.649ZM651.232 729.53C643.269 733.085 635.367 736.772 627.56 740.639C620.258 743.75 613.136 747.257 605.907 750.535C572.675 765.391 539.804 781.088 506.201 795.08C504.651 798.599 506.069 803.03 504.759 806.801C540.705 790.3 576.662 773.822 612.524 757.141C622.012 752.889 631.415 748.458 640.855 744.122C647.365 741.264 653.862 738.345 660.203 735.127C665.091 732.701 671.648 731.235 673.87 725.651C674.963 723.465 674.567 720.967 674.543 718.637C666.604 721.856 659.062 726.035 651.232 729.53ZM877.113 747.773C869.811 762.929 859.843 776.801 847.845 788.595C859.074 789.808 870.4 789.868 881.689 789.615C893.999 788.727 906.729 787.634 918.007 782.217C915.929 776.945 911.882 772.862 908.423 768.514C899.583 758.114 890.432 747.977 882.313 736.988C880.188 740.387 878.951 744.23 877.113 747.773ZM348.944 815.281C356.186 828.551 369.877 837.054 384.325 840.465C405.078 845.882 426.527 840.525 446.896 835.901C458.293 832.911 469.811 829.981 480.692 825.405C467.301 824.66 453.97 823.303 440.591 822.558C410.038 820.169 379.521 817.298 348.944 815.281Z" fill="#010101"/>
<path d="M543.588 183.73C610.35 164.046 685.94 174.807 743.78 213.863C782.992 240.165 812.464 279.233 831.476 322.132C852.169 368.37 861.044 418.715 867.661 468.616C871.613 499.77 874.735 531.031 876.813 562.365C878.939 607.774 880.836 653.868 871.529 698.677C867.421 718.649 859.363 737.709 848.314 754.823C839.09 768.646 826.972 780.536 812.909 789.399C787.472 805.072 759.188 815.629 730.341 823.015C693.627 832.923 656.324 840.609 618.721 846.122C593.945 849.124 569.012 852.175 544.008 851.046C533.283 850.001 521.874 847.995 513.419 840.79C507.558 836.07 504.051 829.032 502.502 821.778C506.801 821.009 510.765 819.076 514.752 817.37C565.758 793.891 616.415 769.691 667.133 745.611C671.36 743.402 676.02 741.864 679.755 738.826C685.688 733.433 688.607 724.991 687.297 717.088C706.573 716.716 726.065 712.981 743.203 703.877C754.853 697.752 766.334 690.042 773.564 678.789C775.642 675.894 775.63 672.195 773.865 669.169C770.202 666.43 764.773 666.202 761.086 668.989C754.589 673.648 748.644 679.077 741.81 683.268C723.904 694.798 702.25 699.506 681.136 698.929C666.941 698.929 652.901 696.455 639.09 693.429C631.644 691.711 623.777 690.174 616.223 692.192C604.405 695.614 595.506 704.838 584.097 709.161C578.116 711.467 571.294 713.149 565.085 710.735C556.342 707.396 551.322 697.62 551.67 688.577C551.238 677.432 556.762 667.127 563.68 658.78C579.353 639.564 602.52 628.263 626.035 621.802C647.329 615.893 669.175 608.675 685.904 593.627C690.492 589.207 695.74 584.595 697.098 578.074C697.722 574.075 694.059 570.616 690.156 570.952L690.168 570.4C690.42 559.038 687.598 547.929 684.908 536.988C681.305 523.045 673.414 510.855 666.34 498.509C666.965 497.128 668.454 496.611 669.607 495.794C686.637 485.346 698.875 467.848 703.595 448.5C707.894 433.884 707.21 418.535 706.789 403.499C735.325 394.635 764.076 386.229 792.672 377.449C797.116 376.416 801.451 374.519 806.039 374.339C814.806 376.741 817.833 388.582 827.452 389.255C835.823 390.804 843.486 382.025 841.288 373.918C839.354 367.853 833.782 364.13 829.338 359.987C821.424 353.009 810.915 347.016 799.998 349.719C769.025 357.117 738.231 365.271 707.378 373.15C702.67 374.615 697.866 372.741 693.098 372.91C677.077 372.91 661.056 373.534 645.047 374.099C611.011 374.255 577.011 375.792 542.975 376.056C538.267 376.02 533.043 377.605 530.233 381.617C526.954 385.712 527.182 391.273 526.966 396.221C520.096 393.903 512.734 394.239 505.696 395.476C505.312 390.816 505.636 385.64 502.634 381.725C500.628 378.614 496.785 377.689 493.35 377.329C482.65 376.657 471.973 377.798 461.284 377.834C438.189 378.206 415.13 379.107 392.035 379.491C393.044 337.168 406.783 295.23 431.319 260.689C457.969 222.642 499.223 196.293 543.588 183.73Z" fill="#BCCAE7"/>
<path opacity="0.55" d="M372.472 355.844C372.604 353.706 373.012 351.593 373.865 349.623C372.796 359.964 372.544 370.352 371.835 380.729C365.494 381.173 359.129 381.029 352.775 381.329C358.42 378.579 365.049 380.344 371.114 379.768C370.946 371.757 371.931 363.807 372.472 355.844Z" fill="#101111"/>
<path opacity="0.49" d="M867.025 357.657C869.836 362.978 870.616 369.103 872.418 374.807C873.907 381.773 876.501 388.595 876.741 395.777C873.715 383.01 870.088 370.4 867.025 357.657Z" fill="#0D0D0D"/>
<path opacity="0.52" d="M344.488 391.777C344.464 390.372 345.076 389.087 345.569 387.802C344.428 398.142 345.905 408.483 346.422 418.799C346.902 426.894 348.643 434.82 349.748 442.831L348.776 442.855C345.917 425.993 344.008 408.915 344.488 391.777Z" fill="#090909"/>
<path d="M571.078 396.845C587.4 396.185 603.757 396.377 620.09 395.776C630.467 425.225 640.927 454.637 651.844 483.881C636.087 489.093 619.274 488.42 602.904 489.333C597.98 477.491 594.365 465.145 589.861 453.135C583.4 434.448 576.374 415.905 571.078 396.845Z" fill="#FEFEFD"/>
<path d="M384.372 400.004C399.613 399.98 414.841 399.499 430.082 399.451C439.677 427.05 450.018 454.384 459.542 482.007C444.746 485.706 429.565 487.652 414.301 487.327C404.356 458.215 393.319 429.44 384.372 400.004Z" fill="#FEFEFE"/>
<path d="M505.36 422.859C511.894 416.698 522.006 418.643 529.104 422.751C529.356 428.443 530.989 433.92 532.25 439.456C522.787 438.76 513.347 440.045 504.075 441.798C503.331 442.771 502.622 443.756 501.938 444.765C503.511 437.547 505.288 430.293 505.36 422.859Z" fill="#BECBE6"/>
<path d="M504.075 441.797C513.346 440.044 522.786 438.759 532.25 439.456C537.462 459.524 547.947 478.704 564.076 492.059C577.539 503.444 594.941 510.146 612.596 510.554C631.079 511.467 650.078 507.323 665.991 497.751L666.34 498.508C673.413 510.854 681.304 523.044 684.907 536.988C687.597 547.929 690.419 559.038 690.167 570.399C687.669 571.276 685.003 571.96 682.949 573.726C677.076 578.71 671.312 583.958 664.538 587.729C642.8 600.412 617.207 603.462 594.557 614.019C576.842 622.33 560.353 633.931 548.091 649.316C539.828 659.788 534.015 672.579 533.631 686.054C523.314 685.321 513.046 684.156 502.741 683.304C508.746 669.6 506.669 653.315 499.763 640.32C492.473 625.704 478.926 615.568 464.802 608.098C466.544 602.946 469.138 597.133 466.544 591.825C465.211 589.014 462.232 587.837 459.374 587.309C459.242 583.442 459.29 579.562 459.374 575.707C458.521 574.638 457.704 573.63 456.936 572.537C457.008 572.333 457.14 571.936 457.212 571.732C460.983 574.903 469.258 571.456 467.649 565.823C466.243 561.86 462.376 559.662 458.833 557.861C444.698 550.703 431.583 541.551 420.162 530.55C420.222 522.66 419.645 514.409 422.888 506.999C439.678 508.176 456.78 503.456 470.399 493.536C486.684 482.042 496.929 463.751 501.937 444.764C502.621 443.755 503.33 442.77 504.075 441.797ZM521.969 505.594C512.445 507.539 503.498 511.887 495.608 517.496C492.197 520.126 496.124 525.23 499.763 523.416C514.319 520.078 529.475 517.351 544.368 520.306C552.366 521.939 559.632 525.758 567.054 528.965C570.489 530.37 573.888 525.914 571.834 522.9C567.415 517.964 562.034 513.893 556.245 510.71C545.941 504.753 533.547 503.6 521.969 505.594Z" fill="#FCFBFC"/>
<path opacity="0.5" d="M886.205 450.302C887.658 453.424 887.622 456.931 888.139 460.282C889.676 471.895 891.057 483.533 892.462 495.171C892.69 496.96 892.618 498.75 892.222 500.527C890.204 483.797 887.947 467.068 886.205 450.302Z" fill="#0D0D0C"/>
<path opacity="0.54" d="M381.143 493.741C382.524 495.495 382.127 497.825 382.32 499.914C382.368 504.658 383.533 509.282 384.577 513.894C381.083 507.853 381.347 500.491 381.143 493.741Z" fill="#0D0D0D"/>
<path opacity="0.53" d="M892.246 500.803C892.522 501.475 893.063 502.82 893.339 503.493C895.489 525.903 897.374 548.338 898.563 570.82C898.539 581.257 900.04 591.621 899.788 602.058C900.269 630.497 899.56 659.033 895.345 687.196C894.936 689.862 894.78 692.672 893.483 695.122C894.144 686.859 895.933 678.729 896.522 670.466C901.902 613.96 897.278 557.153 892.246 500.803Z" fill="#0D0D0E"/>
<path d="M403.732 508.356C402.952 507.047 402.76 505.534 402.808 504.045C409.233 506.327 416.115 506.927 422.888 506.999C419.645 514.409 420.222 522.66 420.162 530.551C413.484 524.149 407.756 516.703 403.732 508.356Z" fill="#BDC8E5"/>
<path d="M521.97 505.595C533.548 503.601 545.942 504.754 556.247 510.711C562.035 513.893 567.416 517.965 571.835 522.901C573.889 525.915 570.49 530.371 567.055 528.966C559.633 525.759 552.367 521.94 544.369 520.307C529.477 517.352 514.32 520.079 499.764 523.417C496.125 525.231 492.198 520.127 495.609 517.496C503.499 511.888 512.447 507.54 521.97 505.595Z" fill="black"/>
<path opacity="0.4" d="M101.648 544.242C105.936 540.951 111.557 541.744 116.613 541.696C127.842 542.056 139.095 541.732 150.312 542.428C153.603 542.74 157.098 542.092 160.233 543.389C144.884 543.833 129.559 542.704 114.223 542.416C109.959 542.284 105.732 543.053 101.648 544.242Z" fill="#0B0B0B"/>
<path opacity="0.49" d="M170.177 543.509C181.478 542.416 192.899 543.497 204.261 543.197C244.638 544.734 285.075 543.857 325.452 545.31C325.837 545.431 326.605 545.683 326.989 545.815C303.294 546.259 279.611 545.371 255.915 545.046C227.344 544.458 198.736 544.734 170.177 543.509Z" fill="#111111"/>
<path opacity="0.62" d="M407.732 544.434C408.573 545.178 409.954 545.851 409.365 547.22C402.856 547.604 396.335 547.028 389.813 547.064C374.285 546.667 358.708 546.992 343.203 545.947C344.176 545.827 346.134 545.562 347.118 545.442C367.475 545.442 387.856 545.683 408.2 546.8C408.08 546.211 407.852 545.022 407.732 544.434Z" fill="#0E0E0E"/>
<path d="M107.294 556.709C111.293 554.607 115.929 555.712 120.229 555.772C206.676 557.67 293.135 558.847 379.618 559.928C389.225 560.792 399.037 559.411 408.537 561.357C415.191 563.038 420.223 568.791 421.256 575.528C435.728 625.189 452.481 674.141 467.986 723.49C475.853 747.461 483.443 771.529 491.249 795.525C493.447 801.218 491.778 808.988 485.905 811.774C484.428 807.283 485.268 802.455 483.995 797.939C482.362 792.114 480.116 786.482 478.543 780.645C474.123 763.363 466.821 746.969 462.341 729.699C457.982 714.999 452.349 700.731 448.122 685.983C443.378 670.19 438.033 654.577 432.797 638.928C427.825 621.118 421.556 603.692 416.152 586.013C414.83 582.446 413.69 578.387 410.423 576.081C405.907 572.91 400.935 569.776 395.23 569.584C385.25 568.887 375.21 569.211 365.218 568.923C296.822 567.71 228.437 566.893 160.053 565.152C144.813 564.323 129.524 564.936 114.272 563.975C110.056 563.591 105.901 564.491 102.01 566.077C101.89 565.092 101.649 563.098 101.529 562.113C103.127 560 104.784 557.766 107.294 556.709Z" fill="#E9E9E9"/>
<path d="M101.121 569.727C100.124 567.229 100.724 564.55 101.529 562.112C101.649 563.097 101.889 565.091 102.009 566.076C105.901 564.49 110.056 563.59 114.271 563.974C129.524 564.935 144.813 564.322 160.053 565.151C228.437 566.892 296.821 567.709 365.217 568.922C375.21 569.21 385.25 568.886 395.23 569.582C400.935 569.775 405.907 572.909 410.422 576.08C413.689 578.386 414.83 582.445 416.151 586.012C421.556 603.69 427.825 621.117 432.797 638.927C438.033 654.576 443.378 670.189 448.121 685.982C452.349 700.73 457.981 714.998 462.341 729.698C466.821 746.968 474.123 763.361 478.542 780.644C480.116 786.48 482.362 792.113 483.995 797.938C485.268 802.454 484.427 807.281 485.904 811.773C463.206 810.86 440.615 808.23 417.953 806.633C338.231 800.244 258.522 793.782 178.812 787.297C170.165 785.063 167.595 775.419 165.445 767.901C144.032 701.847 122.75 635.721 101.121 569.727ZM274.099 656.077C273.534 658.143 275.588 659.644 277.473 658.756C283.418 657.026 288.066 651.117 287.874 644.836C287.345 644.344 286.277 643.359 285.736 642.879C280.344 645.461 275.444 650.084 274.099 656.077ZM275.828 662.046C269.679 663.427 262.749 664.1 258.21 669.012C251.772 674.128 250.583 683.304 252.553 690.858C254.775 698.7 259.675 706.038 266.905 710.062C273.894 714.914 283.202 715.166 291.153 712.872C297.986 711.047 303.271 704.069 302.514 696.935C302.274 691.747 298.743 687.555 295.788 683.592C294.9 682.271 293.158 680.638 294.359 678.968C295.44 675.437 299.247 673.828 300.797 670.657C299.836 666.97 296.533 664.688 293.218 663.307C287.862 660.545 281.581 661.29 275.828 662.046Z" fill="#C2C2C2"/>
<path d="M431.247 562.75C439.33 566.833 447.665 570.809 456.708 572.19L456.936 572.538C457.705 573.631 458.521 574.64 459.374 575.709C459.29 579.564 459.242 583.443 459.374 587.31C452.372 588.583 451.304 596.366 449.478 601.986C447.737 602.407 446.007 602.875 444.302 603.403C440.254 589.772 436.291 576.057 431.247 562.75Z" fill="#C1CAE7"/>
<path d="M448.602 616.974C457.153 623.315 466.796 628.191 474.411 635.745C484.235 645.125 490.984 659.344 487.489 673.036C485.64 681.01 479.527 687.327 472.057 690.39C468.946 681.226 465.908 672.039 463.169 662.755C458.594 647.407 453.213 632.322 448.602 616.974Z" fill="#C0CBE7"/>
<path d="M274.098 656.078C275.443 650.085 280.343 645.461 285.736 642.879C286.276 643.359 287.345 644.344 287.873 644.837C288.065 651.118 283.418 657.027 277.473 658.756C275.587 659.645 273.534 658.143 274.098 656.078Z" fill="#FAFAFA"/>
<path d="M275.828 662.047C281.58 661.29 287.861 660.546 293.218 663.308C296.533 664.689 299.835 666.971 300.796 670.658C299.247 673.829 295.44 675.438 294.359 678.969C293.158 680.638 294.899 682.272 295.788 683.593C298.742 687.556 302.273 691.747 302.514 696.936C303.27 704.069 297.986 711.047 291.152 712.873C283.202 715.167 273.894 714.914 266.904 710.062C259.674 706.039 254.774 698.701 252.552 690.859C250.583 683.304 251.772 674.129 258.209 669.013C262.749 664.101 269.679 663.428 275.828 662.047Z" fill="#FDFDFC"/>
<path d="M485.172 703.649C488.811 700.839 492.654 698.281 495.849 694.954C508.867 696.251 521.886 697.668 534.917 698.893C535.385 700.935 535.853 702.965 536.382 705.018C522.859 704.898 509.528 702.088 496.065 701.139C492.222 700.827 488.943 703.373 485.172 703.649Z" fill="#CDCECD"/>
<path d="M485.172 703.649C488.943 703.373 492.221 700.827 496.064 701.139C509.528 702.088 522.858 704.898 536.382 705.018H536.874C537.955 708.669 540.081 711.84 542.038 715.07C535.661 718.289 529.44 721.832 522.991 724.93C517.622 727.729 511.449 725.939 505.756 725.435C497.938 724.594 490.228 722.576 482.349 722.456L481.977 722.42C480.548 717.004 478.722 711.695 476.765 706.447C479.623 705.691 482.193 703.937 485.172 703.649Z" fill="#7D7D7D"/>
<path d="M609.005 716.295C614.217 713.377 619.453 708.861 625.842 709.774C635.438 711.131 644.83 713.785 654.474 714.902C618.072 732.737 580.745 748.65 544.091 765.968C530.124 772.177 516.313 778.783 502.225 784.667C501.288 781.545 500.327 778.446 499.475 775.312C502.237 775.72 505.179 776.032 507.81 774.819C517.874 770.688 527.446 765.464 537.366 760.996C546.601 756.66 556.089 752.841 565.121 748.049C567.703 746.584 570.969 745.539 572.302 742.621C572.026 739.907 569.144 739.654 567.054 739.186C547.43 736.424 527.686 734.538 508.062 731.764C500.051 730.575 491.92 730.335 484.006 728.617C483.454 726.564 482.877 724.498 482.349 722.456C490.227 722.576 497.937 724.594 505.756 725.435C511.449 725.939 517.622 727.729 522.99 724.93C529.439 721.832 535.66 718.289 542.038 715.07C548.571 723.021 557.807 729.122 568.267 729.963C583.171 731.632 596.839 723.934 609.005 716.295Z" fill="#C7C7C7"/>
<path d="M651.231 729.531C659.062 726.036 666.604 721.856 674.543 718.638C674.567 720.968 674.963 723.466 673.87 725.651C671.648 731.236 665.091 732.701 660.203 735.127C656.876 733.854 653.886 731.873 651.231 729.531Z" fill="#B6B5B4"/>
<path d="M484.006 728.617C491.92 730.335 500.051 730.575 508.062 731.764C527.686 734.538 547.43 736.424 567.054 739.186C569.144 739.654 572.026 739.906 572.302 742.621C570.969 745.539 567.703 746.584 565.12 748.049C556.089 752.841 546.601 756.66 537.366 760.996C527.446 765.463 517.874 770.688 507.809 774.819C505.179 776.032 502.237 775.72 499.475 775.312L499.042 775.275C494.815 759.482 488.942 744.194 484.006 728.617Z" fill="#767676"/>
<path d="M627.561 740.639C635.367 736.772 643.269 733.085 651.232 729.53C653.886 731.872 656.877 733.854 660.203 735.127C653.862 738.345 647.365 741.264 640.855 744.122C636.748 741.612 631.74 742.741 627.561 740.639Z" fill="#C4C2C1"/>
<path d="M877.113 747.773C878.95 744.23 880.187 740.387 882.313 736.988C890.432 747.977 899.583 758.114 908.422 768.514C911.881 772.862 915.929 776.945 918.006 782.217C906.729 787.634 893.999 788.727 881.689 789.615C870.399 789.868 859.074 789.808 847.845 788.595C859.843 776.801 869.811 762.93 877.113 747.773Z" fill="#BFCCE6"/>
<path d="M605.907 750.536C613.137 747.257 620.259 743.75 627.561 740.64C631.74 742.741 636.749 741.612 640.856 744.123C631.416 748.458 622.012 752.89 612.525 757.141C610.867 754.439 608.537 752.277 605.907 750.536Z" fill="#B8B8B8"/>
<path d="M506.199 795.08C539.803 781.088 572.674 765.391 605.905 750.535C608.535 752.277 610.865 754.438 612.522 757.141C576.661 773.822 540.703 790.3 504.758 806.801C506.067 803.03 504.65 798.599 506.199 795.08Z" fill="#C1C0BF"/>
<path opacity="0.54" d="M178.681 801.157C228.618 805.048 278.591 808.579 328.516 812.699C329.585 816.422 330.593 820.169 331.638 823.916C329.224 821.009 328.804 817.142 327.735 813.659C279.383 809.708 230.996 806.189 182.62 802.442C181.215 802.274 179.906 801.854 178.681 801.157Z" fill="#0E0E0D"/>
<path opacity="0.62" d="M902.646 807.162C909.947 805.373 917.177 803.307 924.407 801.229C917.862 804.953 910.14 806.85 902.646 807.162Z" fill="#0E0E0E"/>
<path opacity="0.56" d="M825.723 805.649C830.311 805.457 834.815 806.706 839.378 807.09C860.287 809.756 881.497 810.02 902.418 807.21C901.217 808.003 899.908 808.447 898.467 808.543C874.903 811.75 850.968 810.032 827.549 806.49C823.465 806.55 820.451 810.141 816.56 811.125C819.418 809.036 822.216 806.586 825.723 805.649Z" fill="#0C0C0C"/>
<path d="M348.943 815.28C379.52 817.298 410.037 820.168 440.591 822.558C443.413 824.288 446.415 826.101 448.205 828.996C449.766 831.241 447.4 833.679 446.896 835.901C426.527 840.525 405.077 845.881 384.324 840.465C369.877 837.054 356.185 828.551 348.943 815.28Z" fill="#BFCBE7"/>
<path d="M440.591 822.559C453.97 823.303 467.301 824.66 480.692 825.405C469.811 829.981 458.293 832.911 446.896 835.902C447.4 833.68 449.766 831.242 448.205 828.996C446.416 826.101 443.413 824.288 440.591 822.559Z" fill="#C8D0E4"/>
<path opacity="0.49" d="M703.307 850.337C717.382 846.722 731.482 843.179 745.605 839.744C744.548 840.537 743.408 841.101 742.158 841.462C731.254 844.476 720.253 847.118 709.24 849.748C707.294 850.229 705.288 850.397 703.307 850.337Z" fill="#0E0E0E"/>
<path opacity="0.51" d="M459.758 852.727C469.126 849.989 478.205 846.386 487.465 843.312C485.543 845.113 482.997 845.87 480.607 846.782C467.889 851.43 454.93 855.429 441.731 858.504C440.038 858.936 438.333 859.044 436.615 858.816C444.302 856.691 452.132 855.105 459.758 852.727Z" fill="#0D0D0C"/>
<path opacity="0.56" d="M669.764 857.663C680.669 854.577 691.838 852.307 703.019 850.397C698.467 852.751 693.159 852.895 688.283 854.289C682.11 855.394 676.069 857.423 669.764 857.663Z" fill="#0D0D0D"/>
<path opacity="0.53" d="M375.426 858.888C383.592 860.402 391.747 862.407 400.13 862.323C412.404 862.828 424.522 860.594 436.616 858.816C434.334 860.474 431.428 860.426 428.786 860.942C412.656 863.752 395.855 864.497 379.821 860.69C378.248 860.366 376.759 859.741 375.426 858.888Z" fill="#0A0A0A"/>
<path opacity="0.53" d="M621.567 865.914C633.301 863.872 645.035 861.663 656.852 860.113C652.673 862.155 647.869 862.131 643.401 863.152C636.123 864.089 628.929 866.25 621.567 865.914Z" fill="#0D0E0E"/>
<path opacity="0.51" d="M532.73 869.721C562.251 873.216 591.939 869.469 621.255 865.962C617.58 868.016 613.136 867.571 609.113 868.388C588.768 870.586 568.304 873.048 547.815 872.111C542.819 871.234 537.318 872.111 532.73 869.721Z" fill="#0E0E0E"/>
</g>
<defs>
<clipPath id="clip0_42_2510">
<rect width="853" height="720.591" fill="white" transform="translate(86 152)"/>
</clipPath>
</defs>
</svg>
