<svg width="186" height="73" viewBox="0 0 186 73" fill="none" xmlns="http://www.w3.org/2000/svg">
<path d="M185.315 72.167H7.15039V37.1023H185.315V72.167ZM7.74657 71.5723H184.719V37.697H7.74657V71.5723Z" fill="white"/>
<path d="M185.018 37.3997H7.44922V71.8696H185.018V37.3997Z" fill="black"/>
<path fill-rule="evenodd" clip-rule="evenodd" d="M30.7522 58.2178H24.7427L23.0525 62.1757H21.3594L27.807 47.504L34.1355 62.1757H32.4155L30.7551 58.2178H30.7522ZM30.1381 56.7608L27.8041 51.1407L25.3836 56.7608H30.1381Z" fill="white"/>
<path fill-rule="evenodd" clip-rule="evenodd" d="M50.1466 49.3357V51.2566C48.835 50.0345 47.434 49.4219 45.86 49.4219C44.2861 49.4219 43.0014 49.975 41.8925 51.1377C40.7836 52.2736 40.2291 53.6117 40.2291 55.1848C40.2291 56.7578 40.7836 58.1524 41.8925 59.2883C43.0014 60.3945 44.3428 60.9476 45.9167 60.9476C47.4906 60.9476 48.835 60.335 50.1466 59.1426V61.0666C48.8052 61.9676 47.4071 62.4344 45.9465 62.4344C43.9344 62.4344 42.2144 61.7356 40.7866 60.3083C39.3557 58.881 38.6582 57.1949 38.6582 55.2145C38.6582 53.2341 39.3587 51.5153 40.7866 50.091C42.2442 48.6637 43.9642 47.9381 45.9763 47.9381C47.4369 47.9381 48.835 48.402 50.1466 49.3357Z" fill="white"/>
<path fill-rule="evenodd" clip-rule="evenodd" d="M58.5769 48.173V56.7608C58.5769 58.0424 58.7229 58.9434 59.0419 59.437C59.3042 59.9039 59.7126 60.2518 60.27 60.5432C60.8245 60.8346 61.4058 60.9506 62.0198 60.9506C62.6339 60.9506 63.1853 60.8346 63.7398 60.5432C64.2942 60.2518 64.7026 59.9039 64.9649 59.437C65.2571 58.9434 65.4329 58.0394 65.4329 56.7608V48.173H67.0068V57.1979C67.0068 58.5955 66.6849 59.7017 66.0738 60.4897C65.0812 61.798 63.71 62.4403 62.0198 62.4403C60.3297 62.4403 58.8988 61.801 57.936 60.4897C57.3219 59.7046 57 58.5955 57 57.1979V48.173H58.5769Z" fill="white"/>
<path fill-rule="evenodd" clip-rule="evenodd" d="M74.6504 69.3956V47.5902L85.5575 59.0296V39.9332H87.1314V62.815L76.2243 51.3726V69.3956H74.6504Z" fill="white"/>
<path fill-rule="evenodd" clip-rule="evenodd" d="M93.8398 62.1757L96.1441 47.385L101.539 59.2051L107.051 47.385L109.209 62.1757H107.606L106.294 52.4223L101.539 62.7585L96.8148 52.4223L95.4138 62.1757H93.8398Z" fill="white"/>
<path fill-rule="evenodd" clip-rule="evenodd" d="M123.534 49.6271H117.846V53.7901H123.388V55.2472H117.846V60.7186H123.534V62.1757H116.27V48.173H123.534V49.6271Z" fill="white"/>
<path fill-rule="evenodd" clip-rule="evenodd" d="M130.59 62.1757V48.173H133.478C135.636 48.173 137.327 48.7261 138.641 49.8025C140.245 51.1436 141.062 52.9486 141.062 55.2175C141.062 57.4863 140.245 59.2051 138.585 60.5759C137.3 61.6523 135.58 62.1757 133.452 62.1757H130.593H130.59ZM132.167 60.7186H133.538C135.318 60.7186 136.745 60.225 137.824 59.2051C138.933 58.1881 139.488 56.847 139.488 55.1877C139.488 53.5285 138.933 52.1309 137.854 51.1407C136.775 50.1207 135.347 49.6271 133.538 49.6271H132.167V60.7186Z" fill="white"/>
<path fill-rule="evenodd" clip-rule="evenodd" d="M150.802 56.1482L146.193 48.173H148.033L151.589 54.4324L155.208 48.173H157.044L152.379 56.1482V62.2619H150.802V56.1482Z" fill="white"/>
<path fill-rule="evenodd" clip-rule="evenodd" d="M169.645 58.2178H163.635L161.942 62.1757H160.252L166.697 47.504L173.025 62.1757H171.305L169.645 58.2178ZM169.034 56.7608L166.7 51.1407L164.279 56.7608H169.034Z" fill="white"/>
<path fill-rule="evenodd" clip-rule="evenodd" d="M12.9011 40.6022C3.24894 36.3797 -1.71127 28.8684 1.75849 23.8609C5.25806 18.883 15.9058 18.2407 25.5579 22.493C35.1803 26.7125 40.1703 34.2268 36.6707 39.2046C33.1711 44.2122 22.5264 44.8515 12.9011 40.6022Z" fill="white"/>
<mask id="mask0_813_656" style="mask-type:luminance" maskUnits="userSpaceOnUse" x="0" y="19" width="38" height="25">
<path d="M12.9011 40.6022C3.24894 36.3797 -1.71127 28.8684 1.75849 23.8609C5.25806 18.883 15.9058 18.2407 25.5579 22.493C35.1803 26.7125 40.1703 34.2268 36.6707 39.2046C33.1711 44.2122 22.5264 44.8515 12.9011 40.6022Z" fill="white"/>
</mask>
<g mask="url(#mask0_813_656)">
<path fill-rule="evenodd" clip-rule="evenodd" d="M12.9011 40.6022C3.24894 36.3797 -1.71127 28.8684 1.75849 23.8609C5.25806 18.883 15.9058 18.2407 25.5579 22.493C35.1803 26.7125 40.1703 34.2268 36.6707 39.2046C33.1711 44.2122 22.5264 44.8515 12.9011 40.6022Z" fill="#FCF49A"/>
<path d="M492.926 -29.9286H-23.9277V283.108H492.926V-29.9286Z" stroke="#94905A" stroke-width="0.49" stroke-miterlimit="3.86"/>
<path d="M185.047 37.3907H7.47852V71.8578H185.047V37.3907Z" fill="#6A6533"/>
<path fill-rule="evenodd" clip-rule="evenodd" d="M12.9338 40.5933C3.27873 36.3708 -1.68148 28.8624 1.79126 23.8549C5.29083 18.8771 15.9386 18.2348 25.5907 22.487C35.213 26.7066 40.203 34.2209 36.7035 39.1987C33.2039 44.2062 22.5591 44.8456 12.9338 40.5963V40.5933Z" fill="#FCF49A"/>
</g>
<mask id="mask1_813_656" style="mask-type:luminance" maskUnits="userSpaceOnUse" x="30" y="0" width="23" height="39">
<path d="M52.5398 18.3329C53.1211 7.82421 48.7183 -0.00825702 42.6522 0.836246C36.5861 1.68075 31.2205 10.8781 30.6064 21.36C30.0222 31.8687 34.4547 39.7012 40.494 38.8567C46.5601 38.0122 51.9556 28.8416 52.5398 18.3329Z" fill="white"/>
</mask>
<g mask="url(#mask1_813_656)">
<path fill-rule="evenodd" clip-rule="evenodd" d="M52.5398 18.3329C53.1211 7.82421 48.7183 -0.00825702 42.6522 0.836246C36.5861 1.68075 31.2205 10.8781 30.6064 21.36C30.0222 31.8687 34.4547 39.7012 40.494 38.8567C46.5601 38.0122 51.9556 28.8416 52.5398 18.3329Z" fill="#9DDCF8"/>
<path d="M492.924 -29.9286H-23.9297V283.108H492.924V-29.9286Z" stroke="#5C8294" stroke-width="0.49" stroke-miterlimit="3.86"/>
<path d="M185.045 37.3907H7.47656V71.8577H185.045V37.3907Z" fill="#2F5D68"/>
<path fill-rule="evenodd" clip-rule="evenodd" d="M12.9319 40.5933C3.27677 36.3708 -1.68343 28.8624 1.78931 23.8549C5.28887 18.8771 15.9366 18.2348 25.5887 22.487C35.2111 26.7066 40.2011 34.2209 36.7015 39.1987C33.2019 44.2062 22.5572 44.8456 12.9319 40.5963V40.5933Z" fill="#9DDCF8"/>
<path fill-rule="evenodd" clip-rule="evenodd" d="M12.9319 40.5933C3.27677 36.3708 -1.68343 28.8624 1.78931 23.8549C5.28887 18.8771 15.9366 18.2348 25.5887 22.487C35.2111 26.7066 40.2011 34.2209 36.7015 39.1987C33.2019 44.2062 22.5572 44.8456 12.9319 40.5963V40.5933Z" fill="#A4D8C9"/>
<mask id="mask2_813_656" style="mask-type:luminance" maskUnits="userSpaceOnUse" x="0" y="19" width="38" height="25">
<path d="M12.9319 40.5933C3.27677 36.3708 -1.68343 28.8624 1.78931 23.8549C5.28887 18.8771 15.9366 18.2348 25.5887 22.487C35.2111 26.7066 40.2011 34.2209 36.7015 39.1987C33.2019 44.2062 22.5572 44.8456 12.9319 40.5963V40.5933Z" fill="white"/>
</mask>
<g mask="url(#mask2_813_656)">
<path d="M492.924 -29.9286H-23.9297V283.108H492.924V-29.9286Z" stroke="#80ACA1" stroke-width="0.49" stroke-miterlimit="3.86"/>
<path d="M185.045 37.3907H7.47656V71.8577H185.045V37.3907Z" fill="#649083"/>
<path fill-rule="evenodd" clip-rule="evenodd" d="M12.9319 40.5933C3.27677 36.3708 -1.68343 28.8624 1.78931 23.8549C5.28887 18.8771 15.9366 18.2348 25.5887 22.487C35.2111 26.7066 40.2011 34.2209 36.7015 39.1987C33.2019 44.2062 22.5572 44.8456 12.9319 40.5963V40.5933Z" fill="#A4D8C9"/>
</g>
</g>
<mask id="mask3_813_656" style="mask-type:luminance" maskUnits="userSpaceOnUse" x="14" y="3" width="28" height="36">
<path d="M35.1564 13.2094C29.0038 4.67814 20.6037 1.38934 16.4334 5.84379C12.2631 10.2982 13.8669 20.807 20.0224 29.3382C26.175 37.8695 34.5483 41.188 38.7186 36.7336C42.9186 32.2791 41.3119 21.7407 35.1594 13.2124L35.1564 13.2094Z" fill="white"/>
</mask>
<g mask="url(#mask3_813_656)">
<path fill-rule="evenodd" clip-rule="evenodd" d="M35.1564 13.2094C29.0038 4.67814 20.6037 1.38934 16.4334 5.84379C12.2631 10.2982 13.8669 20.807 20.0224 29.3382C26.175 37.8695 34.5483 41.188 38.7186 36.7336C42.9186 32.2791 41.3119 21.7407 35.1594 13.2124L35.1564 13.2094Z" fill="#F69679"/>
<path d="M492.926 -29.9286H-23.9277V283.108H492.926V-29.9286Z" stroke="#905746" stroke-width="0.49" stroke-miterlimit="3.86"/>
<path d="M185.047 37.3907H7.47852V71.8578H185.047V37.3907Z" fill="#6B3127"/>
<path fill-rule="evenodd" clip-rule="evenodd" d="M12.9338 40.5933C3.27873 36.3708 -1.68148 28.8624 1.79126 23.8549C5.29083 18.8771 15.9386 18.2348 25.5907 22.487C35.213 26.7066 40.203 34.2209 36.7035 39.1987C33.2039 44.2062 22.5591 44.8456 12.9338 40.5963V40.5933Z" fill="#F69679"/>
<path fill-rule="evenodd" clip-rule="evenodd" d="M12.9338 40.5933C3.27873 36.3708 -1.68148 28.8624 1.79126 23.8549C5.29083 18.8771 15.9386 18.2348 25.5907 22.487C35.213 26.7066 40.203 34.2209 36.7035 39.1987C33.2039 44.2062 22.5591 44.8456 12.9338 40.5963V40.5933Z" fill="#F69452"/>
<mask id="mask4_813_656" style="mask-type:luminance" maskUnits="userSpaceOnUse" x="0" y="19" width="38" height="25">
<path d="M12.9338 40.5933C3.27873 36.3708 -1.68148 28.8624 1.79126 23.8549C5.29083 18.8771 15.9386 18.2348 25.5907 22.487C35.213 26.7066 40.203 34.2209 36.7035 39.1987C33.2039 44.2062 22.5591 44.8456 12.9338 40.5963V40.5933Z" fill="white"/>
</mask>
<g mask="url(#mask4_813_656)">
<path d="M492.926 -29.9286H-23.9277V283.108H492.926V-29.9286Z" stroke="#C1753E" stroke-width="0.49" stroke-miterlimit="3.86"/>
<path d="M185.047 37.3907H7.47852V71.8578H185.047V37.3907Z" fill="#A65D2B"/>
<path fill-rule="evenodd" clip-rule="evenodd" d="M12.9338 40.5933C3.27873 36.3708 -1.68148 28.8624 1.79126 23.8549C5.29083 18.8771 15.9386 18.2348 25.5907 22.487C35.213 26.7066 40.203 34.2209 36.7035 39.1987C33.2039 44.2062 22.5591 44.8456 12.9338 40.5963V40.5933Z" fill="#F69452"/>
</g>
<path fill-rule="evenodd" clip-rule="evenodd" d="M52.573 18.321C53.1543 7.81232 48.7515 -0.0201474 42.6854 0.824355C36.6193 1.66886 31.2537 10.8662 30.6396 21.3481C30.0554 31.8569 34.4879 39.6893 40.5272 38.8448C46.5933 38.0003 51.9888 28.8297 52.573 18.321Z" fill="#D08D7A"/>
<mask id="mask5_813_656" style="mask-type:luminance" maskUnits="userSpaceOnUse" x="30" y="0" width="23" height="39">
<path d="M52.573 18.321C53.1543 7.81232 48.7515 -0.0201474 42.6854 0.824355C36.6193 1.66886 31.2537 10.8662 30.6396 21.3481C30.0554 31.8569 34.4879 39.6893 40.5272 38.8448C46.5933 38.0003 51.9888 28.8297 52.573 18.321Z" fill="white"/>
</mask>
<g mask="url(#mask5_813_656)">
<path d="M492.926 -29.9286H-23.9277V283.108H492.926V-29.9286Z" stroke="#A47061" stroke-width="0.49" stroke-miterlimit="3.86"/>
<path d="M185.047 37.3907H7.47852V71.8577H185.047V37.3907Z" fill="#8C5B4E"/>
<path fill-rule="evenodd" clip-rule="evenodd" d="M12.9338 40.5933C3.27873 36.3708 -1.68148 28.8624 1.79126 23.8549C5.29083 18.8771 15.9386 18.2348 25.5907 22.487C35.213 26.7066 40.203 34.2209 36.7035 39.1987C33.2039 44.2062 22.5591 44.8456 12.9338 40.5963V40.5933Z" fill="#D08D7A"/>
<path fill-rule="evenodd" clip-rule="evenodd" d="M12.9338 40.5933C3.27873 36.3708 -1.68148 28.8624 1.79126 23.8549C5.29083 18.8771 15.9386 18.2348 25.5907 22.487C35.213 26.7066 40.203 34.2209 36.7035 39.1987C33.2039 44.2062 22.5591 44.8456 12.9338 40.5963V40.5933Z" fill="#D08B69"/>
<mask id="mask6_813_656" style="mask-type:luminance" maskUnits="userSpaceOnUse" x="0" y="19" width="38" height="25">
<path d="M12.9338 40.5933C3.27873 36.3708 -1.68148 28.8624 1.79126 23.8549C5.29083 18.8771 15.9386 18.2348 25.5907 22.487C35.213 26.7066 40.203 34.2209 36.7035 39.1987C33.2039 44.2062 22.5591 44.8456 12.9338 40.5963V40.5933Z" fill="white"/>
</mask>
<g mask="url(#mask6_813_656)">
<path d="M492.926 -29.9286H-23.9277V283.108H492.926V-29.9286Z" stroke="#B97E5E" stroke-width="0.49" stroke-miterlimit="3.86"/>
<path d="M185.047 37.3907H7.47852V71.8577H185.047V37.3907Z" fill="#AC7253"/>
<path fill-rule="evenodd" clip-rule="evenodd" d="M12.9338 40.5933C3.27873 36.3708 -1.68148 28.8624 1.79126 23.8549C5.29083 18.8771 15.9386 18.2348 25.5907 22.487C35.213 26.7066 40.203 34.2209 36.7035 39.1987C33.2039 44.2062 22.5591 44.8456 12.9338 40.5963V40.5933Z" fill="#D08B69"/>
</g>
</g>
</g>
</svg>
