<?xml version="1.0" encoding="UTF-8" standalone="no"?>
<!-- Created with Inkscape (http://www.inkscape.org/) -->

<svg
   width="132.29166mm"
   height="25.35726mm"
   viewBox="0 0 132.29166 25.35726"
   version="1.1"
   id="svg1"
   xml:space="preserve"
   inkscape:version="1.4 (e7c3feb1, 2024-10-09)"
   sodipodi:docname="Logo Digitec.svg"
   xmlns:inkscape="http://www.inkscape.org/namespaces/inkscape"
   xmlns:sodipodi="http://sodipodi.sourceforge.net/DTD/sodipodi-0.dtd"
   xmlns="http://www.w3.org/2000/svg"
   xmlns:svg="http://www.w3.org/2000/svg"><sodipodi:namedview
     id="namedview1"
     pagecolor="#ffffff"
     bordercolor="#666666"
     borderopacity="1.0"
     inkscape:showpageshadow="2"
     inkscape:pageopacity="0.0"
     inkscape:pagecheckerboard="0"
     inkscape:deskcolor="#d1d1d1"
     inkscape:document-units="mm"
     inkscape:zoom="0.30405762"
     inkscape:cx="295.99653"
     inkscape:cy="430.83939"
     inkscape:window-width="1440"
     inkscape:window-height="787"
     inkscape:window-x="225"
     inkscape:window-y="25"
     inkscape:window-maximized="0"
     inkscape:current-layer="layer1" /><defs
     id="defs1" /><g
     inkscape:label="Calque 1"
     inkscape:groupmode="layer"
     id="layer1"
     transform="translate(-8.0312957,-78.164168)"><g
       style="fill:none"
       id="g1"
       transform="matrix(0.25573935,0,0,0.25573935,7.9775904,78.067754)"><path
         fill="#e60021"
         fill-rule="evenodd"
         d="M 0.211,0.378 31.987,0.382 0.21,33.43 Z"
         clip-rule="evenodd"
         id="path1" /><path
         fill="#00559d"
         fill-rule="evenodd"
         d="m 67.504,68.917 c -4.226,10.868 -13.612,17.361 -20.957,14.502 -7.348,-2.854 -9.876,-13.98 -5.65,-24.848 4.23,-10.872 13.614,-17.365 20.96,-14.504 7.346,2.852 9.876,13.982 5.647,24.85 M 89.202,0.377 76.392,40.565 c -2.544,-4.114 -5.82,-7.167 -9.82,-9.181 -4,-2.004 -9.11,-3.017 -14.586,-3.017 -2.411,0 -3.838,0.147 -5.81,0.371 -1.972,0.224 -5.074,1.046 -7.556,2.048 -8.001,3.23 -15.434,9.703 -20.406,18.652 -4.972,8.949 -6.542,18.68 -5.058,27.179 1.482,8.5 6.016,15.764 13.25,19.786 7.237,4.019 15.802,4.03 23.8,0.799 4.345,-1.754 8.522,-4.463 12.23,-8.008 l -0.035,0.125 -2.945,8.647 h 26.517 c 1.01,-4.288 2.359,-9.218 4.075,-14.782 0.13,-0.54 0.27,-0.955 0.386,-1.25 L 116.922,0.377 Z m 114.023,42.829 c 5.429,0 7.24,-6.5 7.24,-11.126 0,-4.626 -1.811,-11.126 -7.24,-11.126 -6.434,0 -7.239,5.965 -7.239,11.126 0,5.161 0.805,11.126 7.239,11.126 m 7.24,-42.695 h 10.053 v 41.69 c 0,2.212 0.201,4.49 0.335,6.703 h -10.054 c -0.134,-1.61 -0.269,-3.15 -0.269,-4.76 h -0.134 c -2.211,3.956 -5.964,5.766 -10.321,5.766 -9.853,0 -14.478,-9.183 -14.478,-17.83 0,-9.048 5.295,-17.828 15.751,-17.828 3.485,0 7.105,2.077 8.982,4.892 h 0.135 z m 22.72,48.393 h 10.053 V 15.257 H 233.185 Z M 232.849,9.158 h 10.724 V 0.511 h -10.724 z m 37.266,32.374 c 5.495,0 6.501,-5.632 6.501,-9.988 0,-4.96 -1.006,-10.59 -6.501,-10.59 -5.496,0 -6.501,5.63 -6.501,10.59 0,4.356 1.005,9.988 6.501,9.988 m 16.556,4.355 c 0,7.842 -1.743,16.422 -16.489,16.286 -7.44,0 -15.415,-1.808 -15.617,-10.857 h 9.517 c 0.134,3.017 2.817,4.156 5.565,4.156 7.64,0 7.372,-6.97 6.969,-11.863 h -0.134 c -2.078,3.283 -5.629,4.624 -9.45,4.624 -9.116,0 -13.808,-8.58 -13.808,-16.756 0,-8.58 4.894,-17.225 14.277,-17.225 4.49,0 7.372,1.473 8.981,4.892 h 0.134 v -3.887 h 10.055 z m 11.459,3.017 h 10.055 V 15.257 H 298.13 Z M 297.795,9.158 h 10.724 V 0.511 h -10.724 z m 26.543,6.099 V 8.622 l 10.053,-3.62 v 10.255 h 7.574 v 6.702 h -7.574 v 15.618 c 0,4.423 0.67,5.63 4.155,5.63 1.073,0 2.145,-0.135 3.217,-0.202 v 5.899 c -1.138,0.535 -6.501,1.006 -7.909,1.006 -7.84,0 -9.516,-4.09 -9.516,-11.395 V 21.96 h -6.771 v -6.702 z m 47.116,12.801 c 0,-3.686 -1.005,-7.104 -5.897,-7.104 -4.624,0 -5.63,3.418 -5.765,7.104 z m -11.662,6.703 c 0,4.357 0.604,8.445 5.765,8.445 3.485,0 5.228,-1.273 6.166,-4.357 h 9.049 c -0.872,8.312 -7.375,11.061 -15.215,11.061 -11.527,0 -16.153,-6.502 -16.153,-17.763 0,-10.12 5.897,-17.895 16.153,-17.895 6.301,0 11.528,2.144 14.343,8.043 0.938,1.876 1.408,3.887 1.676,6.032 0.267,2.078 0.267,4.222 0.267,6.434 z m 49.264,-7.708 c -0.066,-2.748 -1.207,-6.099 -5.095,-6.099 -4.29,0 -4.356,8.043 -4.49,10.657 0.268,3.084 0.335,11.595 4.625,11.595 3.888,0 5.027,-3.82 5.094,-6.568 h 9.785 c -0.334,8.58 -5.629,13.272 -14.879,13.272 -9.987,0 -15.014,-8.915 -15.014,-17.83 0,-8.915 5.027,-17.828 15.014,-17.828 8.58,0 14.946,4.892 14.879,12.801 z m 20.441,21.851 h 8.512 v -8.915 h -8.512 z m 37.065,-21.851 c -0.067,-2.748 -1.206,-6.099 -5.092,-6.099 -4.29,0 -4.359,8.043 -4.492,10.657 0.269,3.084 0.335,11.595 4.625,11.595 3.886,0 5.026,-3.82 5.093,-6.568 h 9.786 c -0.335,8.58 -5.63,13.272 -14.879,13.272 -9.987,0 -15.014,-8.915 -15.014,-17.83 0,-8.915 5.027,-17.828 15.014,-17.828 8.578,0 14.948,4.892 14.879,12.801 z m 18.767,21.851 V 0.51 h 9.986 v 18.7 l 0.134,0.135 c 2.079,-3.084 5.228,-5.094 10.323,-5.094 3.351,0 9.853,2.48 11.06,7.372 0.536,2.079 0.669,4.223 0.669,5.362 V 48.903 H 507.447 V 28.662 c -0.067,-3.619 -1.072,-7.708 -6.033,-7.708 -3.149,0 -5.896,2.814 -6.03,7.708 v 20.242 z"
         clip-rule="evenodd"
         id="path2" /></g></g></svg>
