<svg clip-rule="evenodd" fill-rule="evenodd" stroke-linejoin="round" stroke-miterlimit="2" viewBox="0 0 106 57" xmlns="http://www.w3.org/2000/svg" xmlns:xlink="http://www.w3.org/1999/xlink"><clipPath id="a"><path clip-rule="evenodd" d="m194.818 0h144.818v115.009h-144.818z"/></clipPath><g transform="matrix(.72619 0 0 .492943 -141.47519 0)"><path d="m194.818 0h144.818v115.009h-144.818z" fill="none"/><g clip-path="url(#a)"><path d="m72.935 82.042h3.048c1.32 0 2.336.338 3.048 1.014s1.068 1.71 1.068 3.102-.356 2.426-1.068 3.102-1.728 1.014-3.048 1.014h-3.048zm3.048 7.236c.952 0 1.678-.24 2.178-.72s.754-1.272.762-2.376v-.024c0-1.112-.25-1.91-.75-2.394s-1.23-.726-2.19-.726h-1.908v6.24zm6.372-7.236h1.14v8.232h-1.14zm7.272 3.948h4.044v4.284h-.888l-.084-.912c-.624.704-1.58 1.056-2.868 1.056-1.344 0-2.36-.354-3.048-1.062s-1.032-1.774-1.032-3.198c0-2.84 1.384-4.26 4.152-4.26 1.136 0 2.048.252 2.736.756s1.032 1.236 1.032 2.196h-1.164c0-.664-.232-1.16-.696-1.488s-1.1-.492-1.908-.492c-1 0-1.744.256-2.232.768s-.732 1.352-.732 2.52v.024c.008 1.16.25 1.994.726 2.502s1.198.762 2.166.762c.928 0 1.61-.192 2.046-.576s.654-.972.654-1.764v-.12h-2.904zm6.6-3.948h1.14v8.232h-1.14zm5.928.996h-2.832v-.996h6.804v.996h-2.832v7.236h-1.14zm7.224-.996h1.452l3.192 8.232h-1.212l-.828-2.196h-3.816l-.804 2.196h-1.176zm2.232 5.04-.96-2.568-.552-1.488h-.06l-.54 1.464-.96 2.592zm4.044-5.04h1.14v7.236h4.224v.996h-5.364zm12.564 0h4.008c.824 0 1.456.228 1.896.684s.66 1.064.66 1.824c0 .776-.23 1.398-.69 1.866s-1.082.702-1.866.702h-2.868v3.156h-1.14zm3.948 4.08c.448 0 .804-.14 1.068-.42s.396-.66.396-1.14c0-.488-.124-.864-.372-1.128s-.612-.396-1.092-.396h-2.808v3.084zm4.656-4.08h4.284c.824 0 1.456.212 1.896.636s.66.992.66 1.704c0 .56-.134 1.044-.402 1.452s-.638.7-1.11.876l1.896 3.564h-1.272l-1.788-3.396h-3.024v3.396h-1.14zm4.224 3.84c.448 0 .804-.132 1.068-.396s.396-.628.396-1.092c0-.432-.124-.766-.372-1.002s-.612-.354-1.092-.354h-3.084v2.844zm8.76 4.536c-1.304 0-2.314-.358-3.03-1.074s-1.074-1.778-1.074-3.186.358-2.47 1.074-3.186 1.726-1.074 3.03-1.074c1.312 0 2.326.358 3.042 1.074s1.074 1.778 1.074 3.186c0 1.4-.358 2.46-1.074 3.18s-1.73 1.08-3.042 1.08zm0-.972c.952 0 1.68-.258 2.184-.774s.756-1.338.756-2.466v-.048c-.008-1.144-.264-1.978-.768-2.502s-1.228-.786-2.172-.786c-.936 0-1.656.262-2.16.786s-.76 1.358-.768 2.502v.048c0 1.128.252 1.95.756 2.466s1.228.774 2.172.774zm9.708-3.456h4.044v4.284h-.888l-.084-.912c-.624.704-1.58 1.056-2.868 1.056-1.344 0-2.36-.354-3.048-1.062s-1.032-1.774-1.032-3.198c0-2.84 1.384-4.26 4.152-4.26 1.136 0 2.048.252 2.736.756s1.032 1.236 1.032 2.196h-1.164c0-.664-.232-1.16-.696-1.488s-1.1-.492-1.908-.492c-1 0-1.744.256-2.232.768s-.732 1.352-.732 2.52v.024c.008 1.16.25 1.994.726 2.502s1.198.762 2.166.762c.928 0 1.61-.192 2.046-.576s.654-.972.654-1.764v-.12h-2.904zm6.444-3.948h4.284c.824 0 1.456.212 1.896.636s.66.992.66 1.704c0 .56-.134 1.044-.402 1.452s-.638.7-1.11.876l1.896 3.564h-1.272l-1.788-3.396h-3.024v3.396h-1.14zm4.224 3.84c.448 0 .804-.132 1.068-.396s.396-.628.396-1.092c0-.432-.124-.766-.372-1.002s-.612-.354-1.092-.354h-3.084v2.844zm5.04-3.84h6.336v.996h-5.196v2.532h4.668v.996h-4.668v2.712h5.268v.996h-6.408zm11.64 8.376c-1 0-1.816-.2-2.448-.6s-.948-1.024-.948-1.872l.012-.24h1.128c0 .008-.004.036-.012.084s-.012.104-.012.168c0 .488.202.858.606 1.11s.942.378 1.614.378c.752 0 1.328-.118 1.728-.354s.6-.574.6-1.014c0-.296-.104-.542-.312-.738s-.47-.35-.786-.462-.742-.236-1.278-.372c-.664-.168-1.2-.33-1.608-.486s-.756-.388-1.044-.696-.432-.714-.432-1.218c0-.72.3-1.268.9-1.644s1.368-.564 2.304-.564 1.696.19 2.28.57.876.962.876 1.746v.144h-1.116v-.18c0-.408-.186-.728-.558-.96s-.854-.348-1.446-.348c-.632 0-1.138.096-1.518.288s-.57.48-.57.864c0 .28.102.508.306.684s.456.318.756.426.718.23 1.254.366c.664.168 1.206.332 1.626.492s.776.394 1.068.702.438.71.438 1.206c0 .88-.306 1.52-.918 1.92s-1.442.6-2.49.6zm8.604 0c-1 0-1.816-.2-2.448-.6s-.948-1.024-.948-1.872l.012-.24h1.128c0 .008-.004.036-.012.084s-.012.104-.012.168c0 .488.202.858.606 1.11s.942.378 1.614.378c.752 0 1.328-.118 1.728-.354s.6-.574.6-1.014c0-.296-.104-.542-.312-.738s-.47-.35-.786-.462-.742-.236-1.278-.372c-.664-.168-1.2-.33-1.608-.486s-.756-.388-1.044-.696-.432-.714-.432-1.218c0-.72.3-1.268.9-1.644s1.368-.564 2.304-.564 1.696.19 2.28.57.876.962.876 1.746v.144h-1.116v-.18c0-.408-.186-.728-.558-.96s-.854-.348-1.446-.348c-.632 0-1.138.096-1.518.288s-.57.48-.57.864c0 .28.102.508.306.684s.456.318.756.426.718.23 1.254.366c.664.168 1.206.332 1.626.492s.776.394 1.068.702.438.71.438 1.206c0 .88-.306 1.52-.918 1.92s-1.442.6-2.49.6z" fill="#222" transform="matrix(1.12839299 0 0 1.66231913 112.518685 -35.294048)"/><path d="m0-27.103h-6.922v27.611h18.749v-6.05h-11.827zm70.65 8.879c0-1.434-1.106-2.792-3.006-2.792h-3.918v5.586h3.918c1.9 0 3.006-1.36 3.006-2.794m6.924 0c0 4.538-3.364 8.881-9.616 8.881h-4.232v9.851h-6.927v-27.611h11.159c6.252 0 9.616 4.341 9.616 8.879m-47.431-10.323-13.925 26.922 6.175 3.069 13.926-26.922zm16.069 0 6.174 3.069-13.927 26.922-6.174-3.069z" fill="#199f00" fill-rule="nonzero" transform="matrix(1.71419 0 0 2.5253 206.683599 72.089789)"/></g></g></svg>