<svg xmlns="http://www.w3.org/2000/svg" width="400mm" height="100mm" viewBox="0 0 1133.86 283.46">
  <defs>
    <style>
      .cls-1 {
        fill: #da0025;
      }

      .cls-2 {
        fill: #fff;
      }
      .cls-3 {
        fill: #000;
      }
    </style>
  </defs>
  <g id="Fläche">
    <g>
      <rect class="cls-1" x="37.8" width="245.67" height="245.67"/>
      <polygon class="cls-1" points="18.9 0 0 0 0 283.46 283.46 283.46 283.46 264.57 18.9 264.57 18.9 0"/>
    </g>
  </g>
  <g id="Pferd">
    <path class="cls-2" d="M236.18,108.19a14.16,14.16,0,0,0-.9-5.48c-1.11-3-5.42-5.6-10.07-4.48-5.89,3.21-18.69,10.53-18.69,10.53l-8.13-19.69V61.41l9.45,10.38V89.07c0-.11,12.44.42,14.77-.5,3.27-1.28,4.13-4.25,4.13-7.11V17.29c-2,1.51-7.56,5-7.56,5-29.31-.86-58.12,17.88-61.52,66.43l-28,29.2c-10.13-.24-21.13,4-27.5,9.56l-1.42-1.74c-6-6.3-23-10.68-23.73,13.57-.19,5.52-.53,8.76-1,15.7-.79,12.89-10.49,19.59-16.45,11.92,0,0,3,17.57,17.73,13.32,12.72-3.66,11.91-18.54,11.53-23.07-.25-3-2.3-9.11,1.3-17.36,1.26-2.87,3.14-5.31,7-5.6l2.52.49c-4.67,8.1-3.82,21.3,3.53,35.81L95.4,185.39l8.5,18.67v22.7l-3.79,5,13.24,13.91v-52c12.22-8,20.59-14.7,23.68-33.07,9.87.79,22.08-7.16,30.29-11.46,8.78-5.41,17.74-11.81,24.88-20.41l9,3.53,25.59-18.9v18.9h-5.63l-.05,14.17,7.4-2.84s7.76-2.54,7.72-6.61C236.15,127.66,236.12,117.92,236.18,108.19Z"/>
  </g>
  <g id="Word_mark" data-name="Word mark">
    <g>
      <path class="cls-3" d="M832.69,151.25a53,53,0,0,1,14.39,2.5h4.85V140.32c-25.42-6.18-51.74-4.45-49.43,27.64H757.6V154.69H742c-.21,6.37,1.67,13.68-7,13.27H690c-19.09,0-29.1,8.44-29.1,23,0,28.11,41.77,17,41.77,33.42,0,5-5.17,8.59-15.33,8.59a77.7,77.7,0,0,1-22.53-3.75H660.3v13.59c22.4,6.61,61.28,6.34,60.23-19.83,0-28.12-41.77-17.5-41.77-33.27,0-5,3.6-8.28,12.52-8.28H739v42.48c-.94,26.13,26.22,24.75,44.27,20V230.13H779c-8.92,2.64-22.16,4.79-21.43-9.84V181.4h44.9v64h18.61v-64H843V168h-21.9C820.88,158.76,820.72,151.18,832.69,151.25Z"/>
      <path class="cls-3" d="M614.31,168C589,168,576,181.09,576,209.2c0,27.33,14.86,37.33,40,37.33a94.63,94.63,0,0,0,29.57-4.37V228.41h-4.85c-15.36,6.06-46.1,9.06-47-15.62H647C649.42,185.8,641.4,167.49,614.31,168ZM593.8,200c1-12.67,8.38-18.58,19.11-18.58S630,186.55,630.43,200Z"/>
      <polygon class="cls-3" points="535.79 231.32 510.92 139.69 489.02 139.69 463.49 231.1 443.5 139.69 425.2 139.69 425.2 144.38 448.66 245.44 475.25 245.44 499.46 160.42 522.65 245.44 549.56 245.44 573.65 144.38 573.65 139.69 555.97 139.69 535.79 231.32"/>
      <path class="cls-3" d="M1104.61,168a67,67,0,0,0-28.63,6.93v-5.83h-16.43v76.38h18.62V187.32c6.42-2.35,12.94-4,19.55-4,13,0,17.52,5.47,17.52,18.59v43.58h18.62v-46.7C1133.86,178.43,1124.79,168,1104.61,168Z"/>
      <path class="cls-3" d="M1009.79,168c-25.34,0-38.32,13.13-38.32,41.24,0,27.33,14.86,37.33,40,37.33a94.68,94.68,0,0,0,29.57-4.37V228.41h-4.85c-15.36,6.06-46.1,9.06-47-15.62h53.24C1044.9,185.8,1036.87,167.49,1009.79,168Zm-20.51,32c1-12.67,8.38-18.58,19.11-18.58s17.05,5.15,17.52,18.58Z"/>
      <rect class="cls-3" x="936.69" y="139.69" width="18.62" height="105.75"/>
      <path class="cls-3" d="M886.2,168c-11.73,0-23.62,2.35-32.38,4.53V186.4h5c6.26-1.88,15.65-4.53,24.09-4.53,14.24,0,18.62,5.15,18.62,18.11v2.5c-21.16-4.22-52.47-2.59-51.94,22.34-.63,25.87,37.46,25.81,54.28,14.16v6.46h16.27V200.61C920.14,178.12,911.23,168,886.2,168Zm-18.77,55.45c-.54-14.64,26.45-10,34.1-8v11.91C892.24,234.38,867.71,238.77,867.43,223.41Z"/>
    </g>
  </g>
</svg>
